<?xml version="1.0" encoding="utf-8"?>
<!-- Generator: Adobe Illustrator 28.2.0, SVG Export Plug-In . SVG Version: 6.00 Build 0)  -->
<svg version="1.1" id="Livello_1" xmlns="http://www.w3.org/2000/svg" xmlns:xlink="http://www.w3.org/1999/xlink" x="0px" y="0px"
	 viewBox="0 0 595.3 841.9" style="enable-background:new 0 0 595.3 841.9;" xml:space="preserve">
<style type="text/css">
	.st0{fill:#FFFFFF;}
	.st1{fill:#B39461;}
	.st2{fill:#0077BE;}
	.st3{fill:#00803D;}
	.st4{fill:#FFFFFF;stroke:#B39461;stroke-width:0.8748;stroke-miterlimit:10;}
</style>
<polygon class="st0" points="146.1,268.8 146.2,507.3 388.3,268.8 "/>
<path class="st1" d="M185.8,103.9v-0.6h6.8c1.3,0,2.5,0,3.8-0.1c1.2,0,2.5-0.1,3.8-0.1c1.2,0,2.4,0.1,3.7,0.4
	c1.3,0.2,2.5,0.7,3.6,1.2c1.1,0.6,2,1.4,2.7,2.4c0.7,1,1.1,2.2,1.1,3.8c0,1.2-0.3,2.2-0.8,3.1c-0.5,0.9-1.2,1.6-2.1,2.1
	c-0.9,0.5-1.8,1-2.9,1.2c-1.1,0.3-2.1,0.5-3.1,0.6v0.2c1.5,0.3,2.8,0.5,4,0.8c1.2,0.3,2.2,0.7,3,1.2c0.8,0.5,1.5,1.3,2,2.3
	c0.5,1,0.8,2.3,0.9,3.9c0.2,1.9,0.3,3.4,0.4,4.6c0.1,1.1,0.2,2,0.4,2.7c0.2,0.6,0.4,1.1,0.7,1.3c0.3,0.2,0.7,0.3,1.2,0.3
	c0.6,0,1.1-0.2,1.5-0.5c0.4-0.3,0.7-0.7,1-1l0.5,0.4c-0.3,0.3-0.6,0.6-0.9,0.8c-0.3,0.3-0.6,0.5-1,0.7c-0.4,0.2-0.8,0.3-1.4,0.4
	c-0.5,0.1-1.2,0.2-2,0.2c-1.7,0-3-0.3-3.9-0.8c-0.9-0.5-1.6-1.2-2.1-2c-0.5-0.8-0.7-1.6-0.8-2.6c-0.1-0.9-0.2-1.8-0.2-2.6
	c-0.1-1.2-0.1-2.4-0.2-3.6c-0.1-1.2-0.4-2.2-0.7-3.1c-0.4-0.9-1-1.6-1.8-2.2c-0.8-0.5-1.9-0.8-3.3-0.8h-3v16.3h4.2v0.6h-14.9v-0.6
	h4.2v-30.9H185.8z M198.3,117.9c1.4,0,2.4-0.2,3.2-0.5c0.8-0.4,1.4-0.9,1.8-1.5c0.4-0.6,0.6-1.3,0.7-2.1c0.1-0.8,0.2-1.6,0.2-2.4
	c0-1.3-0.1-2.5-0.3-3.4c-0.2-0.9-0.5-1.7-0.9-2.4c-0.4-0.6-1-1.1-1.7-1.4c-0.7-0.3-1.7-0.5-2.8-0.5c-0.3,0-0.7,0-1,0
	c-0.3,0-0.7,0.1-1,0.1v14H198.3z"/>
<path class="st1" d="M245.5,103.3v7.7h-0.6c-0.2-0.5-0.4-1.2-0.8-2c-0.4-0.8-0.9-1.6-1.5-2.3s-1.5-1.4-2.5-2c-1-0.6-2.3-0.8-3.8-0.8
	h-7.2v14h2.5c1.1,0,2.1-0.2,2.8-0.5c0.8-0.3,1.4-0.8,1.9-1.4c0.5-0.6,0.9-1.3,1.3-2.1c0.3-0.8,0.6-1.8,0.8-2.8h0.6v14.1h-0.6
	c-0.2-0.9-0.5-1.7-0.7-2.5c-0.3-0.8-0.7-1.5-1.2-2.1c-0.5-0.6-1.1-1.1-1.8-1.5s-1.6-0.5-2.6-0.5h-3v16.3h7.4c1.4,0,2.6-0.2,3.8-0.7
	c1.1-0.5,2.1-1.1,3-2c0.9-0.8,1.6-1.8,2.1-3c0.6-1.1,1-2.3,1.3-3.6h0.6v9.9h-28.9v-0.6h4.2v-30.9h-4.2v-0.6H245.5z"/>
<path class="st1" d="M278.4,112.5c-0.8-3-2-5.3-3.5-6.9c-1.6-1.6-3.7-2.4-6.3-2.4c-2.1,0-3.8,0.4-5,1.2c-1.3,0.8-2.2,1.8-2.9,3.1
	c-0.7,1.3-1.1,2.7-1.3,4.4c-0.2,1.6-0.3,3.3-0.3,5v3.9c0,2.7,0.2,5.1,0.5,6.9c0.4,1.9,0.9,3.4,1.7,4.5c0.8,1.1,1.8,2,3,2.5
	c1.2,0.5,2.7,0.7,4.4,0.7c1.4,0,2.5-0.2,3.3-0.7c0.8-0.5,1.4-1.2,1.9-2c0.4-0.9,0.7-1.9,0.8-3.1c0.1-1.2,0.2-2.5,0.2-3.8v-1.7h-4.7
	v-0.6h14v0.6h-2.9v10.4h-0.8c-0.1-0.4-0.2-0.6-0.5-0.8c-0.3-0.2-0.6-0.2-1-0.2c-0.7,0-1.4,0.1-2.1,0.4c-0.6,0.3-1.3,0.6-2.1,0.9
	c-0.8,0.3-1.6,0.6-2.6,0.9c-1,0.3-2.2,0.4-3.6,0.4c-2.2,0-4.3-0.4-6.4-1.3c-2.1-0.9-3.9-2-5.4-3.5c-1.6-1.5-2.8-3.2-3.7-5.3
	c-0.9-2-1.4-4.2-1.4-6.6c0-2.6,0.5-4.9,1.6-7c1-2.1,2.4-3.9,4-5.3c1.6-1.5,3.4-2.6,5.4-3.4c2-0.8,4-1.2,5.9-1.2
	c0.9,0,1.8,0.1,2.6,0.3c0.8,0.2,1.6,0.4,2.4,0.6c0.7,0.2,1.4,0.4,1.9,0.6c0.6,0.2,1.1,0.3,1.4,0.3c0.4,0,0.7-0.1,0.9-0.2
	c0.2-0.1,0.3-0.4,0.5-0.7h0.8v9.2H278.4z"/>
<path class="st1" d="M301.3,103.3v0.6h-4.2v30.9h4.2v0.6h-14.9v-0.6h4.2v-30.9h-4.2v-0.6H301.3z"/>
<path class="st1" d="M306.5,112.5c1-2.1,2.4-3.9,4-5.3c1.6-1.5,3.5-2.6,5.5-3.4c2-0.8,4-1.2,5.9-1.2c2.1,0,4.1,0.4,6.2,1.2
	c2,0.8,3.8,1.9,5.4,3.3s2.9,3.2,3.8,5.3c1,2.1,1.5,4.4,1.5,7c0,2.3-0.5,4.4-1.4,6.4c-0.9,2-2.2,3.8-3.7,5.4
	c-1.6,1.5-3.3,2.8-5.4,3.6c-2,0.9-4.2,1.3-6.4,1.3c-2.2,0-4.4-0.4-6.4-1.3c-2.1-0.9-3.9-2-5.4-3.5c-1.6-1.5-2.8-3.2-3.7-5.3
	c-0.9-2-1.4-4.2-1.4-6.6C305,116.9,305.5,114.6,306.5,112.5z M312.9,127.3c0.4,2.1,0.9,3.7,1.7,4.9s1.8,2.1,3,2.6
	c1.2,0.5,2.7,0.7,4.4,0.7c2.2,0,4-0.4,5.2-1.2c1.3-0.8,2.2-2,2.8-3.4c0.6-1.5,1-3.2,1.2-5.2c0.2-2,0.2-4.2,0.2-6.5
	c0-2.1-0.1-4.1-0.2-6c-0.1-1.9-0.5-3.6-1.2-5.1c-0.6-1.5-1.6-2.6-2.9-3.5c-1.3-0.9-3.1-1.3-5.3-1.3c-2.1,0-3.8,0.4-5.1,1.2
	c-1.3,0.8-2.2,1.9-2.9,3.4c-0.7,1.4-1.1,3.2-1.3,5.2c-0.2,2-0.3,4.2-0.3,6.6C312.3,122.6,312.5,125.2,312.9,127.3z"/>
<path class="st1" d="M352.9,103.3l15.1,21.5h0.1v-20.9h-4.2v-0.6h9v0.6h-4.2v31.6h-1.2l-20.4-29h-0.1v28.4h4.2v0.6h-9v-0.6h4.2
	v-30.9h-4.2v-0.6H352.9z"/>
<path class="st1" d="M403,103.3v7.7h-0.6c-0.2-0.5-0.4-1.2-0.8-2c-0.4-0.8-0.9-1.6-1.5-2.3c-0.6-0.8-1.5-1.4-2.5-2
	c-1-0.6-2.3-0.8-3.8-0.8h-7.2v14h2.5c1.1,0,2.1-0.2,2.8-0.5c0.8-0.3,1.4-0.8,1.9-1.4c0.5-0.6,0.9-1.3,1.3-2.1
	c0.3-0.8,0.6-1.8,0.8-2.8h0.6v14.1H396c-0.2-0.9-0.5-1.7-0.7-2.5c-0.3-0.8-0.7-1.5-1.2-2.1c-0.5-0.6-1.1-1.1-1.8-1.5
	c-0.7-0.4-1.6-0.5-2.6-0.5h-3v16.3h7.4c1.4,0,2.6-0.2,3.8-0.7c1.1-0.5,2.1-1.1,3-2c0.9-0.8,1.6-1.8,2.1-3c0.6-1.1,1-2.3,1.3-3.6h0.6
	v9.9h-28.9v-0.6h4.2v-30.9h-4.2v-0.6H403z"/>
<path class="st1" d="M141,189.8l18.1-44.2h3.2l19.2,44.2h5.2v0.9h-20.4v-0.9h5.7l-7.1-16.3h-14.6l-6.8,16.3h5.4v0.9h-11.5v-0.9H141z
	 M150.5,172.7h14l-7.2-16.6L150.5,172.7z"/>
<path class="st1" d="M187.2,148.2v-0.9h9.2c1.7,0,3.4,0,5.1-0.1c1.7-0.1,3.3-0.1,5.1-0.1c1.6,0,3.2,0.2,5,0.5
	c1.7,0.3,3.3,0.9,4.8,1.6c1.4,0.8,2.6,1.8,3.6,3.1c0.9,1.3,1.4,2.9,1.4,4.9c0,1.7-0.5,3.2-1.4,4.4c-0.9,1.2-2,2.2-3.3,3
	c-1.3,0.8-2.6,1.4-4,1.8c-1.4,0.4-2.6,0.7-3.6,0.8v0.2c1.6,0.1,3.2,0.4,4.9,0.8c1.7,0.4,3.3,1,4.7,1.9s2.6,2,3.5,3.4
	c0.9,1.4,1.4,3.2,1.4,5.4c0,2.4-0.6,4.3-1.8,5.8c-1.2,1.5-2.7,2.8-4.4,3.7c-1.7,0.9-3.6,1.5-5.5,1.9c-1.9,0.3-3.7,0.5-5.2,0.5
	c-1.7,0-3.4,0-5.1-0.1c-1.7,0-3.4-0.1-5.1-0.1h-9.2v-0.9h5.6v-41.6H187.2z M204.1,167c1.8,0,3.3-0.2,4.3-0.7c1.1-0.5,1.8-1.1,2.4-2
	c0.5-0.8,0.9-1.8,1-2.8c0.1-1.1,0.2-2.1,0.2-3.2c0-1.8-0.1-3.3-0.4-4.6c-0.2-1.3-0.6-2.3-1.2-3.2c-0.6-0.8-1.3-1.5-2.3-1.9
	c-1-0.4-2.3-0.6-3.8-0.6c-0.4,0-0.9,0-1.3,0.1c-0.4,0-0.9,0.1-1.3,0.1V167H204.1z M205.2,190c1.3,0,2.5-0.2,3.5-0.5
	c1-0.3,1.9-0.9,2.6-1.7c0.7-0.9,1.3-2,1.7-3.6c0.4-1.5,0.6-3.5,0.6-6c0-0.7-0.1-1.6-0.2-2.8c-0.1-1.2-0.5-2.3-1-3.4
	c-0.5-1.1-1.4-2.1-2.5-3c-1.1-0.8-2.7-1.2-4.7-1.2h-3.5v22C202.7,190,203.9,190,205.2,190z"/>
<path class="st1" d="M228.9,148.2v-0.9h9.2c1.7,0,3.4,0,5.1-0.1c1.7-0.1,3.3-0.1,5.1-0.1c1.6,0,3.3,0.2,5,0.5
	c1.8,0.3,3.4,0.9,4.8,1.7c1.5,0.8,2.7,1.9,3.6,3.2c1,1.3,1.4,3,1.4,5.1c0,1.6-0.4,3-1.1,4.2c-0.7,1.2-1.7,2.1-2.8,2.8
	c-1.2,0.7-2.4,1.3-3.9,1.7c-1.4,0.4-2.8,0.6-4.2,0.8v0.3c2,0.4,3.8,0.7,5.3,1.1c1.6,0.4,2.9,0.9,4,1.6c1.1,0.7,2,1.7,2.7,3
	c0.7,1.3,1.1,3,1.2,5.2c0.2,2.6,0.4,4.6,0.5,6.1c0.1,1.5,0.3,2.7,0.5,3.6c0.2,0.9,0.5,1.4,0.9,1.7c0.4,0.3,0.9,0.4,1.7,0.4
	c0.8,0,1.5-0.2,2-0.7c0.5-0.5,1-0.9,1.4-1.3l0.6,0.5c-0.4,0.4-0.8,0.8-1.2,1.1c-0.4,0.3-0.8,0.6-1.3,0.9c-0.5,0.2-1.1,0.4-1.9,0.6
	c-0.7,0.1-1.6,0.2-2.7,0.2c-2.2,0-4-0.4-5.2-1.1c-1.3-0.7-2.2-1.6-2.8-2.6c-0.6-1.1-1-2.2-1.1-3.4c-0.1-1.2-0.2-2.4-0.3-3.5
	c-0.1-1.7-0.2-3.3-0.3-4.8c-0.1-1.6-0.5-3-1-4.2c-0.5-1.2-1.3-2.2-2.4-2.9c-1.1-0.7-2.5-1.1-4.4-1.1h-4v22h5.6v0.9h-20v-0.9h5.6
	v-41.6H228.9z M245.8,167c1.8,0,3.3-0.2,4.3-0.7c1.1-0.5,1.8-1.1,2.4-2c0.5-0.8,0.9-1.8,1-2.8c0.1-1.1,0.2-2.1,0.2-3.2
	c0-1.8-0.1-3.3-0.4-4.6c-0.2-1.3-0.6-2.3-1.2-3.2c-0.6-0.8-1.3-1.5-2.3-1.9c-1-0.4-2.3-0.6-3.8-0.6c-0.4,0-0.9,0-1.3,0.1
	c-0.4,0-0.9,0.1-1.3,0.1V167H245.8z"/>
<path class="st1" d="M292.8,147.4v0.9h-5.6v27.3c0,1.9,0.1,3.8,0.3,5.6c0.2,1.8,0.6,3.4,1.3,4.8c0.7,1.4,1.7,2.6,3,3.4
	c1.3,0.9,3.1,1.3,5.3,1.3c2.2,0,2.9-0.3,4.4-0.8c1.5-0.5,2.7-1.2,3.7-2c1-0.8,1.7-1.8,2.3-2.8c0.5-1,0.9-2.1,1.2-3.1
	c0.2-1,0.4-2,0.4-2.9c0-0.9,0.1-1.7,0.1-2.3l-0.3-28.6h-4.1v-0.9h12.2v0.9h-5.7v28.5c0,0.6,0,1.5-0.1,2.5c0,1-0.2,2-0.5,3.1
	c-0.3,1.1-0.7,2.2-1.3,3.3c-0.6,1.1-1.4,2.1-2.5,3c-1.1,0.9-2.5,1.6-4.1,2.1c-1.7,0.5-3.7,0.8-6.1,0.8c-3.9,0-7.1-0.4-9.5-1.3
	c-2.4-0.9-4.2-2-5.5-3.4c-1.3-1.4-2.1-3-2.5-4.8c-0.4-1.8-0.6-3.6-0.6-5.4v-28.4h-5.7v-0.9H292.8z"/>
<path class="st1" d="M336.2,148.2c-1.6,0-3,0.2-4.3,0.7c-1.2,0.4-2.3,1.1-3.2,1.9c-0.9,0.8-1.7,1.8-2.4,2.9
	c-0.7,1.1-1.3,2.4-1.9,3.8h-0.8v-10.2h31.5l-24.6,42.5h11c1.6,0,3.2-0.2,4.7-0.7c1.5-0.4,2.9-1.2,4.2-2.2c1.3-1,2.4-2.4,3.3-4
	c1-1.6,1.7-3.6,2.2-6h0.8v13.8h-36.6l24.5-42.5H336.2z"/>
<path class="st1" d="M377.8,148.2c-1.6,0-3,0.2-4.3,0.7c-1.2,0.4-2.3,1.1-3.2,1.9c-0.9,0.8-1.7,1.8-2.4,2.9
	c-0.7,1.1-1.3,2.4-1.9,3.8h-0.8v-10.2h31.5l-24.6,42.5h11c1.6,0,3.2-0.2,4.7-0.7c1.5-0.4,2.9-1.2,4.2-2.2c1.3-1,2.4-2.4,3.3-4
	c1-1.6,1.7-3.6,2.2-6h0.8v13.8h-36.6l24.5-42.5H377.8z"/>
<path class="st1" d="M406.1,159.8c1.4-2.8,3.2-5.2,5.4-7.2c2.2-2,4.6-3.5,7.4-4.6c2.7-1.1,5.4-1.6,8-1.6c2.8,0,5.6,0.5,8.3,1.6
	c2.7,1.1,5.2,2.6,7.3,4.5s3.9,4.3,5.2,7.1c1.3,2.8,2,5.9,2,9.4c0,3-0.6,5.9-1.9,8.7s-2.9,5.1-5,7.2c-2.1,2.1-4.5,3.7-7.2,4.9
	c-2.7,1.2-5.6,1.8-8.7,1.8c-3,0-5.9-0.6-8.6-1.7c-2.8-1.2-5.2-2.7-7.3-4.7c-2.1-2-3.8-4.4-5-7.1c-1.3-2.7-1.9-5.7-1.9-8.8
	C404,165.7,404.7,162.6,406.1,159.8z M414.7,179.6c0.5,2.8,1.2,5,2.3,6.6c1,1.6,2.4,2.8,4,3.4c1.6,0.6,3.6,1,5.9,1
	c3,0,5.4-0.6,7.1-1.7c1.7-1.1,3-2.7,3.8-4.6c0.9-2,1.4-4.3,1.6-7c0.2-2.7,0.3-5.6,0.3-8.8c0-2.8-0.1-5.5-0.3-8.1
	c-0.2-2.6-0.7-4.8-1.6-6.8c-0.9-2-2.1-3.5-3.9-4.7c-1.7-1.2-4.1-1.7-7.2-1.7c-2.8,0-5.1,0.5-6.8,1.6c-1.7,1.1-3,2.6-3.9,4.5
	c-0.9,1.9-1.5,4.3-1.8,6.9c-0.3,2.7-0.4,5.6-0.4,8.8C413.9,173.4,414.2,176.9,414.7,179.6z"/>
<path class="st2" d="M442.9,610.9L442.7,425L229,638.7c6.9,0,14.4-0.2,18.4,0.2c2.1,0.2,4.1,0.4,5.7,0.8c1.4,0.3,4.4,1.1,6.5,1.9
	c3.2,1.2,6.3,2.6,8.9,4.3c4.3,2.6,7.7,5.7,10.1,8.2c1.8,1.9,4.5,5.6,7.1,9.2c4.4,5.9,8.7,11.8,8.7,11.8c2.7-3.7,5.4-7.4,7.8-10.6
	c3.5-4.8,6.5-8.9,9.5-11.9c2.1-2.2,4.6-4.2,6.6-5.5c1.4-1,8.3-5.2,15.6-6.9c5-1.2,8.2-1.3,18.3-1.3c15.2,0,42.6,0,62.8,0
	C430.5,638.8,443,626.3,442.9,610.9z"/>
<path class="st3" d="M388.3,268.8L146.2,507.3l0,104c0,15.2,12.4,27.5,27.6,27.5l55.2-0.1L442.7,425V268.8H388.3z"/>
<path class="st1" d="M298.8,304.1c-3.5,0-6.3,2.8-6.3,6.3c0,0.1,0,0.1,0,0.2c0,0.1,0,0.1,0,0.2l0.1,0c0,0,0,0,0,0l-0.1,0l1.6,10.9
	h-1.8h-1.8l1.6-10.9c0-0.1,0-0.1,0-0.2c0-0.1,0-0.2,0-0.2l0,0c0-3.5-2.8-6.3-6.3-6.3s-6.3,2.8-6.3,6.3c0,0.7,0.5,1.2,1.2,1.2
	c0.7,0,1.2-0.5,1.2-1.2c0-2.2,1.8-3.9,3.9-3.9c2.2,0,3.9,1.8,3.9,3.9c0,0,0,0.1,0,0.1l-1.8,12.2c-0.1,0.3,0.1,0.7,0.3,1
	c0.2,0.3,0.6,0.4,0.9,0.4h3.1h3.1c0.3,0,0.7-0.2,0.9-0.4c0.2-0.3,0.3-0.6,0.3-1l-1.8-12.3c0,0,0,0,0-0.1l0,0c0-2.2,1.8-3.9,3.9-3.9
	s3.9,1.8,3.9,3.9c0,0.7,0.5,1.2,1.2,1.2c0.7,0,1.2-0.5,1.2-1.2C305.1,306.9,302.3,304.1,298.8,304.1z M289.8,310.8L289.8,310.8
	L289.8,310.8C289.8,310.8,289.8,310.8,289.8,310.8z"/>
<path class="st1" d="M289,310.3c-0.3-1.3-1.5-2.2-2.9-2.2c-1.4,0-2.6,0.9-2.9,2.2c0.3,1.3,1.5,2.2,2.9,2.2
	C287.5,312.6,288.6,311.6,289,310.3z"/>
<path class="st1" d="M298.6,308.1c-1.4,0-2.6,0.9-2.9,2.2c0.3,1.3,1.5,2.2,2.9,2.2c1.4,0,2.6-0.9,2.9-2.2
	C301.2,309.1,300.1,308.1,298.6,308.1z"/>
<path class="st1" d="M292.3,326.8c-1.9,0-3.4,0.8-3.9,1.9h7.7C295.8,327.6,294.2,326.8,292.3,326.8z"/>
<path class="st1" d="M292.3,331.8c2.3,0,4.1-1,4.6-2.3h-9.3C288.2,330.8,290.1,331.8,292.3,331.8z"/>
<path class="st1" d="M137.5,260.2v351c0,19.9,16.2,36.1,36.1,36.1h69.9c12.5,0,24.4,6,31.7,16.1l19.1,26.2l19.1-26.2
	c7.4-10.1,19.2-16.1,31.7-16.1h69.9c19.9,0,36.1-16.2,36.1-36.1v-351H137.5z M281.5,387.8l-5.4,5.9l-3-6.3l2.2-1.4
	c0.7-0.4,1.1-1.1,1.1-1.6l-0.2-3.5c0-0.9-1.3-1.2-2.4-0.5l-3.1,2l-4.5-9.3l0.3-0.1c0.5-0.2,0.7-0.9,0.5-1.4l-3.3-6.7
	c-0.2-0.5-0.9-0.7-1.4-0.5l-7.8,3.9c-0.5,0.2-0.7,0.9-0.5,1.4l3.3,6.7c0.2,0.5,0.9,0.7,1.4,0.5l0.8-0.4l4.9,9.5l-3.8,1.9
	c-1.2,0.6-1.6,1.8-0.9,2.3l2.9,2c0.5,0.3,1.2,0.3,2-0.1l2.3-1.1l12.5,24.4c-2.1,0.5-4,1-5.1,1.1l-0.5,0.1c-3.5,0.4-7.4,0.8-9.3-1.5
	c-1.1-1.4-2.2-5.5-3-8.5c-0.4-1.5-0.7-2.8-1-3.7c-0.1-0.2-0.2-0.6-0.3-1c-0.2-0.8-0.4-1.5-0.6-2.1l0.6-0.1c0.6-0.1,1-0.6,0.9-1.2
	l-0.5-4c-0.1-0.6-0.6-1-1.2-0.9l-0.2,0c-0.1-2.8-0.8-6.3-1.5-8.4c-0.2-0.6-0.9-1-1.5-0.8c-0.6,0.2-1,0.9-0.8,1.5
	c0.7,2.1,1.3,5.5,1.4,7.9l-15.3,2.1c0-0.2-0.1-0.5-0.2-0.7c-0.4-0.8-0.7-1.8-0.7-2.7l-1-9.7c-0.4-6.4,0.9-11.2,3.8-14.2
	c2.4-2.5,5.9-3.7,9.6-5c0.9-0.3,1.8-0.6,2.6-0.9c3.4-1.3,6.9-3.1,10.3-5.3l12.9,11.7c-1.3,2.3-2,4.9-2,7.6
	C276.7,380.9,278.6,384.9,281.5,387.8z M300.9,395.6c-0.4-1.1-1.6-2.1-2.9-1.8c-0.9,0.2-1.6,1-1.9,1.9l-0.2,0.8
	c-0.1,0.4-0.2,0.8-0.3,1.1c-3.2,12.7-6.6,14.7-6.7,14.8c-0.1,0.1-0.3,0.2-0.4,0.3c-0.5,0.1-1.2,0.4-2.2,0.6
	c-0.2,0.1-0.4,0.1-0.7,0.2l-8.4-17.4l6.1-6.7c2.6,1.8,5.7,2.9,9.1,2.9c4.7,0,8.9-2.1,11.8-5.4l9.3,8.5c-0.5,0-1.1,0.1-1.9,0.6
	c-3.8,2-7.9,4.8-8,4.9c-1,0.6-2.1,1.2-2.9,1.5c0-1,0.1-2.6,0.1-3.5C301,396.6,301.1,396,300.9,395.6z M292.5,385.7
	c-5.1,0-9.3-4.2-9.3-9.3c0-5.1,4.2-9.3,9.3-9.3c5.1,0,9.3,4.2,9.3,9.3C301.8,381.6,297.6,385.7,292.5,385.7z M241.1,402l15.9-2.1
	l0,0c0.3,0.3,0.6,1.7,0.8,2.3c0.1,0.4,0.2,0.8,0.3,1.1c0.3,0.8,0.6,2.1,1,3.5c0.9,3.6,2,7.7,3.4,9.5c1.8,2.1,4.4,2.7,7.1,2.7
	c1.4,0,2.9-0.2,4.3-0.3l0.5-0.1c2.6-0.3,8.8-2.1,12.5-3.1c1-0.3,1.8-0.5,2.3-0.6c0.2-0.1,0.4-0.2,0.5-0.3c0,0,0,0,0,0
	c0.7-0.3,4.6-2.4,8.1-16.4c0.1-0.3,0.2-0.6,0.3-1l0.2-0.8c0-0.1,0.1-0.2,0.1-0.2c0.1,0,0.1,0.1,0.2,0.1c0,0.3,0,1.5-0.1,2.4
	c-0.2,4.1-0.2,5.3,0.5,5.9c0.2,0.2,0.6,0.4,0.9,0.4c0.3,0,1.1,0.1,5.1-2.2c0,0,4.2-2.8,7.8-4.8c0.6-0.3,0.8-0.3,1-0.2
	c0.3,0.2,0.8,0.7,1.5,0.6c0.7-0.1,1.3,0.1,1.4,0.2c0.1,0.1,0.2,0.2,0.2,0.2c-0.1,0.5,0.1,1,0.6,1.3c0.4,0.2,0.8,0.2,1.2,0
	c0.2,0.1,0.4,0.3,0.6,0.6c0,0.1-0.2,0.4-0.7,0.7c-0.3,0.2-0.5,0.6-0.5,1c0,0.4,0.2,0.8,0.5,1c0.2,0.2,0.5,0.5,0.7,0.9
	c-0.8,0.7-1.8,1.5-2.3,1.8c-0.5,0.3-0.7,0.8-0.5,1.4c0.1,0.4,0.3,0.7,0.5,1c-0.1,0.2-0.4,0.5-0.6,0.6c-5.5,5-11.6,8.6-18,12.4
	c-1.6,0.9-3.2,1.9-4.8,2.8c-1.2,0.5-2.3,1.1-3.4,1.6c-9.3,4.5-15.7,5.8-29.2,6.6c-7.1,0.5-16.7-4.1-17.4-10.7l-2.5-14.3
	C241,405.6,240.9,403.8,241.1,402z M306.9,419.1l-4.7,13.9c-1,0.6-3.4,2-5.5,3.3l-5.2-8.4c0,0,0,0,0,0c1.1-0.5,2.3-1.1,3.4-1.6
	c0,0,0,0,0,0c0,0,0.1,0,0.1,0c1.6-1,3.2-1.9,4.8-2.9C302.2,421.9,304.6,420.5,306.9,419.1z M280.6,446l-8.2,4.6
	c-1,0.7-2.3,1.8-2.8,3.3c-0.3,1-0.2,2.2,0.4,3.1c0,0.1,0.1,0.1,0.2,0.2c-0.2,0.3-0.5,0.6-0.7,0.9c-0.6,1.2-0.5,2.6,0.4,3.5
	c0.5,0.5,1.1,0.7,1.8,0.7c0.3,0.4,0.7,0.7,1.1,0.8c1.1,0.3,2.1-0.1,2.6-0.4c0.7-0.3,1.1-0.5,1.5-0.7c0.1,0.2,0.2,0.4,0.4,0.6
	c0.4,0.4,0.9,0.8,1.9,0.8c0.5,0,1.1-0.1,1.9-0.4l16.7-6.7c0,0,0.1,0,0.1-0.1l12.3,16.1c0.1,0.1,0.3,0,0.2-0.1l-7.5-18.9
	c0.1-0.1,0.1-0.1,0.2-0.2c0.6-0.5,1.1-0.9,1.7-1.4c2.8-2.3,5.6-4.7,9-6.1l8.1-5c0.1-0.1,0.6-0.4,1.3-0.9l0.8,4.2
	c0,0.1,2.6,13,2.6,22.7c0,8-2.7,8.4-7.2,9l-1.3,0.2c-4.9,0.7-9.3,1.5-12.8,2.3c-5.7,1.3-8.3,3.8-9.6,5.9c-1.2-2.1-3.9-4.7-9.6-5.9
	c-3.6-0.8-7.9-1.6-12.8-2.3l-1.3-0.2c-4.5-0.6-7.2-0.9-7.2-9c0-9.7,2.5-22.6,2.6-22.7l1.7-8.3c6.5-1.1,11.5-3,16.6-5.3l4.2,8.7
	c-3.8,0.9-9.2,1.8-10.5,2.6C276,443.9,280.6,446,280.6,446z M262.3,444.1L262.3,444.1c0.9-3.2,1.6-5.8,1.9-7
	c0.1-0.2,0.1-0.4,0.1-0.6c0.8-0.1,1.5-0.2,2.3-0.3l-1.5,7.4c-0.1,0.5-2.6,13.3-2.6,23.2c0,10.1,4.5,10.7,9.3,11.4l1.3,0.2
	c4.9,0.7,9.2,1.5,12.7,2.3c8.4,1.9,8.8,6.7,8.8,6.9c0,0.6,0.6,1.1,1.2,1.1c0,0,0,0,0,0c0,0,0.1,0,0.1,0c0,0,0,0,0,0c0,0,0,0,0,0
	c0.6,0,1.2-0.5,1.2-1.1c0-0.2,0.4-5.1,8.8-6.9c3.5-0.8,7.8-1.5,12.7-2.3l1.3-0.2c4.8-0.6,9.3-1.2,9.3-11.4c0-9.9-2.5-22.7-2.6-23.2
	l-1-5.2c0.4-0.3,0.9-0.6,1.4-1l1.7,6.4c0,0.1,0,0.2,0,0.3c0.1,0.6,3.1,15.9,3.1,27.3c0,8.9-2.5,9.2-7.9,9.9
	c-0.5,0.1-1.1,0.1-1.6,0.2c-6,0.9-11.3,1.8-15.6,2.8c-5.9,1.3-9.3,4.5-11.1,7.5c-1.9-3.1-5.2-6.3-11.2-7.6c-4.4-1-9.6-1.9-15.6-2.8
	c-0.5-0.1-1.1-0.1-1.6-0.2c-5.4-0.7-7.9-1-7.9-9.9C259.2,460.1,262.2,444.8,262.3,444.1z M320.7,438.8l-7.8,4.9
	c-3.5,1.4-6.5,3.9-9.4,6.4c-0.6,0.5-1.1,0.9-1.7,1.4c-1.4,1.1-3,2.1-4.7,2.8l-16.7,6.7c-0.7,0.3-1,0.3-1,0.3c0-0.1,0.1-0.2,0.1-0.3
	c0.4-0.4,0.6-1.3,0.3-1.7c-0.4-0.5-1.2-0.6-1.7-0.3c-0.1,0.1-0.3,0.2-0.4,0.3c-0.6,0.3-0.9,0.4-1.3,0.6c-0.4,0.2-0.8,0.4-1.7,0.8
	c-0.2,0.1-0.5,0.2-0.7,0.3c0.1-0.5,0-1-0.4-1.3c-0.4-0.3-1.1-0.3-1.5,0.1c-0.1,0.1-0.2,0.2-0.3,0.3c-0.1-0.1-0.1-0.4,0-0.7
	c0.2-0.4,0.6-0.7,1.2-1.1c0.4-0.3,0.7-0.8,0.6-1.3c-0.1-0.5-0.5-0.9-1-0.9c-0.1,0-0.2-0.1-0.3-0.2c-0.2-0.3-0.3-0.7-0.1-1.1
	c0.3-0.8,1-1.4,2-2.2l7.3-4.6l4.4-2.3c-4.6-0.2-6.2-3.1-2.8-2.9c0.7,0,3.3-0.5,6-1c4.1-0.9,8-2.5,11.5-4.8l3.5-2.2
	c0.1-0.1,0.3-0.2,0.4-0.3l17.1-14.6c5.4-4.3,5.5-10.9,5.5-11.3c-0.2-1.7-0.3-5.5-0.2-6.8l3,0.2l0.2,3.3l-1.8,1.4l2.2,2.7l2.6-2.1
	l2.1,2.6l2.6-2.1l2.1,2.6l2.7-2.2l-1.4-1.7l0.8-3.6l2,0.2c0.2,0.8,0.2,1.4,0.1,2l-1,10c-0.4,4-2.3,7.8-5.3,10.6l-5.4,4.9
	C328.4,433.7,320.7,438.8,320.7,438.8z M331.5,405.5l0.7-3.3l2.2,0.2l0.2,3.4l-1.7,1.4L331.5,405.5z M336.3,406.1l0.7-3.4l2,0.2
	l0.2,3.5l-1.7,1.3L336.3,406.1z M326.5,397.2l0-0.1l-0.6-3.9l18.6,1.5c0.1,1.3,0,2.6-0.2,3.9L326.5,397.2z M325.3,388.6l-0.2-1.2
	c-0.1-0.7-0.7-1.1-1.4-1c-0.7,0.1-1.1,0.7-1,1.4l1.3,9.3c-0.5,0-0.8,0.4-0.9,0.8l-0.2,2.7c0,0.5,0.3,1,0.9,1l0.4,0
	c-0.2,2.1,0.2,7.1,0.2,7.1c0,0.1-0.1,5.8-4.6,9.3l-11,9.4l4-12.2c0,0,0-0.1,0-0.1c1.8-1.4,3.6-2.8,5.4-4.4c0.6-0.5,1.1-1.1,1.4-2
	c0.2-0.6,0-1.1-0.2-1.4c1-0.8,2.2-1.8,2.4-1.9c0.4-0.3,0.5-0.9,0.3-1.4c-0.1-0.2-0.4-0.9-0.9-1.6c0.3-0.4,0.6-0.8,0.7-1.4
	c0.1-0.6-0.1-1.3-0.5-1.8c-0.8-0.9-1-1.3-1.7-1.4c-0.1-0.2,0-0.8-0.7-1.3c-0.3-0.2-0.7-0.2-0.7-0.2l7.4-22.6l8.7,7.7L339,370
	l-13.8-3.3l0,0c-1-0.3-2.1,0.2-2.4,1.2l-8.1,25l-8.8-8c1.6-2.5,2.5-5.4,2.5-8.5c0-2.5-0.6-4.8-1.6-6.9l12.3-13.5
	c3.5,2.4,7.2,4.3,10.7,5.6c0.9,0.3,1.8,0.6,2.6,0.9c3.8,1.3,7.3,2.5,9.9,5.1c3.1,3.2,4.4,8.1,4,14.7l-0.5,4.6
	c-0.1,0.8-0.5,2.2-0.9,3L325.3,388.6z M302.9,364.6c-2.8-2.4-6.4-3.9-10.4-3.9c-3.7,0-7.1,1.3-9.8,3.5l-11.8-10.7
	c3.3-2.6,6.3-5.5,8.8-8.6c0.9,1.2,2.2,2,3.8,2.4l4.4,1.1v5.1h4.4h4.4v-5.1l4.4-1.1c1.9-0.5,3.4-1.6,4.3-3.2c2.4,3,5.3,5.8,8.5,8.4
	L302.9,364.6z M280.1,335.2c0.2,0.3,0.4,0.5,0.6,0.8c3,3.1,6.9,4.7,11.5,4.7h0.1c4.6,0,8.5-1.6,11.5-4.7c0.2-0.2,0.4-0.5,0.7-0.8
	l-0.4,5.5c-0.2,2-1.6,3.7-3.6,4.2l-8.3,2.1l-8.3-2.1c-1.2-0.3-2.2-1.1-2.8-2.1c-0.3-0.4-0.8-0.9-0.7-2.6L280.1,335.2z M305.7,318.7
	c0.2,6.1-1.5,11.4-4.6,14.6c-2.2,2.3-5.2,3.5-8.8,3.5c-3.5,0-6.5-1.2-8.7-3.5c-3.1-3.2-4.8-8.5-4.6-14.6c0-0.5-0.2-1-0.5-1.4
	c-0.4-0.4-0.8-0.6-1.4-0.6l-0.5,0c-0.3-0.5-1-1.9-1.2-3.9c-0.2-1.7,0-2.9,0.2-3.5c0.9-0.2,1.5-0.9,1.6-1.9l0.1-2.2
	c8.6-4.4,21.7-4.4,30.4,0l0,2.2c0,0.9,0.7,1.7,1.6,1.9c0.2,0.6,0.3,1.8,0.2,3.5c-0.2,2-0.9,3.4-1.2,3.9l-0.5,0c-0.5,0-1,0.2-1.4,0.6
	C305.9,317.7,305.7,318.2,305.7,318.7z M313,308.7c-0.3-1.3-0.8-2.2-1.5-2.7l0-2c0-0.7-0.4-1.3-1-1.6c-10-5.7-26.2-5.7-36.1,0
	c-0.6,0.3-1,1-1,1.6l0,2c-2.1,1.5-1.9,5.8-1.8,7.2c0.2,1.9,0.9,4.7,2.3,6.2c-16.9-1.7-30.8-5.9-38-10.9c9.9-6.8,32.1-11.8,56.6-11.8
	c24.5,0,46.7,5,56.6,11.8c-7.3,5-21.2,9.2-38.1,10.9c0.4-0.4,0.7-0.9,1-1.6c0.6-1.3,1.1-3,1.3-4.6
	C313.3,311.5,313.3,309.9,313,308.7z M275.3,323.4c0.3,2.7,1,5.3,2.1,7.5l0.3,4.2c-26.7-2.1-47.4-10.4-47.4-19
	c0-1.8,0.9-3.5,2.4-5.2C240.7,317.1,255.9,321.7,275.3,323.4z M307.3,330.9c1-2.2,1.7-4.8,2.1-7.5c19.4-1.8,34.6-6.3,42.6-12.4
	c1.6,1.7,2.4,3.4,2.4,5.2c0,8.6-20.7,16.8-47.4,19L307.3,330.9z M351.9,306c-10.5-7.9-33-13.2-59.6-13.2c-26.6,0-49.1,5.3-59.6,13.2
	c-1.6-1.7-2.5-3.4-2.5-5.2c0-10.4,29-19.5,62.1-19.5s62.1,9.1,62.1,19.5C354.4,302.5,353.5,304.3,351.9,306z M249,484.6v154.4
	c-1.8-0.2-3.6-0.3-5.5-0.3h-69.9c-15.2,0-27.5-12.3-27.5-27.5V268.8h144.9c-1.7,0-3.2,1.4-3.2,3.2v1.9c-4.2,0.1-8.3,0.3-12.5,0.7
	c-3.9,0.3-7.7,0.8-11.5,1.5c-3.5,0.6-6.9,1.3-10.3,2.1c-3,0.8-6,1.7-8.9,2.8c-2.5,0.9-5,2-7.3,3.3c-1.9,1.1-3.8,2.3-5.5,3.7
	c-1.4,1.2-2.6,2.7-3.5,4.3c-1,1.8-1.5,3.7-1.8,5.7c-0.1,0.8-0.1,1.6-0.1,2.5c0.1,1.7,0.4,3.5,1.2,5.1c0.4,0.7,0.8,1.3,1.3,1.9
	c0.1,0.1,0.9,1.1,0.9,1.1c-2.3,2.4-3.5,5-3.5,7.7c0,11.2,21.2,20.6,51.6,22.9l0.1,1.6c0,0-0.1,0.1-0.1,0.1
	c-5.9,7.8-15.2,14.9-23.8,18.1c-0.8,0.3-1.7,0.6-2.6,0.9c-3.9,1.4-8,2.8-11.1,5.9c-3.7,3.8-5.4,9.6-4.9,17.3l1,9.7
	c0.1,1.2,0.4,2.5,0.9,3.6l-0.3,0c-0.6,0.1-1,0.6-0.9,1.2l0.5,4c0.1,0.5,0.4,0.8,0.9,0.9c-0.2,1.7-0.1,3.5,0.2,5.3l3.4,14.2
	c0.8,7.5,9.8,14.8,17.9,14.9c-2.7,9.9-5.5,20.4-5.7,21C252.3,461.3,248.7,472.6,249,484.6z M268.7,619.6c0,1.2-0.2,2.5-0.6,3.6
	c-0.6,1.8-0.5,3.7,0.2,5.3c0.2,0.4,0.2,0.7,0.1,1.1c-1,3.4-3,10.9-3.3,11.9c-0.3,0.7-0.4,1.5-0.1,2.3c-3.6-1.8-7.3-3.1-11.2-4V512.3
	c3.7,16.3,8.5,34.4,9.8,39.5c0.2,0.7,0.2,1.4,0.1,2.1l-2.8,14.1c-0.3,1.3-0.2,2.7,0.1,4l7.6,32.6c0.1,0.4,0.1,0.7,0.1,1.1V619.6z
	 M285.6,642.7c-0.3,0-1.2,0-1.8,0c-1,0.1-1.2,0-1.7,0.1c-1,0.4-1.2,0.3-1.8,0.3c-0.4,0-1,0-1.8,0c-0.7,0-1.1,0-1.7-0.2
	c-0.6-0.1-1.3-0.3-2.2-0.3c-0.2,0-0.4,0-0.6,0c-0.4,0-0.8,0.1-1.3,0.1c-1.2,0.1-2,0.2-2.7-0.2c-0.1,0-0.1-0.1-0.2-0.1
	c0.8-3.2,2.4-8.8,3.2-11.6c0.4-1.5,0.3-3-0.3-4.4c-0.3-0.6-0.3-1.3-0.1-1.9c0.6-1.7,0.8-3.4,0.8-5.1v-13.8c0-0.7-0.1-1.5-0.3-2.2
	l-7.6-32.7c-0.2-0.7-0.2-1.3,0-2l2.8-14.1c0.3-1.4,0.2-2.9-0.1-4.3c-2.2-8.2-13.2-50.1-14.3-63.4c-0.4-4.6-0.1-9.2,0.5-13.4
	c0.7,10.8,6.7,11.6,12,12.3c0.5,0.1,1,0.1,1.5,0.2c5.8,0.9,11,1.8,15.2,2.7c7.7,1.7,9.4,7.3,9.8,9.9c0,0.3-0.1,0.5-0.1,0.7
	l-6.8,49.8c-0.2,1.2-0.1,2.3,0.2,3.5l3.5,15c0.2,0.8,0.2,1.6-0.1,2.4l-6.1,21.3c-0.2,0.9-0.4,1.8-0.4,2.6l-0.5,25.8
	c0,0.6-0.1,4.9-0.2,6.5c-0.1,1.6,0.1,5.6,1.2,7.7l3.2,6.5l0.1,0.1c0.3,0.4,0.5,0.9,0.5,1.6C286.9,642.5,286.1,642.7,285.6,642.7z
	 M299.7,638c-0.7,1.1-1.1,2.4-1.3,3.8c-0.2,2.3-5.9,2.4-6.1-0.1c-0.1-1.3-0.5-2.5-1.2-3.5l-3.1-6.3c-0.5-0.9-0.8-3.7-0.7-5.3
	c0.1-1.7,0.2-6.1,0.2-6.7l0.5-25.8c0-0.4,0.1-0.9,0.2-1.3l6.1-21.3c0.5-1.6,0.5-3.2,0.1-4.8l-3.5-15c-0.1-0.6-0.2-1.2-0.1-1.7
	l4.5-33.2L300,550c0.1,0.6,0.1,1.2-0.1,1.7l-3.5,15c-0.4,1.6-0.3,3.3,0.1,4.8l6.1,21.3c0.1,0.4,0.2,0.9,0.2,1.4l0.5,25.7
	c0,0.7,0.1,5.1,0.2,6.7c0.1,1.6-0.3,4.4-0.8,5.4L299.7,638z M320.9,642.7c-0.8,0.4-1.6,0.3-2.8,0.2c-0.4,0-0.8-0.1-1.3-0.1
	c-1.3-0.1-2.2,0.1-2.8,0.2c-0.6,0.1-1,0.2-1.7,0.2c-0.4,0-0.7,0-0.9,0c-0.3,0-0.5,0-0.7,0l-0.2,0c-0.6,0-0.8,0-1.8-0.3
	c-0.4-0.2-0.7-0.1-1.6-0.1h-0.2c-0.5,0-1.3,0-1.6,0c-0.5-0.1-1.3-0.2-2-0.4c0,0,0-0.1,0-0.2c0-0.5,0.2-1,0.6-1.6l3.1-6.4
	c1.1-2.2,1.3-6.1,1.3-7.7c-0.1-1.7-0.2-5.9-0.2-6.6l-0.5-25.7c0-0.9-0.1-1.8-0.4-2.7l-6.1-21.3c-0.2-0.8-0.2-1.6-0.1-2.4l3.5-15
	c0.3-1.2,0.3-2.3,0.2-3.5l-6.8-49.7c0-0.1,0-0.3-0.1-0.7c0.4-2.5,2.1-8.1,9.8-9.8c4.2-0.9,9.4-1.9,15.3-2.7c0.5-0.1,1-0.1,1.5-0.2
	c5.3-0.7,11.3-1.5,12-12.4c0.6,4.1,0.9,8.7,0.5,13.3c-1.1,13.3-12.1,55.1-14.3,63.4c-0.4,1.4-0.4,2.9-0.1,4.3l2.8,14.1
	c0.1,0.7,0.1,1.4,0,2l-7.6,32.7c-0.2,0.7-0.3,1.4-0.3,2.2v13.8c0,1.8,0.3,3.5,0.8,5.1c0.2,0.6,0.2,1.3-0.1,1.9
	c-0.6,1.4-0.7,3-0.3,4.4c1,3.2,2.8,10.1,3.2,11.6C321,642.6,320.9,642.6,320.9,642.7z M337.1,639.5c-3.8,0.7-7.6,1.7-11.1,3.3
	c0-0.5-0.1-0.9-0.3-1.4c-0.6-2.1-2.3-8.7-3.3-11.9c-0.1-0.4-0.1-0.7,0.1-1.1c0.7-1.7,0.8-3.6,0.2-5.3c-0.4-1.2-0.6-2.4-0.6-3.6
	v-13.8c0-0.4,0-0.7,0.1-1.1L330,572c0.3-1.3,0.3-2.7,0.1-4l-2.8-14.1c-0.1-0.7-0.1-1.4,0.1-2.1c1.4-5.1,6.1-23.2,9.8-39.6V639.5z
	 M442.7,611.2c0,15.2-12.3,27.5-27.5,27.5h-69.9c-1.1,0-2.3,0.1-3.4,0.2V484.5c0.3-12-3.3-23.3-4.5-26.7c-0.2-0.6-6.4-23.2-6.4-23.2
	s1.9-1.4,2.7-2.1l5.5-5c3.4-3.2,5.6-7.4,6.1-12.1l1-9.9c0.2-0.8,0.1-1.5,0-2.2l0.8,0.1c0.5,0,1-0.3,1-0.9l0.2-2.7c0-0.5-0.3-1-0.9-1
	l-0.7-0.1c0.2-1.3,0.3-2.6,0.2-3.9l0.7,0.1c0.5,0,1-0.3,1-0.9l0.2-2.7c0-0.5-0.3-1-0.9-1l-0.7-0.1c0.4-1.1,0.7-2.3,0.8-3l0.5-4.6
	c0.5-7.4-1.1-12.9-4.7-16.6c-2.9-3-6.9-4.4-10.8-5.7c-0.9-0.3-1.7-0.6-2.6-0.9c-8.6-3.2-18-10.3-24-18.2c0-0.2,0.1-0.3,0.1-0.5
	l0.1-1.8c30.4-2.3,51.6-11.7,51.6-22.9c0-2.7-1.2-5.3-3.5-7.7c1.4-1.5,2.6-3.2,3.1-5.2c0.6-2,0.6-4.2,0.2-6.3
	c-0.1-0.8-0.3-1.5-0.6-2.2c-1.1-3.1-3.1-5.7-5.7-7.7c-2-1.5-4.1-2.8-6.4-3.9c-2.7-1.3-5.5-2.4-8.4-3.3c-3.3-1.1-6.7-2-10.2-2.7
	c-3.9-0.8-7.8-1.5-11.7-2c-4.3-0.5-8.6-0.9-12.9-1.1c-1.9-0.1-3.8-0.2-5.7-0.2V272c0-1.7-1.4-3.2-3.2-3.2h149.1V611.2z"/>
<g>
	<path class="st4" d="M294.1,731.8c-64.4,0-121.2-15.8-154.8-39.8v-20.6c0-5.1,5.5-8.2,9.8-5.6c34.3,20.4,86.5,33.4,145,33.4
		c58.7,0,111.1-13.1,145.3-33.6c4.6-2.7,10.4,0.5,10.4,5.9v19.9C416.3,715.7,359.1,731.8,294.1,731.8z"/>
</g>
<g>
	<path d="M161.7,688.5c0.1-0.8,0-1.4-0.2-2c-0.2-0.5-0.7-1-1.4-1.2c-0.5-0.2-1-0.3-1.4-0.3c-0.4,0-0.7,0.2-1,0.4
		c-0.3,0.2-0.6,0.5-0.8,0.9s-0.4,0.7-0.6,1.1l-0.4,0.9c-0.3,0.6-0.4,1.2-0.5,1.6c-0.1,0.5-0.1,0.9,0,1.2c0.1,0.3,0.3,0.6,0.5,0.9
		c0.3,0.2,0.6,0.5,1,0.6c0.4,0.1,0.7,0.2,0.9,0.2s0.5-0.1,0.7-0.3s0.4-0.4,0.5-0.6c0.1-0.3,0.3-0.5,0.4-0.9l0.2-0.4l-1.2-0.5
		l0.1-0.1l3.6,1.5l-0.1,0.1l-0.7-0.3l-1,2.4l-0.2-0.1c0-0.1,0-0.2-0.1-0.2c-0.1-0.1-0.1-0.1-0.2-0.2c-0.2-0.1-0.4-0.1-0.6-0.1
		c-0.2,0-0.4,0-0.6,0c-0.2,0-0.5,0-0.8-0.1s-0.6-0.1-0.9-0.3c-0.6-0.2-1.1-0.6-1.5-1c-0.4-0.4-0.8-0.9-1-1.4c-0.3-0.5-0.4-1-0.4-1.6
		c0-0.6,0-1.1,0.3-1.7c0.2-0.6,0.6-1.1,1.1-1.4c0.5-0.4,1-0.6,1.5-0.8c0.6-0.2,1.1-0.2,1.7-0.2c0.6,0,1.1,0.2,1.6,0.4
		c0.2,0.1,0.4,0.2,0.6,0.3c0.2,0.1,0.4,0.3,0.5,0.4c0.2,0.1,0.3,0.2,0.4,0.3c0.1,0.1,0.2,0.2,0.3,0.2c0.1,0,0.2,0.1,0.2,0
		s0.1-0.1,0.2-0.1l0.2,0.1l-0.9,2.1L161.7,688.5z"/>
	<path d="M171.4,689.8l-0.7,1.8l-0.2-0.1c0-0.1,0-0.3,0-0.5c0-0.2-0.1-0.5-0.2-0.7c-0.1-0.2-0.3-0.5-0.5-0.7
		c-0.2-0.2-0.5-0.4-0.9-0.6l-1.8-0.7l-1.3,3.2l0.7,0.3c0.3,0.1,0.5,0.2,0.8,0.2s0.4,0,0.6-0.1c0.2-0.1,0.4-0.2,0.5-0.4
		c0.2-0.2,0.3-0.3,0.5-0.6l0.2,0.1l-1.3,3.3l-0.2-0.1c0-0.2,0-0.4,0-0.7c0-0.2,0-0.4-0.1-0.6c-0.1-0.2-0.2-0.4-0.3-0.5
		c-0.1-0.2-0.4-0.3-0.6-0.4l-0.8-0.3l-1.5,3.8l1.9,0.7c0.4,0.1,0.7,0.2,1,0.2c0.3,0,0.6,0,0.9-0.2c0.3-0.1,0.6-0.3,0.8-0.5
		c0.2-0.2,0.5-0.4,0.7-0.7l0.2,0.1l-0.9,2.3l-7.4-2.9l0.1-0.1l1.1,0.4l2.8-7.2l-1.1-0.4l0.1-0.1L171.4,689.8z"/>
	<path d="M175.3,691.2l2.1,6.4l0,0l1.8-4.9l-1.1-0.4l0.1-0.1l2.3,0.8l-0.1,0.1l-1.1-0.4l-2.7,7.4l-0.3-0.1l-2.8-8.7l0,0l-2.4,6.6
		l1.1,0.4l-0.1,0.1l-2.3-0.8l0.1-0.1l1.1,0.4l2.6-7.2l-1.1-0.4l0.1-0.1L175.3,691.2z"/>
	<path d="M183.4,694.2c-0.3-0.1-0.6-0.2-0.8-0.2c-0.2,0-0.5,0-0.7,0.1c-0.2,0.1-0.4,0.2-0.7,0.4c-0.2,0.2-0.4,0.4-0.7,0.8l-0.2-0.1
		l0.6-2l7.4,2.5l-0.6,2l-0.2-0.1c0-0.4,0-0.7-0.1-1c-0.1-0.3-0.2-0.5-0.3-0.7s-0.3-0.4-0.5-0.5c-0.2-0.1-0.5-0.2-0.8-0.3l-0.4-0.1
		l-2.4,7.3l1.1,0.4l0,0.1l-3.9-1.3l0-0.1l1.1,0.4l2.4-7.3L183.4,694.2z"/>
	<path d="M193.2,697.2l0,0.1L192,697l-2.3,7.3l1.1,0.3l0,0.2l-3.9-1.2l0-0.2l1.1,0.3l2.3-7.3l-1.1-0.3l0-0.2L193.2,697.2z"/>
	<path d="M197.8,698.5l0,0.2l-1.1-0.3l-1.4,4.9c-0.1,0.3-0.2,0.7-0.2,1c-0.1,0.3-0.1,0.6,0,0.9s0.2,0.5,0.4,0.8
		c0.2,0.2,0.5,0.4,1,0.5c0.4,0.1,0.8,0.2,1.1,0.2c0.3,0,0.6-0.1,0.8-0.1c0.2-0.1,0.4-0.2,0.6-0.4c0.2-0.2,0.3-0.3,0.4-0.5
		c0.1-0.2,0.2-0.3,0.2-0.5c0.1-0.2,0.1-0.3,0.1-0.4l1.4-5.1l-1.1-0.3l0-0.2l2.4,0.7l0,0.2l-1.1-0.3l-1.4,5.1c0,0.1-0.1,0.3-0.1,0.4
		c-0.1,0.2-0.1,0.4-0.3,0.5c-0.1,0.2-0.3,0.3-0.4,0.5c-0.2,0.2-0.4,0.3-0.6,0.4c-0.3,0.1-0.6,0.1-0.9,0.1c-0.4,0-0.8-0.1-1.3-0.2
		c-0.8-0.2-1.4-0.5-1.8-0.8c-0.4-0.3-0.7-0.6-0.9-0.9s-0.3-0.7-0.3-1c0-0.3,0.1-0.7,0.2-1l1.4-5l-1.1-0.3l0-0.2L197.8,698.5z"/>
	<path d="M206,700.8l0.7,6l0,0l3.5-4.9l3,0.8l0,0.2l-1.1-0.3l-1.9,7.5l1.1,0.3l0,0.2l-4-1l0-0.2l1.1,0.3l1.9-7.5l0,0l-4.9,6.8
		l-0.2,0l-1.1-8.4l0,0l-1.9,7.5l1.1,0.3l0,0.2l-2.4-0.6l0-0.2l1.1,0.3l1.9-7.5l-1.1-0.3l0-0.2L206,700.8z"/>
	<path d="M223.9,704.9l0,0.2l-1.2-0.2l1.3,6.5l3.8-5.5l-1.1-0.2l0-0.2l2.3,0.5l0,0.2l-1.1-0.2l-5.1,7.3l-0.4-0.1l-1.8-8.7l-1-0.2
		l0-0.2L223.9,704.9z"/>
	<path d="M236.4,707.2l-0.3,1.9l-0.2,0c0-0.1-0.1-0.3-0.1-0.5c-0.1-0.2-0.2-0.4-0.3-0.6c-0.1-0.2-0.3-0.4-0.6-0.6
		c-0.3-0.2-0.6-0.3-1-0.4l-2-0.3l-0.6,3.4l0.7,0.1c0.3,0.1,0.6,0.1,0.8,0c0.2,0,0.4-0.1,0.6-0.2c0.2-0.1,0.3-0.3,0.4-0.5
		c0.1-0.2,0.2-0.4,0.3-0.6l0.2,0l-0.6,3.4l-0.2,0c0-0.2-0.1-0.4-0.1-0.7c0-0.2-0.1-0.4-0.2-0.6c-0.1-0.2-0.2-0.3-0.4-0.4
		s-0.4-0.2-0.7-0.3l-0.8-0.1l-0.7,4l2,0.4c0.4,0.1,0.7,0.1,1.1,0c0.3-0.1,0.6-0.2,0.9-0.3c0.3-0.2,0.5-0.4,0.7-0.6
		c0.2-0.2,0.4-0.5,0.5-0.8l0.2,0l-0.4,2.4l-7.9-1.4l0-0.2l1.1,0.2l1.3-7.6l-1.1-0.2l0-0.2L236.4,707.2z"/>
	<path d="M241.8,708l0,0.2l-1.1-0.2l-1.1,7.6l2,0.3c0.3,0,0.6,0,0.8,0c0.3,0,0.6-0.1,0.8-0.3c0.3-0.2,0.5-0.4,0.8-0.6
		c0.2-0.3,0.4-0.6,0.6-1l0.2,0l-0.4,2.5l-7.8-1.2l0-0.2l1.1,0.2l1.1-7.6l-1.1-0.2l0-0.2L241.8,708z"/>
	<path d="M253,709.7l0-0.2l7.3,0.8l-0.2,1.9l-0.2,0c-0.1-0.3-0.2-0.5-0.3-0.8c-0.1-0.2-0.3-0.4-0.4-0.6c-0.2-0.2-0.4-0.3-0.6-0.4
		c-0.2-0.1-0.5-0.2-0.9-0.2l-1.9-0.2l-0.4,3.6l0.7,0.1c0.3,0,0.6,0,0.8,0c0.2-0.1,0.4-0.1,0.6-0.3s0.3-0.3,0.4-0.5
		c0.1-0.2,0.2-0.4,0.3-0.7l0.2,0l-0.4,3.5l-0.2,0c0-0.2-0.1-0.4-0.1-0.6c-0.1-0.2-0.1-0.4-0.3-0.6s-0.3-0.3-0.5-0.4
		s-0.4-0.2-0.7-0.2l-0.8-0.1l-0.4,3.9l1.2,0.1l0,0.2l-4.1-0.4l0-0.2l1.1,0.1l0.8-7.6L253,709.7z"/>
	<path d="M261.6,712.7c0.3-0.5,0.7-0.9,1.2-1.2c0.5-0.3,1-0.6,1.6-0.7c0.6-0.2,1.1-0.2,1.7-0.2c0.6,0,1.1,0.2,1.7,0.4
		c0.5,0.2,1,0.6,1.4,0.9c0.4,0.4,0.7,0.9,1,1.4c0.2,0.5,0.3,1.1,0.3,1.8c0,0.6-0.2,1.1-0.5,1.6c-0.3,0.5-0.7,0.9-1.1,1.2
		c-0.5,0.3-1,0.6-1.5,0.8c-0.6,0.2-1.2,0.2-1.8,0.2c-0.6,0-1.2-0.2-1.7-0.5c-0.5-0.3-1-0.6-1.4-1s-0.7-0.9-0.9-1.4
		c-0.2-0.5-0.3-1.1-0.3-1.7C261.1,713.7,261.3,713.2,261.6,712.7z M263,716.5c0.1,0.5,0.2,0.9,0.4,1.3c0.2,0.3,0.4,0.6,0.8,0.7
		c0.3,0.1,0.7,0.2,1.2,0.3c0.6,0,1.1,0,1.5-0.2s0.6-0.4,0.8-0.8c0.2-0.3,0.3-0.8,0.4-1.3s0.1-1,0.2-1.6c0-0.5,0.1-1,0.1-1.5
		c0-0.5-0.1-0.9-0.2-1.3c-0.1-0.4-0.4-0.7-0.7-0.9c-0.3-0.2-0.8-0.4-1.4-0.4c-0.6,0-1.1,0-1.4,0.2c-0.4,0.2-0.7,0.4-0.9,0.8
		c-0.2,0.3-0.4,0.8-0.5,1.2c-0.1,0.5-0.2,1-0.2,1.6C263,715.3,263,716,263,716.5z"/>
	<path d="M271.4,711.3l0-0.2l1.9,0.1c0.3,0,0.7,0,1,0c0.3,0,0.7,0,1,0c0.3,0,0.7,0.1,1,0.1s0.7,0.2,1,0.4c0.3,0.2,0.5,0.4,0.7,0.6
		c0.2,0.3,0.3,0.6,0.2,0.9c0,0.3-0.1,0.6-0.3,0.8c-0.2,0.2-0.4,0.4-0.6,0.5c-0.2,0.1-0.5,0.2-0.8,0.3c-0.3,0.1-0.6,0.1-0.9,0.1
		l0,0.1c0.4,0.1,0.8,0.2,1.1,0.3c0.3,0.1,0.6,0.2,0.8,0.3c0.2,0.1,0.4,0.3,0.5,0.6c0.1,0.2,0.2,0.6,0.2,1c0,0.5,0,0.9,0,1.1
		c0,0.3,0,0.5,0.1,0.7c0,0.2,0.1,0.3,0.2,0.3c0.1,0.1,0.2,0.1,0.3,0.1c0.2,0,0.3,0,0.4-0.1c0.1-0.1,0.2-0.2,0.3-0.2l0.1,0.1
		c-0.1,0.1-0.2,0.1-0.3,0.2s-0.2,0.1-0.3,0.1c-0.1,0-0.2,0.1-0.4,0.1c-0.2,0-0.3,0-0.6,0c-0.5,0-0.8-0.1-1.1-0.2
		c-0.3-0.1-0.4-0.3-0.5-0.5c-0.1-0.2-0.2-0.4-0.2-0.6c0-0.2,0-0.4,0-0.6c0-0.3,0-0.6,0-0.9c0-0.3-0.1-0.5-0.2-0.8
		c-0.1-0.2-0.2-0.4-0.5-0.6s-0.5-0.2-0.9-0.2l-0.8,0l-0.2,4.1l1.1,0.1l0,0.2l-4.1-0.2l0-0.2l1.1,0.1l0.4-7.7L271.4,711.3z
		 M274.7,714.9c0.4,0,0.7,0,0.9-0.1c0.2-0.1,0.4-0.2,0.5-0.3c0.1-0.1,0.2-0.3,0.2-0.5c0-0.2,0.1-0.4,0.1-0.6c0-0.3,0-0.6,0-0.9
		s-0.1-0.4-0.2-0.6c-0.1-0.2-0.3-0.3-0.5-0.4c-0.2-0.1-0.5-0.1-0.8-0.2c-0.1,0-0.2,0-0.3,0s-0.2,0-0.3,0l-0.2,3.5L274.7,714.9z"/>
	<path d="M282.7,711.8c-0.3,0-0.6,0-0.8,0.1s-0.5,0.1-0.7,0.3c-0.2,0.1-0.4,0.3-0.5,0.6c-0.2,0.2-0.3,0.6-0.4,0.9l-0.2,0l0.1-2.1
		l7.8,0.2l-0.1,2.1l-0.2,0c-0.1-0.4-0.2-0.7-0.4-1c-0.1-0.2-0.3-0.4-0.5-0.6c-0.2-0.1-0.4-0.2-0.6-0.3c-0.2-0.1-0.5-0.1-0.8-0.1
		l-0.4,0l-0.2,7.7l1.1,0l0,0.2l-4.1-0.1l0-0.2l1.1,0l0.2-7.7L282.7,711.8z"/>
	<path d="M292.9,711.8l0,0.2l-1.1,0l-0.1,7.7l1.1,0l0,0.2l-4.1,0l0-0.2l1.1,0l0.1-7.7l-1.1,0l0-0.2L292.9,711.8z"/>
	<path d="M294.2,717.3c0,0.1,0,0.2,0.1,0.4c0,0.1,0.1,0.3,0.2,0.5c0.1,0.2,0.2,0.3,0.3,0.5c0.1,0.2,0.3,0.3,0.4,0.5
		c0.2,0.2,0.4,0.3,0.6,0.4c0.2,0.1,0.4,0.2,0.5,0.2c0.2,0,0.3,0.1,0.5,0.1c0.1,0,0.3,0,0.4,0c0.4,0,0.8-0.1,1.1-0.2
		c0.3-0.1,0.5-0.3,0.7-0.5c0.2-0.2,0.3-0.4,0.3-0.6c0.1-0.2,0.1-0.4,0.1-0.5c0-0.3-0.1-0.5-0.2-0.7c-0.1-0.2-0.3-0.3-0.6-0.4
		c-0.2-0.1-0.5-0.2-0.8-0.3c-0.3-0.1-0.6-0.2-1-0.2c-0.3-0.1-0.6-0.2-1-0.3c-0.3-0.1-0.6-0.3-0.8-0.4c-0.2-0.2-0.4-0.4-0.6-0.7
		c-0.1-0.3-0.2-0.6-0.2-1c0-0.3,0.1-0.6,0.2-0.9c0.1-0.3,0.4-0.5,0.6-0.7c0.3-0.2,0.6-0.4,0.9-0.5c0.4-0.1,0.8-0.2,1.2-0.2
		c0.3,0,0.5,0,0.7,0.1c0.2,0,0.4,0.1,0.6,0.1c0.2,0,0.3,0.1,0.4,0.1c0.1,0,0.2,0.1,0.3,0.1c0.1,0,0.2,0,0.2-0.1c0,0,0.1-0.1,0.1-0.2
		l0.2,0l0,2.1l-0.2,0c-0.1-0.3-0.2-0.5-0.3-0.8s-0.3-0.5-0.4-0.7c-0.2-0.2-0.4-0.4-0.7-0.5s-0.6-0.2-1-0.2c-0.3,0-0.6,0-0.9,0.1
		s-0.5,0.2-0.6,0.3s-0.3,0.3-0.4,0.5c-0.1,0.2-0.1,0.3-0.1,0.5c0,0.3,0.1,0.5,0.2,0.6c0.2,0.2,0.4,0.3,0.6,0.4
		c0.3,0.1,0.5,0.2,0.9,0.3c0.3,0.1,0.7,0.2,1,0.3c0.3,0.1,0.7,0.2,1,0.3c0.3,0.1,0.6,0.3,0.9,0.4c0.3,0.2,0.5,0.4,0.6,0.6
		c0.2,0.3,0.2,0.6,0.2,0.9c0,0.4-0.1,0.7-0.2,1c-0.2,0.3-0.4,0.6-0.7,0.9c-0.3,0.2-0.7,0.5-1.1,0.6c-0.4,0.2-0.9,0.2-1.4,0.2
		c-0.3,0-0.5,0-0.8-0.1c-0.3,0-0.5-0.1-0.7-0.1c-0.2,0-0.4-0.1-0.6-0.1s-0.3-0.1-0.4-0.1c-0.1,0-0.2,0-0.2,0.1c0,0-0.1,0.1-0.1,0.2
		l-0.2,0l0-2.5L294.2,717.3z"/>
	<path d="M302.2,717.2c0,0.1,0.1,0.2,0.1,0.4c0,0.1,0.1,0.3,0.2,0.5c0.1,0.2,0.2,0.3,0.3,0.5c0.1,0.2,0.3,0.3,0.5,0.5
		c0.2,0.2,0.4,0.3,0.6,0.4s0.4,0.1,0.5,0.2c0.2,0,0.3,0.1,0.5,0.1s0.3,0,0.4,0c0.4,0,0.8-0.1,1.1-0.2c0.3-0.1,0.5-0.3,0.7-0.5
		c0.2-0.2,0.3-0.4,0.3-0.6c0.1-0.2,0.1-0.4,0.1-0.5c0-0.3-0.1-0.5-0.2-0.7c-0.2-0.2-0.3-0.3-0.6-0.4c-0.2-0.1-0.5-0.2-0.8-0.3
		c-0.3-0.1-0.6-0.1-1-0.2c-0.3-0.1-0.6-0.2-1-0.3c-0.3-0.1-0.6-0.2-0.8-0.4c-0.2-0.2-0.4-0.4-0.6-0.7c-0.2-0.3-0.2-0.6-0.3-1
		c0-0.3,0.1-0.6,0.2-0.9c0.1-0.3,0.3-0.5,0.6-0.8c0.3-0.2,0.6-0.4,0.9-0.5c0.4-0.1,0.8-0.2,1.2-0.2c0.3,0,0.5,0,0.7,0
		c0.2,0,0.4,0.1,0.6,0.1c0.2,0,0.3,0.1,0.4,0.1s0.2,0.1,0.3,0.1c0.1,0,0.2,0,0.2-0.1s0.1-0.1,0.1-0.2l0.2,0l0.1,2.1l-0.2,0
		c-0.1-0.3-0.2-0.5-0.3-0.8c-0.1-0.3-0.3-0.5-0.5-0.7c-0.2-0.2-0.4-0.4-0.7-0.5c-0.3-0.1-0.6-0.2-1-0.2c-0.3,0-0.6,0.1-0.9,0.2
		c-0.3,0.1-0.5,0.2-0.6,0.3c-0.2,0.1-0.3,0.3-0.4,0.5c-0.1,0.2-0.1,0.3-0.1,0.5c0,0.3,0.1,0.5,0.3,0.6c0.2,0.2,0.4,0.3,0.6,0.4
		c0.3,0.1,0.5,0.2,0.9,0.3c0.3,0.1,0.7,0.2,1,0.2c0.3,0.1,0.7,0.2,1,0.3c0.3,0.1,0.6,0.2,0.9,0.4c0.3,0.2,0.5,0.4,0.6,0.6
		c0.2,0.3,0.2,0.6,0.3,0.9c0,0.4-0.1,0.7-0.2,1.1c-0.2,0.3-0.4,0.6-0.7,0.9s-0.7,0.5-1.1,0.6c-0.4,0.2-0.9,0.2-1.4,0.3
		c-0.3,0-0.5,0-0.8,0c-0.3,0-0.5-0.1-0.7-0.1c-0.2,0-0.4-0.1-0.6-0.1c-0.2,0-0.3-0.1-0.4-0.1c-0.1,0-0.2,0-0.2,0.1
		c0,0-0.1,0.1-0.1,0.2l-0.2,0l-0.1-2.5L302.2,717.2z"/>
	<path d="M313.6,711.2l0,0.2l-1.1,0.1l0.4,7.7l1.1-0.1l0,0.2l-4.1,0.2l0-0.2l1.1-0.1l-0.4-7.7l-1.1,0.1l0-0.2L313.6,711.2z"/>
	<path d="M317.5,711l2.6,5.4l0,0l1.8-5.7l3.1-0.2l0,0.2l-1.1,0.1l0.6,7.7l1.1-0.1l0,0.2l-4.1,0.3l0-0.2l1.1-0.1l-0.6-7.7l0,0l-2.5,8
		l-0.2,0l-3.6-7.6l0,0l0.6,7.7l1.1-0.1l0,0.2l-2.5,0.2l0-0.2l1.1-0.1l-0.6-7.7l-1.1,0.1l0-0.2L317.5,711z"/>
	<path d="M326.6,718.2l2.9-8.5l0.3,0l4.7,7.7l1.1-0.1l0,0.2l-4.2,0.4l0-0.2l1.2-0.1l-1.7-2.8l-3,0.3l-1.1,3.1l1.1-0.1l0,0.2
		l-2.3,0.2l0-0.2L326.6,718.2z M327.9,714.8l2.9-0.3l-1.8-2.9L327.9,714.8z"/>
	<path d="M334.7,709.6l0-0.2l1.9-0.2c0.3,0,0.7-0.1,1-0.1s0.7-0.1,1-0.1c0.3,0,0.7-0.1,1,0c0.4,0,0.7,0.1,1,0.2
		c0.3,0.1,0.6,0.3,0.8,0.5c0.2,0.2,0.4,0.5,0.4,0.9c0,0.3,0,0.6-0.1,0.8c-0.1,0.2-0.3,0.4-0.5,0.6s-0.5,0.3-0.7,0.4
		c-0.3,0.1-0.6,0.2-0.8,0.2l0,0.1c0.4,0,0.8,0,1.1,0.1c0.3,0,0.6,0.1,0.9,0.2c0.2,0.1,0.5,0.3,0.6,0.5c0.2,0.2,0.3,0.5,0.4,0.9
		c0.1,0.5,0.2,0.8,0.2,1.1s0.1,0.5,0.2,0.6s0.1,0.2,0.2,0.3c0.1,0,0.2,0.1,0.4,0c0.2,0,0.3-0.1,0.4-0.2c0.1-0.1,0.2-0.2,0.3-0.3
		l0.1,0.1c-0.1,0.1-0.1,0.2-0.2,0.2c-0.1,0.1-0.2,0.1-0.3,0.2s-0.2,0.1-0.4,0.2c-0.1,0-0.3,0.1-0.6,0.1c-0.5,0.1-0.8,0-1.1-0.1
		c-0.3-0.1-0.5-0.2-0.6-0.4c-0.1-0.2-0.3-0.4-0.3-0.6s-0.1-0.4-0.1-0.6c-0.1-0.3-0.1-0.6-0.2-0.9c-0.1-0.3-0.2-0.5-0.3-0.7
		c-0.1-0.2-0.3-0.4-0.6-0.5c-0.2-0.1-0.5-0.1-0.9-0.1l-0.8,0.1l0.5,4l1.1-0.1l0,0.2l-4.1,0.5l0-0.2l1.1-0.1l-1-7.6L334.7,709.6z
		 M338.6,712.6c0.4,0,0.7-0.1,0.9-0.2c0.2-0.1,0.3-0.3,0.4-0.4s0.1-0.3,0.1-0.5c0-0.2,0-0.4,0-0.6c0-0.3-0.1-0.6-0.2-0.8
		s-0.2-0.4-0.3-0.5c-0.1-0.1-0.3-0.2-0.5-0.3c-0.2,0-0.5-0.1-0.8,0c-0.1,0-0.2,0-0.3,0s-0.2,0-0.3,0.1l0.4,3.4L338.6,712.6z"/>
	<path d="M347.4,707.7l0,0.2l-1.1,0.2l0.8,5c0.1,0.3,0.1,0.7,0.2,1c0.1,0.3,0.2,0.6,0.4,0.8c0.2,0.2,0.4,0.4,0.7,0.5
		c0.3,0.1,0.7,0.1,1.1,0.1c0.4-0.1,0.8-0.2,1.1-0.3s0.5-0.3,0.7-0.5c0.2-0.2,0.3-0.4,0.4-0.6c0.1-0.2,0.1-0.4,0.1-0.6
		c0-0.2,0-0.4,0-0.5c0-0.2,0-0.3-0.1-0.4l-0.8-5.2l-1.1,0.2l0-0.2l2.5-0.4l0,0.2l-1.1,0.2l0.8,5.2c0,0.1,0,0.3,0.1,0.5
		c0,0.2,0,0.4,0,0.6c0,0.2-0.1,0.4-0.2,0.6c-0.1,0.2-0.2,0.4-0.4,0.6c-0.2,0.2-0.5,0.4-0.8,0.5s-0.7,0.3-1.2,0.3
		c-0.8,0.1-1.5,0.1-2,0.1s-0.9-0.2-1.2-0.5c-0.3-0.2-0.5-0.5-0.6-0.8c-0.1-0.3-0.2-0.6-0.3-1l-0.8-5.2l-1.1,0.2l0-0.2L347.4,707.7z"
		/>
	<path d="M355.9,706.4l3.1,5.1l0,0l1.2-5.9l3.1-0.6l0,0.2l-1.1,0.2l1.4,7.6l1.1-0.2l0,0.2l-4,0.7l0-0.2l1.1-0.2l-1.4-7.6l0,0
		l-1.6,8.3l-0.2,0l-4.4-7.2l0,0l1.4,7.6l1.1-0.2l0,0.2l-2.5,0.4l0-0.2l1.1-0.2l-1.4-7.6l-1.1,0.2l0-0.2L355.9,706.4z"/>
	<path d="M374.5,702.5l0,0.2l-1.1,0.3l1.7,7.5l1.1-0.3l0,0.2l-4,0.9l0-0.2l1.1-0.3l-1.7-7.5l-1.1,0.3l0-0.2L374.5,702.5z"/>
	<path d="M377.8,701.9c-0.3,0.1-0.6,0.2-0.8,0.3c-0.2,0.1-0.4,0.3-0.6,0.4c-0.2,0.2-0.3,0.4-0.4,0.7c-0.1,0.3-0.1,0.6-0.2,1l-0.2,0
		l-0.5-2l7.6-1.9l0.5,2l-0.2,0c-0.2-0.3-0.4-0.6-0.6-0.8c-0.2-0.2-0.4-0.4-0.6-0.4c-0.2-0.1-0.5-0.1-0.7-0.1c-0.2,0-0.5,0-0.8,0.1
		l-0.4,0.1l1.8,7.5l1.1-0.3l0,0.2l-4,1l0-0.2l1.1-0.3l-1.8-7.5L377.8,701.9z"/>
	<path d="M385.9,707.8l1.4-8.8l0.3-0.1l5.9,6.8l1-0.3l0,0.2l-4,1.1l0-0.2l1.1-0.3l-2.2-2.5l-2.9,0.8l-0.5,3.3l1.1-0.3l0,0.2
		l-2.3,0.6l0-0.2L385.9,707.8z M386.7,704.3l2.8-0.8l-2.2-2.6L386.7,704.3z"/>
	<path d="M396.5,696.7l0,0.2l-1.1,0.3l2.2,7.4l2-0.6c0.3-0.1,0.5-0.2,0.8-0.4c0.2-0.2,0.5-0.4,0.6-0.6c0.2-0.3,0.3-0.6,0.4-0.9
		s0.1-0.7,0.1-1.2l0.2,0l0.7,2.4l-7.6,2.3l0-0.2l1.1-0.3l-2.2-7.4l-1.1,0.3l0-0.2L396.5,696.7z"/>
	<path d="M404.9,694.1l0,0.2l-1.1,0.4l2.4,7.3l1.1-0.4l0,0.2l-3.9,1.3l0-0.1l1.1-0.4l-2.4-7.3l-1.1,0.4l0-0.2L404.9,694.1z"/>
	<path d="M408.4,701.2l0.9-8.9l0.3-0.1l6.4,6.4l1-0.3l0.1,0.1l-4,1.4l-0.1-0.1l1.1-0.4l-2.4-2.4l-2.8,1l-0.3,3.3l1.1-0.4l0.1,0.1
		l-2.2,0.8l-0.1-0.1L408.4,701.2z M408.9,697.6l2.7-0.9l-2.4-2.4L408.9,697.6z"/>
	<path d="M421.3,688.2l0.7,1.8l-0.2,0.1c-0.1-0.1-0.2-0.2-0.4-0.4c-0.2-0.2-0.4-0.3-0.6-0.4c-0.2-0.1-0.5-0.2-0.8-0.2
		c-0.3,0-0.7,0-1,0.2l-1.9,0.7l1.2,3.3l0.7-0.2c0.3-0.1,0.5-0.2,0.7-0.4c0.2-0.1,0.3-0.3,0.4-0.5c0.1-0.2,0.1-0.4,0.1-0.6
		c0-0.2,0-0.5,0-0.7l0.2-0.1l1.2,3.3l-0.2,0.1c-0.1-0.2-0.3-0.4-0.4-0.5c-0.1-0.2-0.3-0.3-0.5-0.4s-0.4-0.2-0.6-0.2s-0.5,0-0.7,0.1
		l-0.8,0.3l1.4,3.8l1.9-0.7c0.4-0.1,0.7-0.3,0.9-0.5c0.2-0.2,0.4-0.5,0.6-0.7c0.1-0.3,0.2-0.6,0.3-0.9s0.1-0.6,0-1l0.2-0.1l0.9,2.3
		l-7.5,2.8l-0.1-0.1l1.1-0.4l-2.7-7.2l-1.1,0.4l-0.1-0.1L421.3,688.2z"/>
</g>
</svg>
