<svg role="graphics-document" title="ingenium-main-logo" desc="" alt="" version="1.1" id="Layer_1" xmlns="http://www.w3.org/2000/svg" xmlns:xlink="http://www.w3.org/1999/xlink" x="0px" y="0px" viewBox="0 0 270.5 70" style="max-height: 116px;" xml:space="preserve" preserveAspectRatio="xMinYMid meet">
<style type="text/css">
	.st0{fill:#E5007D;}
	.st1{fill:#009878;}
	.st2{fill:#AFCA0A;}
	.st3{fill:#009EE3;}
	.st4{fill:#293133;}
</style>
<g>
	<path class="st0" d="M39.6,41.4L57.2,59c0.9,0.9,0.9,2.3,0,3.2c-0.9,0.9-2.3,0.9-3.2,0L39.6,47.8L25.3,62.1c-0.9,0.9-2.3,0.9-3.2,0
		c-0.9-0.9-0.9-2.3,0-3.2L39.6,41.4z"></path>
	<path class="st1" d="M66.8,49.4L52.4,35l14.3-14.3c0.9-0.9,0.9-2.3,0-3.2c-0.9-0.9-2.3-0.9-3.2,0L46,35l17.6,17.6
		c0.9,0.9,2.3,0.9,3.2,0C67.7,51.7,67.7,50.3,66.8,49.4 M74,12.5c0-1.3-1-2.3-2.3-2.3c-1.3,0-2.3,1-2.3,2.3s1,2.3,2.3,2.3
		C73,14.8,74,13.8,74,12.5"></path>
	<path class="st2" d="M9.8,57.4c0-1.3-1-2.3-2.3-2.3c-1.3,0-2.3,1-2.3,2.3c0,1.3,1,2.3,2.3,2.3C8.8,59.7,9.8,58.7,9.8,57.4 M33.3,35
		L15.7,17.4c-0.9-0.9-2.3-0.9-3.2,0c-0.9,0.9-0.9,2.3,0,3.2L26.8,35L12.5,49.3c-0.9,0.9-0.9,2.3,0,3.2c0.9,0.9,2.3,0.9,3.2,0
		L33.3,35z"></path>
	<path class="st3" d="M39.6,28.6L22,11c-0.9-0.9-0.9-2.3,0-3.2c0.9-0.9,2.3-0.9,3.2,0l14.4,14.4L54,7.9c0.9-0.9,2.3-0.9,3.2,0
		c0.9,0.9,0.9,2.3,0,3.2L39.6,28.6z"></path>
	<g>
		<path class="st4" d="M265.2,39.4l0-21.5h-3.3l-8.4,14.3L245,17.9h-3.3v21.5h3.8V25.3l7.1,11.6h1.8l7.1-11.8l0,14.3H265.2z
			 M224.4,39.7c3,0,5.3-0.8,6.9-2.5c1.6-1.7,2.5-4.1,2.5-7.2V17.9h-3.9v12c0,4.2-1.8,6.3-5.4,6.3c-3.6,0-5.5-2.1-5.5-6.3v-12h-4V30
			c0,3.1,0.8,5.5,2.5,7.2C219.1,38.9,221.4,39.7,224.4,39.7 M203,39.4h4V17.9h-4V39.4z M191,17.9v14.6l-11.9-14.6h-3.3v21.5h4V24.8
			l11.9,14.6h3.3V17.9H191z M157,36v-5.9h10.4v-3.3H157v-5.6h11.7v-3.3H153v21.5h16.1V36H157z M141.6,35.1c-1.3,0.7-2.7,1.1-4.4,1.1
			c-1.5,0-2.8-0.3-4-1c-1.2-0.7-2.1-1.6-2.8-2.7c-0.7-1.1-1-2.4-1-3.9c0-1.5,0.3-2.8,1-3.9c0.7-1.1,1.6-2,2.8-2.7c1.2-0.6,2.5-1,4-1
			c2.3,0,4.3,0.8,5.9,2.5l2.5-2.5c-1-1.1-2.2-2-3.7-2.6c-1.5-0.6-3.1-0.9-4.9-0.9c-2.2,0-4.2,0.5-6,1.4c-1.8,1-3.2,2.3-4.2,3.9
			c-1,1.7-1.5,3.6-1.5,5.7c0,2.1,0.5,4,1.5,5.7c1,1.7,2.4,3,4.1,3.9c1.8,1,3.7,1.4,5.9,1.4c1.6,0,3.1-0.2,4.5-0.7
			c1.5-0.5,2.8-1.1,3.9-2v-8.6h-3.8V35.1z M114.9,17.9v14.6L103,17.9h-3.3v21.5h4V24.8l11.9,14.6h3.3V17.9H114.9z M87.6,39.4h4V17.9
			h-4V39.4z"></path>
		<g>
			<path class="st4" d="M95.9,55.5v1.7h-8.3v-11h8.1v1.7h-6v2.9H95v1.7h-5.3v3H95.9z"></path>
			<path class="st4" d="M106.9,48.8v8.4H105v-1.1c-0.6,0.8-1.6,1.2-2.7,1.2c-2.2,0-3.6-1.2-3.6-3.7v-4.8h2v4.5c0,1.5,0.7,2.3,2,2.3
				c1.4,0,2.3-0.9,2.3-2.5v-4.3H106.9z"></path>
			<path class="st4" d="M115.1,48.7v1.9c-0.2,0-0.3,0-0.5,0c-1.5,0-2.4,0.9-2.4,2.6v4.1h-2v-8.4h1.9V50
				C112.7,49.1,113.7,48.7,115.1,48.7z"></path>
			<path class="st4" d="M116.8,53c0-2.5,1.9-4.3,4.5-4.3c2.6,0,4.5,1.8,4.5,4.3c0,2.5-1.9,4.3-4.5,4.3
				C118.7,57.3,116.8,55.5,116.8,53z M123.8,53c0-1.6-1.1-2.6-2.5-2.6c-1.4,0-2.5,1-2.5,2.6s1.1,2.6,2.5,2.6
				C122.7,55.6,123.8,54.6,123.8,53z"></path>
			<path class="st4" d="M137.4,53c0,2.6-1.8,4.3-4.3,4.3c-1.1,0-2-0.4-2.7-1.1v4.1h-2V48.8h1.9v1.1c0.7-0.8,1.6-1.2,2.8-1.2
				C135.6,48.7,137.4,50.4,137.4,53z M135.4,53c0-1.6-1.1-2.6-2.5-2.6s-2.5,1-2.5,2.6s1.1,2.6,2.5,2.6S135.4,54.6,135.4,53z"></path>
			<path class="st4" d="M148,53.6h-6.6c0.2,1.2,1.3,2,2.7,2c0.9,0,1.7-0.3,2.3-0.9l1.1,1.2c-0.8,0.9-1.9,1.4-3.4,1.4
				c-2.8,0-4.7-1.8-4.7-4.3c0-2.5,1.8-4.3,4.4-4.3c2.5,0,4.3,1.7,4.3,4.4C148,53.2,148,53.5,148,53.6z M141.3,52.3h4.8
				c-0.2-1.2-1.1-2.1-2.4-2.1C142.5,50.3,141.5,51.1,141.3,52.3z"></path>
			<path class="st4" d="M157.5,52.3v4.9h-1.9v-1c-0.5,0.7-1.4,1.1-2.7,1.1c-1.9,0-3.1-1.1-3.1-2.5c0-1.4,0.9-2.5,3.5-2.5h2.2v-0.1
				c0-1.2-0.7-1.8-2.1-1.8c-0.9,0-1.9,0.3-2.6,0.8l-0.8-1.4c0.9-0.7,2.2-1,3.6-1C156.1,48.7,157.5,49.9,157.5,52.3z M155.5,54.6v-1
				h-2c-1.3,0-1.7,0.5-1.7,1.1c0,0.7,0.6,1.2,1.6,1.2C154.4,55.9,155.2,55.5,155.5,54.6z"></path>
			<path class="st4" d="M169.1,52.4v4.8h-2v-4.6c0-1.5-0.7-2.2-2-2.2c-1.4,0-2.4,0.9-2.4,2.5v4.3h-2v-8.4h1.9v1.1
				c0.6-0.8,1.7-1.2,2.9-1.2C167.6,48.7,169.1,49.9,169.1,52.4z"></path>
			<path class="st4" d="M177.7,52.4v-6.2h2.1v6.2c0,2.3,1,3.3,2.8,3.3c1.8,0,2.8-1,2.8-3.3v-6.2h2v6.2c0,3.2-1.8,5-4.8,5
				C179.5,57.4,177.7,55.6,177.7,52.4z"></path>
			<path class="st4" d="M199.1,52.4v4.8h-2v-4.6c0-1.5-0.7-2.2-2-2.2c-1.4,0-2.4,0.9-2.4,2.5v4.3h-2v-8.4h1.9v1.1
				c0.6-0.8,1.7-1.2,2.9-1.2C197.6,48.7,199.1,49.9,199.1,52.4z"></path>
			<path class="st4" d="M202.2,46.2c0-0.7,0.5-1.2,1.3-1.2c0.7,0,1.3,0.5,1.3,1.1c0,0.7-0.5,1.2-1.3,1.2
				C202.7,47.4,202.2,46.9,202.2,46.2z M202.4,48.8h2v8.4h-2V48.8z"></path>
			<path class="st4" d="M215.7,48.8l-3.6,8.4h-2l-3.6-8.4h2.1l2.6,6.3l2.7-6.3H215.7z"></path>
			<path class="st4" d="M225.3,53.6h-6.6c0.2,1.2,1.3,2,2.7,2c0.9,0,1.7-0.3,2.3-0.9l1.1,1.2c-0.8,0.9-1.9,1.4-3.4,1.4
				c-2.8,0-4.7-1.8-4.7-4.3c0-2.5,1.8-4.3,4.4-4.3c2.5,0,4.3,1.7,4.3,4.4C225.4,53.2,225.4,53.5,225.3,53.6z M218.7,52.3h4.8
				c-0.2-1.2-1.1-2.1-2.4-2.1C219.8,50.3,218.9,51.1,218.7,52.3z"></path>
			<path class="st4" d="M232.9,48.7v1.9c-0.2,0-0.3,0-0.5,0c-1.5,0-2.4,0.9-2.4,2.6v4.1h-2v-8.4h1.9V50
				C230.5,49.1,231.5,48.7,232.9,48.7z"></path>
			<path class="st4" d="M234.5,56.4l0.8-1.5c0.7,0.5,1.9,0.8,2.9,0.8c1.2,0,1.8-0.3,1.8-0.9c0-1.6-5.2-0.1-5.2-3.5
				c0-1.6,1.4-2.6,3.7-2.6c1.1,0,2.4,0.3,3.2,0.7l-0.8,1.5c-0.8-0.5-1.6-0.6-2.4-0.6c-1.2,0-1.8,0.4-1.8,0.9c0,1.7,5.2,0.2,5.2,3.5
				c0,1.6-1.5,2.6-3.8,2.6C236.6,57.3,235.2,56.9,234.5,56.4z"></path>
			<path class="st4" d="M244.1,46.2c0-0.7,0.5-1.2,1.3-1.2c0.7,0,1.3,0.5,1.3,1.1c0,0.7-0.5,1.2-1.3,1.2
				C244.6,47.4,244.1,46.9,244.1,46.2z M244.3,48.8h2v8.4h-2V48.8z"></path>
			<path class="st4" d="M254.8,56.8c-0.5,0.4-1.2,0.6-1.9,0.6c-1.8,0-2.9-1-2.9-2.8v-4.1h-1.4v-1.6h1.4v-1.9h2v1.9h2.3v1.6h-2.3v4
				c0,0.8,0.4,1.3,1.2,1.3c0.4,0,0.8-0.1,1.1-0.3L254.8,56.8z"></path>
			<path class="st4" d="M264.9,48.8l-3.9,9.1c-0.8,1.9-1.8,2.5-3.3,2.5c-0.8,0-1.7-0.3-2.3-0.8l0.8-1.5c0.4,0.4,0.9,0.6,1.5,0.6
				c0.7,0,1.1-0.3,1.5-1.2l0.1-0.3l-3.7-8.5h2.1l2.7,6.2l2.7-6.2H264.9z"></path>
		</g>
	</g>
</g>
</svg>
