<?xml version="1.0" encoding="UTF-8"?>
<svg id="Livello_1" data-name="Livello 1" xmlns="http://www.w3.org/2000/svg" viewBox="0 0 372.26 105.96">
  <defs>
    <style>
      .cls-1 {
        fill: #00a2e1;
      }

      .cls-2 {
        fill: #d90725;
      }

      .cls-3 {
        fill: #f0af00;
      }

      .cls-4 {
        fill: #003e7d;
      }
    </style>
  </defs>
  <path class="cls-1" d="M85.83,62.05c-6.98,10.53-26.08,14.01-41.33,14.97v12.5c3.38-.77,6.6-1.61,9.58-2.5,30.8-9.26,31.88-22.47,31.75-24.97"/>
  <path class="cls-1" d="M83.25,61.28h-38.76v13.34c24.42-1.57,34.65-7.64,38.76-13.34"/>
  <path class="cls-1" d="M85.83,69.88c-.57,1.01-1.28,2.07-2.17,3.18-5.37,6.63-15.09,12.1-28.89,16.25-3.19.96-6.65,1.85-10.27,2.67v13.98c40.38-12.81,41.33-31.5,41.33-35.39v-.69Z"/>
  <path class="cls-1" d="M0,61.28v9.29c-.08,3.96.95,22.58,41.34,35.39v-44.68H0ZM32.05,90l-7.32-3.85-7.31,3.85,1.4-8.2-6.24-7h8.54s3.61-7.32,3.61-7.32l3.61,7.31h8.33l-2.07,2.4h-3.16,0s-4.59,0-4.59,0l-2.12-4.29-2.11,4.28h-4.7s3.46,3.88,3.46,3.88l-.78,4.55,4.13-2.17,4.13,2.17-.78-4.54,1.29-1.49h3.17l-1.89,2.2,1.4,8.21Z"/>
  <path class="cls-2" d="M85.86.04v58.08h-41.36V9.42L85.86.04ZM76.87,37.69h-23.33v2.4h23.33v-2.4ZM76.87,46.45h-23.33v2.4h23.33v-2.4ZM76.87,28.92h-23.33v2.4h23.33v-2.4ZM76.87,20.16h-23.33v2.4h23.33v-2.4Z"/>
  <polygon class="cls-3" points="41.34 0 11.58 13.85 41.34 7.1 41.34 0"/>
  <path class="cls-3" d="M41.34,10.14v47.98H0V19.52l41.34-9.38ZM25.97,45.8l-5.23-3.74-5.19,3.72-6.54-3.93v9.34h2.37v-5.33l4.25,2.55,5.08-3.65,5.17,3.7,4.21-2.62v5.34h2.38v-9.46l-6.5,4.06ZM11.38,26.53l4.25,2.56,5.08-3.65,5.17,3.69,4.21-2.62v4.45l2.38-1.48v-7.08l-6.5,4.06-5.23-3.74-5.19,3.72-6.54-3.93v7.07l2.37,1.43v-4.49ZM11.38,36.26l4.25,2.55,5.08-3.65,5.17,3.7,4.21-2.62v4.45l2.38-1.48v-7.08l-6.5,4.06-5.23-3.74-5.19,3.72-6.54-3.93v7.07l2.37,1.43v-4.48Z"/>
  <polygon class="cls-4" points="142.88 25.21 142.66 25.21 130.19 46.99 117.79 24.72 117.58 24.72 117.58 58.11 107.43 58.11 107.43 7.59 118.86 7.59 130.19 27.22 130.33 27.22 141.53 7.59 153.02 7.59 153.02 58.11 142.88 58.11 142.88 25.21"/>
  <polygon class="cls-4" points="183.51 17.17 183.51 58.11 172.73 58.11 172.73 17.17 159.31 17.17 159.31 7.59 196.92 7.59 196.92 17.17 183.51 17.17"/>
  <path class="cls-4" d="M223.05,58.84c10.48,0,19-6.8,19-18.14V7.59h-10.37v33.31c0,4.54-4.09,8.24-8.64,8.24h-.81c-4.54,0-8.63-3.69-8.63-8.24V7.59h-10.37v33.11c0,11.34,8.53,18.14,19,18.14h.81Z"/>
  <path class="cls-4" d="M111.81,81.23c-.75,0-1.42-.12-2.02-.35-.6-.23-1.12-.6-1.55-1.12-.43-.52-.76-1.18-.99-1.99-.24-.81-.36-1.8-.36-2.96s.12-2.15.36-2.96c.24-.81.57-1.47.99-1.99.43-.52.94-.89,1.55-1.12.6-.23,1.28-.35,2.02-.35s1.42.11,2.03.35c.6.23,1.12.6,1.55,1.12.43.52.76,1.18.99,1.99.24.81.35,1.8.35,2.96s-.12,2.15-.35,2.96c-.24.81-.57,1.47-.99,1.99-.43.51-.94.89-1.55,1.12-.6.23-1.28.35-2.03.35M111.81,79.01c.71,0,1.26-.21,1.64-.64.39-.43.58-1.07.58-1.93v-3.25c0-.86-.19-1.5-.58-1.93-.38-.43-.93-.64-1.64-.64s-1.26.21-1.64.64c-.38.43-.58,1.07-.58,1.93v3.25c0,.86.19,1.5.58,1.93.39.43.93.64,1.64.64"/>
  <path class="cls-4" d="M120.72,81.02c-.86,0-1.48-.19-1.86-.58-.37-.38-.56-.97-.56-1.77v-10.8h2.49v11.21h1.05v1.94h-1.12Z"/>
  <path class="cls-4" d="M125.28,81.02c-.87,0-1.48-.19-1.86-.58-.37-.38-.56-.97-.56-1.77v-10.8h2.49v11.21h1.05v1.94h-1.12Z"/>
  <path class="cls-4" d="M130.73,81.23c-1.53,0-2.75-.55-3.66-1.65l1.48-1.47c.57.81,1.31,1.21,2.24,1.21.79,0,1.19-.32,1.19-.96,0-.25-.06-.44-.19-.58-.12-.14-.33-.23-.61-.29l-.94-.18c-1.01-.19-1.73-.51-2.18-.95-.44-.44-.67-1.08-.67-1.89,0-.98.29-1.73.87-2.23.58-.5,1.43-.76,2.54-.76.75,0,1.4.12,1.95.35.55.23,1.03.58,1.45,1.06l-1.42,1.46c-.53-.63-1.18-.94-1.95-.94-.72,0-1.08.32-1.08.96,0,.26.07.46.19.59.13.13.34.23.64.28l.98.18c.98.18,1.69.48,2.12.9.43.42.65,1.02.65,1.8,0,1.01-.31,1.78-.94,2.32-.63.54-1.51.81-2.65.81"/>
  <path class="cls-4" d="M139.22,81.23c-1.3,0-2.29-.4-2.95-1.19-.66-.79-.99-2.02-.99-3.68s.33-2.89.99-3.69c.66-.8,1.65-1.2,2.95-1.2.92,0,1.66.21,2.21.63.55.42.94,1.02,1.18,1.79l-2.01.89c-.06-.45-.2-.78-.41-1-.21-.22-.54-.33-.98-.33-.9,0-1.35.53-1.35,1.6v2.61c0,1.07.45,1.6,1.35,1.6.45,0,.78-.12,1-.35.22-.23.38-.58.49-1.06l1.94.85c-.51,1.68-1.65,2.52-3.43,2.52"/>
  <path class="cls-4" d="M147.43,81.23c-1.3,0-2.29-.4-2.96-1.19-.67-.79-1-2.02-1-3.68s.33-2.89,1-3.69c.67-.8,1.65-1.2,2.96-1.2s2.29.4,2.96,1.2c.67.8,1,2.03,1,3.69s-.34,2.89-1,3.68c-.67.79-1.66,1.19-2.96,1.19M147.43,79.26c.91,0,1.37-.53,1.37-1.6v-2.61c0-1.07-.46-1.6-1.37-1.6s-1.37.53-1.37,1.6v2.61c0,1.07.46,1.6,1.37,1.6"/>
  <path class="cls-4" d="M154.2,70.55c-.51,0-.88-.11-1.11-.33-.23-.22-.35-.52-.35-.9v-.39c0-.38.12-.68.35-.9.23-.22.6-.33,1.11-.33s.88.11,1.11.33c.23.22.35.52.35.9v.39c0,.38-.11.68-.35.9-.23.22-.6.33-1.11.33M152.96,71.69h2.49v9.33h-2.49v-9.33Z"/>
  <path class="cls-4" d="M159.96,81.02c-.87,0-1.48-.19-1.86-.58-.37-.38-.56-.97-.56-1.77v-10.8h2.49v11.21h1.05v1.94h-1.12Z"/>
  <polygon class="cls-4" points="170.96 70.84 170.96 81.02 168.42 81.02 168.42 70.84 165.45 70.84 165.45 68.62 173.92 68.62 173.92 70.84 170.96 70.84"/>
  <path class="cls-4" d="M177.67,81.23c-1.28,0-2.3-.41-3.06-1.22-.76-.81-1.15-2.03-1.15-3.65s.34-2.89,1-3.69c.67-.8,1.65-1.2,2.96-1.2s2.29.4,2.96,1.2c.67.8,1,2.02,1,3.67v.6h-5.33v.59c0,.52.16.94.48,1.25.32.31.76.47,1.31.47.46,0,.86-.1,1.18-.31.33-.21.62-.49.9-.86l1.26,1.48c-.38.51-.86.92-1.45,1.21-.59.3-1.28.45-2.07.45M177.42,73.34c-.91,0-1.37.53-1.37,1.59v.56h2.74v-.56c0-1.06-.46-1.59-1.37-1.59"/>
  <path class="cls-4" d="M183.87,70.55c-.51,0-.88-.11-1.11-.33-.23-.22-.35-.52-.35-.9v-.39c0-.38.12-.68.35-.9.23-.22.6-.33,1.11-.33s.88.11,1.11.33.35.52.35.9v.39c0,.38-.11.68-.35.9-.23.22-.6.33-1.11.33M182.63,71.69h2.49v9.33h-2.49v-9.33Z"/>
  <path class="cls-4" d="M190.62,81.23c-1.3,0-2.29-.4-2.95-1.19-.66-.79-1-2.02-1-3.68s.33-2.89,1-3.69c.66-.8,1.65-1.2,2.95-1.2.92,0,1.66.21,2.21.63.55.42.94,1.02,1.18,1.79l-2.01.89c-.06-.45-.2-.78-.41-1-.21-.22-.54-.33-.98-.33-.9,0-1.35.53-1.35,1.6v2.61c0,1.07.45,1.6,1.35,1.6.45,0,.78-.12,1-.35.22-.23.38-.58.49-1.06l1.94.85c-.51,1.68-1.65,2.52-3.43,2.52"/>
  <path class="cls-4" d="M195.46,81.02v-9.33h2.49v1.58h.28c.07-.25.17-.48.29-.69.12-.21.27-.4.44-.57.18-.17.39-.3.62-.39.24-.1.51-.14.82-.14.84,0,1.48.28,1.93.84.45.56.67,1.35.67,2.36v6.34h-2.49v-5.86c0-1.1-.38-1.65-1.15-1.65-.38,0-.71.11-.99.35-.28.23-.42.55-.42.97v6.2h-2.49Z"/>
  <path class="cls-4" d="M208.66,81.23c-1.28,0-2.3-.41-3.07-1.22-.76-.81-1.15-2.03-1.15-3.65s.34-2.89,1.01-3.69c.67-.8,1.65-1.2,2.96-1.2s2.29.4,2.96,1.2c.67.8,1.01,2.02,1.01,3.67v.6h-5.33v.59c0,.52.16.94.48,1.25.32.31.76.47,1.31.47.46,0,.86-.1,1.18-.31.33-.21.62-.49.9-.86l1.26,1.48c-.38.51-.86.92-1.45,1.21-.58.3-1.28.45-2.07.45M208.41,73.34c-.91,0-1.37.53-1.37,1.59v.56h2.74v-.56c0-1.06-.46-1.59-1.37-1.59"/>
  <path class="cls-4" d="M217.36,81.23c-1.3,0-2.29-.4-2.96-1.19-.67-.79-1.01-2.02-1.01-3.68s.34-2.89,1.01-3.69c.67-.8,1.65-1.2,2.96-1.2s2.29.4,2.96,1.2c.67.8,1.01,2.03,1.01,3.69s-.34,2.89-1.01,3.68c-.67.79-1.65,1.19-2.96,1.19M217.36,79.26c.91,0,1.37-.53,1.37-1.6v-2.61c0-1.07-.46-1.6-1.37-1.6s-1.37.53-1.37,1.6v2.61c0,1.07.46,1.6,1.37,1.6"/>
  <path class="cls-4" d="M225.31,81.02c-.86,0-1.48-.19-1.86-.58-.37-.38-.56-.97-.56-1.77v-10.8h2.49v11.21h1.05v1.94h-1.12Z"/>
  <path class="cls-4" d="M233.89,81.02c-.97,0-1.5-.54-1.58-1.62h-.23c-.1.57-.35,1.02-.77,1.34-.41.33-.94.49-1.58.49-.84,0-1.48-.24-1.9-.72-.43-.48-.64-1.15-.64-2,0-1.02.31-1.76.93-2.22.62-.46,1.49-.69,2.6-.69h1.35v-.72c0-.48-.1-.84-.3-1.07-.2-.24-.54-.35-1.01-.35-.42,0-.76.1-1.04.31-.28.21-.52.48-.74.82l-1.48-1.32c.38-.56.84-.99,1.39-1.31.54-.32,1.24-.47,2.1-.47,1.22,0,2.12.28,2.7.85.58.57.87,1.42.87,2.54v4.21h.76v1.94h-1.44ZM230.73,79.49c.37,0,.68-.1.95-.31.27-.21.4-.53.4-.97v-1.16h-1.12c-.85,0-1.28.36-1.28,1.07v.34c0,.36.09.62.28.78.18.17.44.25.77.25"/>
  <path class="cls-4" d="M236.84,71.69h2.49v9.33h-2.49v-9.33ZM238.37,70.73l-1.46-.69,1.64-3.52,2.11,1.03-2.29,3.18Z"/>
  <path class="cls-4" d="M244.85,81.23c-1.3,0-2.29-.4-2.96-1.19-.67-.79-1-2.02-1-3.68s.33-2.89,1-3.69c.67-.8,1.65-1.2,2.96-1.2s2.29.4,2.96,1.2c.67.8,1,2.03,1,3.69s-.33,2.89-1,3.68c-.67.79-1.66,1.19-2.96,1.19M244.85,79.26c.91,0,1.37-.53,1.37-1.6v-2.61c0-1.07-.46-1.6-1.37-1.6s-1.37.53-1.37,1.6v2.61c0,1.07.46,1.6,1.37,1.6"/>
  <path class="cls-4" d="M253.79,81.23c-1.3,0-2.29-.4-2.95-1.19-.66-.79-.99-2.02-.99-3.68s.33-2.89.99-3.69c.66-.8,1.65-1.2,2.95-1.2.92,0,1.66.21,2.21.63.55.42.94,1.02,1.18,1.79l-2.01.89c-.06-.45-.2-.78-.41-1-.21-.22-.54-.33-.98-.33-.9,0-1.35.53-1.35,1.6v2.61c0,1.07.45,1.6,1.35,1.6.45,0,.78-.12,1-.35.22-.23.38-.58.49-1.06l1.94.85c-.51,1.68-1.65,2.52-3.43,2.52"/>
  <path class="cls-4" d="M258.62,67.87h2.49v5.4h.29c.07-.25.17-.48.29-.69.12-.21.27-.4.45-.57.18-.17.38-.3.62-.39s.51-.14.84-.14c.83,0,1.46.28,1.9.84.44.56.66,1.35.66,2.35v6.34h-2.49v-5.86c0-1.1-.39-1.65-1.15-1.65-.38,0-.71.12-.99.35-.28.23-.42.55-.42.97v6.2h-2.49v-13.15Z"/>
  <path class="cls-4" d="M271.02,81.02c-.85,0-1.47-.19-1.86-.57-.39-.38-.58-.98-.58-1.81v-5.01h-1.17v-1.94h.57c.33,0,.56-.07.68-.21.12-.14.18-.37.18-.69v-1.62h2.24v2.52h1.63v1.94h-1.63v5.45h1.46v1.94h-1.51Z"/>
  <path class="cls-4" d="M280.3,81.02c-.97,0-1.5-.54-1.58-1.62h-.23c-.1.57-.35,1.02-.76,1.34-.42.33-.94.49-1.58.49-.84,0-1.47-.24-1.9-.72-.43-.48-.64-1.15-.64-2,0-1.02.31-1.76.93-2.22.62-.46,1.49-.69,2.6-.69h1.35v-.72c0-.48-.1-.84-.3-1.07-.2-.24-.54-.35-1.01-.35-.41,0-.76.1-1.04.31-.28.21-.52.48-.74.82l-1.48-1.32c.38-.56.84-.99,1.39-1.31.54-.32,1.24-.47,2.1-.47,1.22,0,2.12.28,2.7.85.58.57.87,1.42.87,2.54v4.21h.76v1.94h-1.44ZM277.13,79.49c.37,0,.68-.1.95-.31.27-.21.4-.53.4-.97v-1.16h-1.12c-.85,0-1.28.36-1.28,1.07v.34c0,.36.09.62.28.78.18.17.44.25.77.25"/>
  <path class="cls-4" d="M286.94,81.02v-9.33h2.49v1.58h.28c.07-.25.17-.48.29-.69.12-.21.27-.4.44-.57.18-.17.39-.3.62-.39.24-.1.51-.14.82-.14.84,0,1.49.28,1.93.84.44.56.67,1.35.67,2.36v6.34h-2.49v-5.86c0-1.1-.39-1.65-1.15-1.65-.38,0-.71.11-.99.35-.28.23-.42.55-.42.97v6.2h-2.49Z"/>
  <path class="cls-4" d="M302.61,81.02c-.97,0-1.5-.54-1.58-1.62h-.23c-.1.57-.35,1.02-.77,1.34-.42.33-.94.49-1.58.49-.84,0-1.48-.24-1.9-.72-.43-.48-.64-1.15-.64-2,0-1.02.31-1.76.93-2.22.62-.46,1.49-.69,2.6-.69h1.35v-.72c0-.48-.1-.84-.3-1.07-.2-.24-.54-.35-1.01-.35-.42,0-.76.1-1.04.31-.28.21-.52.48-.74.82l-1.48-1.32c.38-.56.84-.99,1.39-1.31.54-.32,1.24-.47,2.1-.47,1.22,0,2.12.28,2.7.85.58.57.87,1.42.87,2.54v4.21h.76v1.94h-1.44ZM299.45,79.49c.37,0,.68-.1.95-.31.27-.21.4-.53.4-.97v-1.16h-1.12c-.85,0-1.28.36-1.28,1.07v.34c0,.36.09.62.28.78.18.17.44.25.77.25"/>
  <polygon class="cls-4" points="317.68 74.55 317.82 72.47 317.54 72.47 316.77 74.44 314.71 78.94 312.67 74.44 311.91 72.47 311.62 72.47 311.76 74.55 311.76 81.02 309.38 81.02 309.38 68.62 312.05 68.62 313.74 72.31 314.66 74.96 314.84 74.96 315.76 72.31 317.41 68.62 320.06 68.62 320.06 81.02 317.68 81.02 317.68 74.55"/>
  <path class="cls-4" d="M327.24,79.44h-.28c-.07.25-.17.48-.29.69-.12.21-.28.4-.45.57-.18.17-.39.3-.62.39-.24.09-.52.14-.84.14-.83,0-1.46-.28-1.9-.85-.44-.56-.66-1.35-.66-2.35v-6.34h2.49v5.86c0,1.1.39,1.65,1.15,1.65.38,0,.71-.12.99-.35.28-.23.42-.55.42-.97v-6.2h2.49v9.33h-2.49v-1.58Z"/>
  <path class="cls-4" d="M331.82,81.02v-9.33h2.49v1.58h.28c.07-.25.17-.48.29-.69s.27-.4.45-.57c.17-.17.38-.3.61-.39.24-.1.51-.14.82-.14.61,0,1.08.16,1.44.49.36.33.62.79.78,1.4h.23c.2-.65.52-1.13.95-1.43.43-.3.93-.45,1.5-.45.79,0,1.4.29,1.82.85.42.57.63,1.35.63,2.35v6.34h-2.49v-5.86c0-1.1-.36-1.65-1.08-1.65-.37,0-.68.11-.94.35-.26.23-.39.55-.39.97v6.2h-2.49v-5.86c0-1.1-.36-1.65-1.08-1.65-.37,0-.68.11-.94.35-.26.23-.39.55-.39.97v6.2h-2.49Z"/>
  <path class="cls-4" d="M346.11,67.87h2.49v5.4h.28c.07-.25.17-.48.29-.69.12-.21.28-.4.46-.57.18-.17.38-.3.62-.39.24-.1.51-.14.83-.14.83,0,1.46.28,1.9.84.44.56.66,1.35.66,2.35v6.34h-2.49v-5.86c0-1.1-.38-1.65-1.15-1.65-.38,0-.71.12-.99.35-.28.23-.42.55-.42.97v6.2h-2.49v-13.15Z"/>
  <path class="cls-4" d="M361.78,81.02c-.97,0-1.5-.54-1.58-1.62h-.23c-.1.57-.35,1.02-.76,1.34-.42.33-.94.49-1.58.49-.84,0-1.48-.24-1.9-.72-.43-.48-.64-1.15-.64-2,0-1.02.31-1.76.93-2.22.62-.46,1.49-.69,2.6-.69h1.35v-.72c0-.48-.1-.84-.3-1.07-.2-.24-.54-.35-1.01-.35-.41,0-.76.1-1.04.31-.28.21-.52.48-.74.82l-1.48-1.32c.38-.56.84-.99,1.39-1.31.55-.32,1.24-.47,2.1-.47,1.22,0,2.12.28,2.7.85.58.57.87,1.42.87,2.54v4.21h.77v1.94h-1.44ZM358.62,79.49c.37,0,.69-.1.95-.31.27-.21.4-.53.4-.97v-1.16h-1.12c-.85,0-1.28.36-1.28,1.07v.34c0,.36.09.62.28.78.18.17.44.25.77.25"/>
  <path class="cls-4" d="M364.73,81.02v-9.33h2.49v1.58h.29c.07-.25.17-.48.28-.69.12-.21.27-.4.45-.57.18-.17.39-.3.62-.39.24-.1.51-.14.82-.14.84,0,1.48.28,1.93.84.44.56.67,1.35.67,2.36v6.34h-2.49v-5.86c0-1.1-.39-1.65-1.16-1.65-.38,0-.71.11-.98.35-.28.23-.42.55-.42.97v6.2h-2.49Z"/>
  <polygon class="cls-4" points="115.99 93.26 116.11 91.15 115.9 91.15 115.05 93.22 112.63 98.27 110.23 93.22 109.38 91.18 109.17 91.18 109.29 93.26 109.29 100.9 107.48 100.9 107.48 88.5 109.7 88.5 111.71 92.83 112.58 95.29 112.74 95.29 113.61 92.83 115.6 88.5 117.8 88.5 117.8 100.9 115.99 100.9 115.99 93.26"/>
  <path class="cls-4" d="M125.42,99.37h-.23c-.37,1.16-1.13,1.74-2.29,1.74-.82,0-1.46-.28-1.91-.84s-.68-1.39-.68-2.48v-6.13h1.83v5.88c0,1.34.52,2.01,1.56,2.01.47,0,.88-.14,1.22-.43s.51-.7.51-1.22v-6.24h1.83v9.24h-1.83v-1.53Z"/>
  <path class="cls-4" d="M129.74,100.9v-9.24h1.83v1.53h.21c.37-1.16,1.12-1.74,2.27-1.74.83,0,1.47.28,1.93.84.46.56.68,1.39.68,2.48v6.13h-1.83v-5.88c0-.65-.12-1.15-.37-1.49-.25-.34-.64-.52-1.17-.52-.49,0-.89.15-1.23.43-.33.29-.5.7-.5,1.22v6.24h-1.83Z"/>
  <path class="cls-4" d="M141.77,101.11c-.77,0-1.44-.14-2-.43-.56-.29-1.05-.71-1.47-1.27l1.17-1.08c.31.44.65.77,1.01,1,.37.22.8.33,1.3.33s.86-.11,1.12-.33c.26-.22.39-.55.39-.98,0-.33-.08-.6-.25-.81-.17-.2-.47-.35-.91-.43l-.8-.14c-.93-.17-1.62-.46-2.06-.87-.44-.41-.66-1.03-.66-1.85,0-.96.28-1.66.84-2.12.56-.45,1.32-.68,2.29-.68.71,0,1.32.12,1.82.36.5.24.95.59,1.32,1.05l-1.1,1.08c-.25-.35-.55-.61-.9-.78-.35-.17-.73-.26-1.13-.26-.93,0-1.39.43-1.39,1.28,0,.37.09.65.28.83.19.18.49.3.91.38l.82.16c.96.17,1.64.46,2.05.88.41.42.61,1,.61,1.73,0,.93-.28,1.66-.85,2.18-.57.52-1.38.78-2.43.78"/>
  <path class="cls-4" d="M149.25,100.9c-.64,0-1.1-.14-1.4-.43s-.43-.75-.43-1.39v-5.92h-1.28v-1.51h.71c.29,0,.49-.07.6-.2.1-.14.15-.35.15-.65v-1.67h1.65v2.52h1.72v1.51h-1.72v6.22h1.6v1.51h-1.6Z"/>
  <path class="cls-4" d="M156.07,101.11c-.58,0-1.11-.09-1.6-.28-.49-.19-.9-.48-1.24-.88-.34-.4-.61-.9-.81-1.5-.2-.61-.29-1.33-.29-2.17s.09-1.57.27-2.18c.18-.61.43-1.11.77-1.5.34-.39.74-.68,1.21-.87.47-.19,1-.29,1.59-.29,1.17,0,2.09.39,2.75,1.15.66.77.99,2,.99,3.68v.46h-5.65v.59c0,.73.19,1.3.56,1.69.37.39.88.59,1.54.59.56,0,1.02-.12,1.38-.37.36-.25.67-.6.91-1.05l1.07,1.01c-.33.58-.78,1.04-1.34,1.39-.56.35-1.26.52-2.09.52M155.97,92.9c-.62,0-1.09.19-1.42.56-.33.37-.5.93-.5,1.68v.37h3.71v-.37c0-1.49-.6-2.24-1.79-2.24"/>
  <path class="cls-4" d="M161.62,100.9v-9.24h1.83v1.83h.21c.13-.59.38-1.05.74-1.36.36-.31.82-.47,1.38-.47h.46v1.87h-.78c-.65,0-1.15.12-1.49.37-.34.25-.51.65-.51,1.19v5.81h-1.83Z"/>
  <polygon class="cls-4" points="174.71 90.17 174.71 100.9 172.83 100.9 172.83 90.17 169.54 90.17 169.54 88.5 178 88.5 178 90.17 174.71 90.17"/>
  <path class="cls-4" d="M181.47,101.11c-.58,0-1.11-.09-1.6-.28-.49-.19-.9-.48-1.24-.88-.34-.4-.61-.9-.81-1.5-.2-.61-.29-1.33-.29-2.17s.09-1.57.27-2.18c.18-.61.44-1.11.77-1.5.34-.39.74-.68,1.21-.87.47-.19,1-.29,1.59-.29,1.17,0,2.09.39,2.74,1.15.66.77.99,2,.99,3.68v.46h-5.65v.59c0,.73.19,1.3.56,1.69.37.39.88.59,1.54.59.56,0,1.02-.12,1.38-.37.36-.25.67-.6.91-1.05l1.07,1.01c-.33.58-.78,1.04-1.34,1.39-.56.35-1.26.52-2.09.52M181.37,92.9c-.62,0-1.09.19-1.42.56-.33.37-.5.93-.5,1.68v.37h3.71v-.37c0-1.49-.6-2.24-1.79-2.24"/>
  <path class="cls-4" d="M190.04,101.11c-1.21,0-2.14-.39-2.79-1.15-.65-.77-.98-1.99-.98-3.68s.33-2.91.98-3.68c.65-.77,1.58-1.15,2.79-1.15.89,0,1.6.2,2.13.61.53.41.92.95,1.15,1.63l-1.51.71c-.11-.46-.3-.82-.58-1.06-.28-.24-.68-.36-1.2-.36-1.22,0-1.83.74-1.83,2.22v2.17c0,1.48.61,2.22,1.83,2.22.53,0,.95-.13,1.25-.38.3-.26.54-.63.7-1.13l1.39.76c-.27.72-.68,1.28-1.23,1.68-.55.4-1.25.6-2.11.6"/>
  <path class="cls-4" d="M195.03,87.75h1.83v5.44h.21c.37-1.16,1.13-1.74,2.27-1.74.83,0,1.47.28,1.93.84.45.56.68,1.39.68,2.48v6.13h-1.83v-5.88c0-.65-.12-1.15-.37-1.49-.25-.34-.64-.51-1.17-.51-.49,0-.89.14-1.23.43-.33.29-.5.7-.5,1.22v6.24h-1.83v-13.15Z"/>
  <path class="cls-4" d="M204.36,100.9v-9.24h1.83v1.53h.21c.37-1.16,1.12-1.74,2.27-1.74.83,0,1.47.28,1.93.84.46.56.68,1.39.68,2.48v6.13h-1.83v-5.88c0-.65-.12-1.15-.37-1.49-.25-.34-.64-.52-1.17-.52-.49,0-.89.15-1.23.43-.33.29-.5.7-.5,1.22v6.24h-1.83Z"/>
  <path class="cls-4" d="M216.94,101.11c-.59,0-1.12-.1-1.59-.28-.47-.19-.87-.48-1.21-.87-.34-.39-.6-.89-.77-1.5-.18-.61-.27-1.34-.27-2.18s.09-1.57.27-2.18c.18-.61.44-1.11.77-1.5.34-.39.74-.68,1.21-.87.47-.19,1-.28,1.59-.28s1.11.1,1.58.28c.47.19.88.48,1.22.87.34.39.6.89.77,1.5.18.61.27,1.33.27,2.18s-.09,1.57-.27,2.18c-.18.61-.43,1.11-.77,1.5-.34.39-.74.68-1.22.87-.48.19-1,.28-1.58.28M216.94,99.59c.62,0,1.09-.18,1.41-.55.33-.37.49-.92.49-1.67v-2.17c0-.75-.16-1.3-.49-1.67-.33-.37-.8-.55-1.41-.55s-1.09.18-1.41.55c-.33.37-.49.92-.49,1.67v2.17c0,.75.16,1.3.49,1.67.33.37.8.55,1.41.55"/>
  <path class="cls-4" d="M224.49,100.9c-.64,0-1.1-.14-1.39-.43-.28-.29-.43-.74-.43-1.36v-11.35h1.83v11.64h1.1v1.51h-1.12Z"/>
  <path class="cls-4" d="M230.55,101.11c-.59,0-1.12-.1-1.59-.28-.47-.19-.87-.48-1.21-.87-.34-.39-.6-.89-.77-1.5-.18-.61-.27-1.34-.27-2.18s.09-1.57.27-2.18c.18-.61.44-1.11.77-1.5.34-.39.74-.68,1.21-.87.47-.19,1-.28,1.59-.28s1.11.1,1.58.28c.47.19.88.48,1.22.87.34.39.6.89.77,1.5.18.61.27,1.33.27,2.18s-.09,1.57-.27,2.18c-.18.61-.43,1.11-.77,1.5-.34.39-.74.68-1.22.87-.48.19-1,.28-1.58.28M230.55,99.59c.62,0,1.09-.18,1.41-.55.33-.37.49-.92.49-1.67v-2.17c0-.75-.16-1.3-.49-1.67-.33-.37-.8-.55-1.41-.55s-1.09.18-1.41.55c-.33.37-.49.92-.49,1.67v2.17c0,.75.16,1.3.49,1.67.32.37.8.55,1.41.55"/>
  <path class="cls-4" d="M243.65,101.82c0,.48-.08.9-.23,1.26-.15.35-.4.65-.75.89-.34.23-.79.41-1.33.53-.54.12-1.2.18-1.98.18-.7,0-1.29-.05-1.78-.15-.49-.1-.88-.24-1.18-.43-.3-.19-.52-.42-.65-.7-.13-.28-.2-.59-.2-.95,0-.47.13-.85.38-1.12.26-.28.61-.45,1.06-.52v-.3c-.33-.12-.58-.3-.74-.53s-.24-.52-.24-.85c0-.42.13-.75.4-1,.27-.25.62-.42,1.08-.49v-.21c-.99-.51-1.49-1.44-1.49-2.78,0-1.02.28-1.8.84-2.35.56-.55,1.4-.82,2.51-.82.55,0,1.04.09,1.49.27v-.3c0-.76.37-1.14,1.1-1.14h1.28v1.46h-1.7v.41c.38.24.67.57.88.99.21.42.31.92.31,1.49,0,1.02-.28,1.8-.84,2.34-.56.54-1.4.81-2.52.81-.21,0-.42-.01-.61-.04-.2-.02-.38-.05-.56-.09-.24.07-.42.19-.53.36-.12.17-.18.36-.18.56,0,.24.08.42.24.53.16.12.42.18.79.18h2.22c1.05,0,1.8.22,2.25.65.45.44.67,1.06.67,1.88M241.92,102c0-.34-.11-.61-.34-.8-.22-.19-.6-.28-1.14-.28h-2.84c-.36.25-.53.61-.53,1.1,0,.41.13.74.4.97.27.23.72.35,1.36.35h1.1c.7,0,1.2-.11,1.52-.33.31-.22.47-.55.47-1M239.36,96.44c1.05,0,1.58-.52,1.58-1.56v-.53c0-1.04-.53-1.56-1.58-1.56s-1.58.52-1.58,1.56v.53c0,1.04.53,1.56,1.58,1.56"/>
  <path class="cls-4" d="M245.85,89.9c-.73,0-1.1-.31-1.1-.94v-.32c0-.63.37-.94,1.1-.94s1.1.31,1.1.94v.32c0,.63-.37.94-1.1.94M244.94,91.66h1.83v9.24h-1.83v-9.24Z"/>
  <path class="cls-4" d="M252.44,101.11c-1.21,0-2.14-.39-2.79-1.15-.65-.77-.98-1.99-.98-3.68s.33-2.91.98-3.68c.65-.77,1.58-1.15,2.79-1.15.89,0,1.6.2,2.13.61.53.41.92.95,1.15,1.63l-1.51.71c-.11-.46-.3-.82-.58-1.06-.28-.24-.68-.36-1.2-.36-1.22,0-1.83.74-1.83,2.22v2.17c0,1.48.61,2.22,1.83,2.22.53,0,.95-.13,1.25-.38.3-.26.53-.63.7-1.13l1.39.76c-.27.72-.68,1.28-1.24,1.68-.55.4-1.25.6-2.1.6"/>
  <path class="cls-4" d="M263.37,100.9c-.45,0-.8-.12-1.05-.37-.25-.25-.37-.64-.37-1.17h-.21c-.13.56-.4.99-.81,1.3-.41.31-.91.46-1.5.46-.88,0-1.53-.23-1.96-.7-.43-.47-.65-1.13-.65-1.98,0-.92.3-1.63.89-2.11.59-.49,1.46-.73,2.61-.73h1.53v-.89c0-.59-.13-1.03-.39-1.3-.26-.28-.68-.42-1.24-.42-.44,0-.82.09-1.13.28-.31.19-.6.51-.86.96l-1.08-.99c.31-.52.73-.95,1.25-1.28.53-.33,1.18-.5,1.95-.5,1.11,0,1.95.27,2.51.81.56.54.84,1.33.84,2.37v4.76h.87v1.51h-1.17ZM260.03,99.69c.26,0,.5-.04.72-.12.22-.08.41-.19.57-.34.16-.14.29-.31.38-.51.1-.2.14-.41.14-.63v-1.28h-1.44c-1.15,0-1.72.41-1.72,1.24v.43c0,.42.12.72.37.92.24.2.57.29.98.29"/>
  <path class="cls-4" d="M268.08,100.9c-.64,0-1.1-.14-1.39-.43-.29-.29-.43-.74-.43-1.36v-11.35h1.83v11.64h1.1v1.51h-1.12Z"/>
  <path class="cls-4" d="M276.55,88.5v8.03c0,.99.17,1.73.52,2.2.34.47.95.71,1.83.71s1.49-.24,1.83-.71c.34-.47.51-1.21.51-2.2v-8.03h1.88v7.73c0,.84-.07,1.57-.22,2.19-.15.62-.39,1.13-.72,1.53-.33.4-.77.7-1.3.89-.54.19-1.2.28-1.98.28s-1.44-.1-1.98-.28c-.54-.19-.97-.49-1.31-.89-.33-.4-.57-.91-.72-1.53-.15-.62-.22-1.35-.22-2.19v-7.73h1.88Z"/>
  <path class="cls-4" d="M285.65,100.9v-9.24h1.83v1.53h.21c.37-1.16,1.13-1.74,2.27-1.74.83,0,1.47.28,1.93.84.46.56.68,1.39.68,2.48v6.13h-1.83v-5.88c0-.65-.12-1.15-.37-1.49-.25-.34-.64-.52-1.17-.52-.49,0-.89.15-1.23.43-.33.29-.5.7-.5,1.22v6.24h-1.83Z"/>
  <path class="cls-4" d="M295.9,89.9c-.73,0-1.1-.31-1.1-.94v-.32c0-.63.37-.94,1.1-.94s1.1.31,1.1.94v.32c0,.63-.37.94-1.1.94M294.99,91.66h1.83v9.24h-1.83v-9.24Z"/>
  <polygon class="cls-4" points="301.05 100.9 298.26 91.66 300.11 91.66 301.46 96.48 302.12 99.32 302.35 99.32 302.99 96.48 304.34 91.66 306.13 91.66 303.35 100.9 301.05 100.9"/>
  <path class="cls-4" d="M310.82,101.11c-.58,0-1.11-.09-1.6-.28-.49-.19-.9-.48-1.24-.88-.34-.4-.61-.9-.81-1.5-.19-.61-.29-1.33-.29-2.17s.09-1.57.27-2.18c.18-.61.44-1.11.77-1.5.34-.39.74-.68,1.21-.87.47-.19,1-.29,1.59-.29,1.17,0,2.09.39,2.75,1.15.66.77.98,2,.98,3.68v.46h-5.65v.59c0,.73.19,1.3.56,1.69.37.39.89.59,1.54.59.56,0,1.01-.12,1.38-.37.36-.25.67-.6.92-1.05l1.07,1.01c-.33.58-.78,1.04-1.34,1.39-.56.35-1.26.52-2.09.52M310.72,92.9c-.61,0-1.09.19-1.42.56-.33.37-.5.93-.5,1.68v.37h3.71v-.37c0-1.49-.6-2.24-1.8-2.24"/>
  <path class="cls-4" d="M316.37,100.9v-9.24h1.83v1.83h.21c.13-.59.38-1.05.74-1.36.36-.31.82-.47,1.38-.47h.46v1.87h-.78c-.65,0-1.15.12-1.49.37-.34.25-.52.65-.52,1.19v5.81h-1.83Z"/>
  <path class="cls-4" d="M325.23,101.11c-.77,0-1.44-.14-2-.43-.56-.29-1.05-.71-1.47-1.27l1.17-1.08c.31.44.65.77,1.01,1,.37.22.8.33,1.3.33s.86-.11,1.12-.33c.26-.22.39-.55.39-.98,0-.33-.08-.6-.25-.81-.17-.2-.47-.35-.91-.43l-.8-.14c-.94-.17-1.62-.46-2.06-.87-.44-.41-.66-1.03-.66-1.85,0-.96.28-1.66.83-2.12.56-.45,1.32-.68,2.29-.68.71,0,1.32.12,1.82.36.5.24.94.59,1.32,1.05l-1.1,1.08c-.25-.35-.55-.61-.9-.78-.35-.17-.73-.26-1.13-.26-.92,0-1.39.43-1.39,1.28,0,.37.1.65.28.83.19.18.49.3.91.38l.82.16c.96.17,1.64.46,2.05.88.41.42.61,1,.61,1.73,0,.93-.28,1.66-.85,2.18-.57.52-1.38.78-2.43.78"/>
  <path class="cls-4" d="M331.38,89.9c-.74,0-1.1-.31-1.1-.94v-.32c0-.63.37-.94,1.1-.94s1.1.31,1.1.94v.32c0,.63-.37.94-1.1.94M330.48,91.66h1.83v9.24h-1.83v-9.24Z"/>
  <path class="cls-4" d="M337.07,100.9c-.64,0-1.1-.14-1.39-.43-.29-.28-.43-.75-.43-1.39v-5.92h-1.28v-1.51h.71c.3,0,.49-.07.6-.2.1-.14.15-.35.15-.65v-1.67h1.65v2.52h1.72v1.51h-1.72v6.22h1.6v1.51h-1.6Z"/>
  <path class="cls-4" d="M345.81,91.66h1.81l-3.57,11.34c-.09.29-.2.52-.31.71-.11.19-.25.34-.41.45s-.35.19-.58.23c-.22.04-.48.06-.78.06h-1.28v-1.51h1.67l.43-1.55-3.07-9.74h1.87l1.39,4.85.64,2.81h.2l.64-2.81,1.37-4.85Z"/>
</svg>