<?xml version="1.0" encoding="UTF-8"?>
<svg id="Livello_1" data-name="Livello 1" xmlns="http://www.w3.org/2000/svg" viewBox="0 0 120.15 214.47">
  <defs>
    <style>
      .cls-1 {
        fill: #00a2e1;
      }

      .cls-2 {
        fill: #d90725;
      }

      .cls-3 {
        fill: #f0af00;
      }

      .cls-4 {
        fill: #003e7d;
      }
    </style>
  </defs>
  <g>
    <path class="cls-1" d="M119.9,86.53c-9.73,14.68-36.37,19.53-57.64,20.88v17.43c4.71-1.07,9.21-2.24,13.37-3.49,42.95-12.92,44.46-31.34,44.27-34.82"/>
    <path class="cls-1" d="M116.3,85.45h-54.05v18.61c34.05-2.19,48.31-10.66,54.05-18.61"/>
    <path class="cls-1" d="M119.9,97.44c-.79,1.41-1.78,2.89-3.03,4.44-7.49,9.25-21.04,16.88-40.28,22.66-4.45,1.34-9.27,2.59-14.33,3.72v19.5c56.31-17.87,57.64-43.93,57.64-49.36v-.96Z"/>
    <path class="cls-1" d="M.22,85.45v12.95c-.1,5.52,1.33,31.49,57.64,49.36v-62.31H.22ZM44.91,125.5l-10.2-5.36-10.2,5.36,1.96-11.43-8.7-9.77h11.91s5.03-10.2,5.03-10.2l5.03,10.19h11.62l-2.89,3.35h-4.41,0s-6.4,0-6.4,0l-2.95-5.98-2.95,5.97h-6.55s4.82,5.41,4.82,5.41l-1.09,6.35,5.76-3.03,5.76,3.03-1.09-6.33,1.79-2.08h4.41l-2.64,3.06,1.96,11.45Z"/>
    <path class="cls-2" d="M119.94.05v81h-57.68V13.14L119.94.05ZM107.4,52.56h-32.53v3.34h32.53v-3.34ZM107.4,64.78h-32.53v3.34h32.53v-3.34ZM107.4,40.33h-32.53v3.34h32.53v-3.34ZM107.4,28.11h-32.53v3.34h32.53v-3.34Z"/>
    <polygon class="cls-3" points="57.86 0 16.36 19.32 57.86 9.91 57.86 0"/>
    <path class="cls-3" d="M57.86,14.14v66.91H.22V27.22l57.64-13.08ZM36.42,63.87l-7.29-5.22-7.24,5.19-9.11-5.48v13.03h3.31v-7.43l5.93,3.56,7.09-5.09,7.21,5.15,5.87-3.65v7.45h3.31v-13.19l-9.07,5.67ZM16.09,37l5.93,3.56,7.09-5.09,7.21,5.15,5.87-3.65v6.2l3.31-2.07v-9.87l-9.07,5.66-7.29-5.22-7.24,5.19-9.11-5.48v9.86l3.31,1.99v-6.25ZM16.09,50.57l5.93,3.56,7.09-5.09,7.21,5.16,5.87-3.65v6.2l3.31-2.07v-9.87l-9.07,5.66-7.29-5.22-7.24,5.19-9.11-5.48v9.86l3.31,1.99v-6.25Z"/>
  </g>
  <g>
    <polygon class="cls-4" points="31.64 184.46 31.45 184.46 20.31 203.89 9.25 184.01 9.06 184.01 9.06 213.82 0 213.82 0 168.73 10.2 168.73 20.31 186.25 20.44 186.25 30.43 168.73 40.69 168.73 40.69 213.82 31.64 213.82 31.64 184.46"/>
    <polygon class="cls-4" points="67.9 177.27 67.9 213.82 58.28 213.82 58.28 177.27 46.31 177.27 46.31 168.73 79.87 168.73 79.87 177.27 67.9 177.27"/>
    <path class="cls-4" d="M103.19,214.47c9.35,0,16.96-6.07,16.96-16.19v-29.56h-9.25v29.73c0,4.05-3.65,7.35-7.71,7.35h-.72c-4.05,0-7.71-3.3-7.71-7.35v-29.73h-9.26v29.56c0,10.12,7.61,16.19,16.96,16.19h.72Z"/>
  </g>
</svg>