<?xml version="1.0" encoding="UTF-8"?>
<svg id="Livello_1" data-name="Livello 1" xmlns="http://www.w3.org/2000/svg" viewBox="0 0 49.3 50">
  <defs>
    <style>
      .cls-1 {
        fill-rule: evenodd;
      }

      .cls-1, .cls-2 {
        fill: #b52e75;
      }
    </style>
  </defs>
  <path class="cls-2" d="M26.54,7.41c-.02-.22.18-.23.28-.33-.27-.09-.51.28-.28.33"/>
  <path class="cls-1" d="M16.07,6.47l.2-.05s.47-.12,1.28-.28c.23-.28.46-.58.68-.92-2.14-.36-4.41.79-5.43,3.36,1.16-.1,2.27-.42,3.28-1.09v-1.02Z"/>
  <path class="cls-1" d="M26.83,7.64c-.11.09-.3.11-.28.33-.22-.05.02-.42.28-.33"/>
  <path class="cls-2" d="M24.98,26.72c-3.06,0-5.4-1.22-6.95-3.64-1.3-2.03-1.61-4.26-1.67-4.9-.09-.93-.09-2.24-.09-2.26v-.07h17.42v.07s0,1.37-.09,2.26c-.15,1.43-1.26,8.54-8.62,8.54M16.4,15.99c0,.28.01,1.37.09,2.18.14,1.41,1.21,8.42,8.49,8.42s8.34-7.01,8.49-8.42c.08-.77.09-1.89.09-2.18h-17.16Z"/>
  <path class="cls-1" d="M17.54,10.81c.43.03,1,.02,1.67.02.4,0,.97-.01,1.01.22.03.14-.06.22-.19.24-.56.1-1.41-.03-2,.02-.16-.16-.43-.31-.48-.5"/>
  <path class="cls-2" d="M33.64,6.61s-3.54-.94-8.66-.94-8.63.93-8.66.94h-.05v9.37h17.42V6.63h-.05ZM28.63,7.49h.8s.4-.7.4-.7l.4.69h.8s-.4.7-.4.7l.4.7h-.8s-.4.7-.4.7l-.4-.69h-.8s.4-.7.4-.7l-.4-.7ZM22.35,8.2c.4.3.81.55,1.45.66.54.09,1.1.14,1.62.35.02.07.02.1-.02.22-.51-.17-1.35-.21-2.02-.28-.48-.05-.82-.18-1.01-.53-.09-.16-.09-.21-.09-.35.03-.01.05-.03.07-.07M24.04,8.57c.1,0,.17.02.24.04v.22c-.14-.03-.19-.15-.24-.26M24.41,8.57c.1.02.12-.04.22-.02-.02.08-.06.14-.15.15-.03-.03-.09-.04-.07-.13M24.7,8.57c.02-.1.09-.14.18-.18.01.13,0,.23-.11.24,0-.04-.07-.02-.07-.07M24.96,8.42c.08.05.17.08.18.2-.05.02-.08.06-.15.04-.07-.06-.07-.15-.02-.24M25.14,9.61c-.08.02-.23.06-.26,0,.01-.17.25-.16.26,0M24.83,9.65c-.06.03-.09,0-.18.02-.21-.18.2-.29.18-.02M24.52,9.65c-.08-.01-.11.04-.2.02-.03-.08-.05-.16-.04-.26.1.06.21.12.24.24M21.49,12.59s-.23.11-.33.11c-.2,0-.35-.13-.44-.29.14-.03.22-.13.26-.26-.24-.2-.49-.39-.64-.68.25-.23.63-.34.68-.77.47.49,1.01.93,1.56,1.34-.31.07-.5.37-.51.68.21-.15.56-.23.83-.09-.44.14-.88.28-1.1.64-.25.02-.4-.06-.55-.13.02-.1.16-.19.2-.31.01-.04.06-.2.02-.24M17.98,14.57c.02-1.09-.02-1.99.07-3.18.56-.11,2.24.19,2.24-.24s-.53-.34-1.01-.35c.16-.26.57-.14.9-.15.34.18.35.72-.02.88v.29c.02.08.17.02.2.09.05.16-.03.26-.18.29.03.13.02.33.02.42.07.04.18.02.22.09,0,.18-.04.32-.24.31.05.11,0,.22,0,.35.08.05.23.03.26.13.02.19-.14.29-.24.22.02.16.03.3,0,.46.02.08.17.02.2.09.02.11,0,.12-.02.22-.15-.02-.45-.05-.53.11-.63,0-1.3,0-1.87,0M19.36,14.74c-.08.31-.45.12-.48-.11.16.03.4,0,.48.11M17.41,13.16s-.14,0-.2.02v-.88s.12,0,.13-.04c.11.25.01.65.07.9M17.23,12.2c-.05-.12-.02-.2-.02-.35.22-.04.57-.04.77.02-.03.13,0,.18-.02.33h-.72ZM20.48,10.86c-.04-.1-.12-.16-.18-.24-.03-.13.06-.16.02-.24-.12.08-.16.25-.42.2-.06-.06.03-.07.02-.13-.15.02-.14.2-.35.15.04-.28-.29-.38-.44-.22.07-.04.38-.08.37.13-.09.11-.26.13-.31.29-.15-.1,0-.35-.11-.42-.03-.34.36-.48.57-.26.59-.09.96.24,1.27.5.02.13-.04.17-.04.26-.11-.06-.3-.09-.42-.02M20.83,10.92c-.02.16-.14.23-.26.29-.09-.19.07-.45.26-.29M19.12,10.77c-.13,0-.39.05-.59,0,.09-.23.32-.12.55-.13.01.05.05.06.04.13M18.46,10.68c-.1-.1.11-.58.35-.35.03.25-.28.28-.35.35M20.28,14.59c.07-.1.24-.1.26-.24.09.06.04.32,0,.4-.16.02-.31-.03-.26-.15M18.92,7.49h.8s.4-.7.4-.7l.4.69h.8s-.4.7-.4.7l.4.7h-.8s-.4.7-.4.7l-.4-.69h-.8s.4-.7.4-.7l-.4-.7ZM19.06,10.09c-.04.18-.04.33-.02.46-.09.03-.18-.05-.2-.02-.03-.03.05-.13.07-.2-.06-.15-.44-.16-.44.04-.29-.38.42-.59.59-.29M18.4,10c-.08.12-.07.37-.02.44-.01.12-.21.14-.29.07.03-.12.01-.18,0-.31-.01-.08-.13-.06-.2-.09,0-.25.38-.23.5-.11M18,10.18c.06.06.09.19.02.26-.12-.05-.21.07-.33.09.06-.16.11-.4.31-.35M18.35,10.61v.15c-.3-.04-.6.04-.94-.02-.03.28.03.62-.02,1.01h-.18c-.01-.32-.02-.75-.02-1.14.41-.03.77.02,1.16,0M17.21,13.25c.3-.02.45-.03.72.02,0,.15-.05.25.02.35-.19-.03-.53.03-.75-.02,0-.18-.03-.19,0-.35M17.21,13.73c.06-.02.12-.02.18,0-.01.34.03.49.02.81h-.15c-.04-.18-.01-.56-.04-.81M17.39,14.63c.12.02.21.06.37.04-.01.34-.36.2-.37-.04M17.69,14.96c.09-.1.16-.22.26-.31.24.02.25.26.33.44-.18.1-.47-.03-.59-.13M18.18,14.61c.14.04.33.02.37.15-.01.11-.1.14-.24.13-.04-.1-.1-.18-.13-.29M18.38,14.96c.19-.02.29-.17.2-.35.3.03.38.28.46.53-.22.13-.59.09-.66-.18M25.88,15.84c-.43-.41-.9-.78-1.56-.97-.05.07.1.12.11.2.05.35-.13.49-.33.59-.03-.23-.24-.41-.51-.46-.05-.05-.05-.14-.13-.15,0,.26-.08.55-.35.59-.03-.27-.36-.36-.61-.37-.43-.02-.95.11-1.47.07-.37-.03-.88-.08-1.16-.2-.24.18-.84.16-.83-.22.09.1.29.03.37-.02.05-.08-.02-.19.02-.24.08-.06.18.02.29,0-.07.05,0,.01,0,.09.11-.01.28-.36.46-.22.1,0-.02.1.02.18.06.06.15.1.24.13-.05.14-.29.1-.44.15.13.16.41-.01.53-.07.08-.17.16-.34.13-.61.61-.21,1.16-.57,1.91-.64.19-.02.41.02.59-.07-.29.06-.61-.12-.9-.15-.23-.03-.36.05-.57.13.29-.65,1.02-.86,1.89-.93-.48.02-1.02-.34-1.41-.03.11-.73,1.3-.57,1.98-.81-.42.13-.83-.3-1.32-.15.32-.67,1.38-.24,2-.57-.43.06-.83-.2-1.27-.18.2-.25.61-.36,1.08-.37.33,0,.72.09.86-.2-.05-.49-.89-.3-1.23-.26.02-.13-.03-.2-.02-.33.55-.08,1.18.13,1.25-.42.05-.38-.29-.86-.59-1.01-.15.06-.3.23-.55.24-.35.02-.69-.21-.64-.57.06-.06.06.07.15.04-.01-.13-.19-.1-.22-.22-.03-.12.07-.06.13-.11.19-.15.27-.4.66-.29.04.06.08.13.11.2h.18c.21.48,1,.29.88-.37.12.03.2.02.29.04-.1-.08-.31-.12-.46-.11-.38.02-.62.53-.86.26-.01-.08.05-.08.04-.15-.14.04-.29.07-.35-.07.05-.15.21-.2.4-.22.46-.4,1.34-.23,1.69.18.1-.13.26-.3.44-.26.19.04.49.73.15.75.47.2.42,1.04,1.03,1.03-.05.26-.36.43-.66.31.44.28.23,1.21.88,1.3,0,.23-.51.36-.68.13.23.33.04,1.4.61,1.38-.13.3-.64.28-.81.04.05.57-.45,1.14-.15,1.6-.22.08-.56-.07-.59-.33-.21.12-.31.35-.48.51.79.68,1.53,1.39,2.17,2.22-.8.01-1.45,0-2.37,0M25.05,7.76c.04-.09.04-.2.07-.31.15-.03.19-.17.4-.15,0,.31-.22.53-.46.46M29.2,14.04c.14-.79.29-1.43.77-1.84.67-.58,1.69-.42,2.63-.72.1-.07.25-.22.33-.24-.25.87-1.42.82-2.19,1.27-.73.42-1.3,1.31-.97,2.52.23-.85.78-1.18,1.6-1.43.58-.17,1.31-.23,1.45-.79.13.3-.15.63-.37.81-.45.36-1.15.53-1.65.92-.32.26-.68.73-.59,1.27-.22.02-.51-.01-.79,0-.31-1.02-.97-1.65-.88-2.83.09-1.11.83-1.93,1.6-2.44.46-.3,1.08-.5,1.49-.88.09-.08.23-.25.26-.35.14-.42-.09-.92-.02-1.27.04-.19.2-.31.33-.46-.29.69.58,1.85-.17,2.37.18-.04.33-.21.39-.35.26-.57-.02-1.13.07-1.76.05-.36.22-.52.48-.72-.1.29-.24.57-.13.99.08.31.27.62.31.99.08.85-.22,1.48-.9,1.76-.02,0-.06.02-.07.02-.92.24-1.84.16-2.57.77-.51.43-.87,1.51-.42,2.39"/>
  <path class="cls-1" d="M30.15,19.39c.67-.79.95-1.96,1.75-2.62.15-.09.28-.25.52-.17-.2,1.27-.88,1.98-1.93,2.83.59-.31,1.55-.79,2.31-.77-.6.84-1.37,1.23-2.66,1.34-.19.02-.35.23-.48.39.79-.12,1.77.04,2.36.43-.67.19-1.43.42-2.16.17-.2-.07-.47-.26-.63-.24-.25.03-.41.44-.67.5.76.15,1.59.42,2.25.84-.97.35-2-.11-2.59-.58-.28.19-.64.31-.91.52.83.24,1.54.59,2.08,1.12-1.14.17-1.95-.33-2.46-.93-.76.29-1.32.74-1.23,1.92,0,.07.03.14.06.22.53.49,1.47-.22,2.18-.19.4.02.65.28.89.61-.33-.13-.67-.21-1.08-.13-.56.11-1.1.65-1.84.41.37.4,1.68-.14,1.73.58-.72-.15-1.82.25-2.31-.35.12.44-.07.82-.35.99.1-.43-.23-.6-.24-.99-.47.46-1.64.11-2.18.39-.04-.09.19-.37.32-.43.39-.19,1.11.06,1.41-.3-.82.18-1.66-.28-2.42-.19-.33.04-.47.19-.71.35.2-.57.77-.91,1.53-.8.48.07,1.19.33,1.56.09.51-.35.2-1.31-.17-1.6-.06-.05-.25-.17-.28-.19-.18-.12-.34-.14-.56-.26-.55.61-1.42,1.02-2.59.89.08-.25.35-.45.58-.6.42-.27.93-.41,1.56-.5-.29-.19-.62-.34-.93-.52-.67.42-1.42.76-2.55.67.44-.6,1.18-.86,2.1-.95-.16-.15-.39-.23-.5-.43-.9.44-2.06.3-2.85,0,.5-.44,1.68-.51,2.36-.35-.09-.12-.34-.28-.48-.43-1.29.06-2.28-.56-2.77-1.45.85.17,1.49.55,2.12.93-.76-.73-1.39-1.59-1.62-2.85.07-.05.17.05.28.1.08.04.16.06.21.1.15.1.36.39.5.58.44.63.67,1.53,1.12,2.12-.28-.69-.6-1.71-.43-2.68.5.49.82,1.34.86,2.27,0,.2-.07.46-.02.65.06.25.45.36.58.5-.31-.62-.4-1.67-.13-2.4.51.53.74,1.73.48,2.64.14.21.38.33.58.48-.21-.59-.25-1.53-.11-2.31.08-.04.14.11.19.19.32.55.53,1.56.28,2.34.24.22.58.34.91.48-.36-.52-.76-1.35-.54-2.23.6.48.94,1.34.93,2.36.46.32,1.12.42,1.47.84.06-.11.04-.29.04-.45-.87-.34-1.44-.98-1.64-1.99.73.31,1.28.79,1.62,1.49.05-.23.06-.55,0-.78-.89-.29-1.45-.9-1.75-1.77.83.23,1.34.78,1.79,1.38.01-.24-.04-.41-.06-.6-.75-.47-1.37-1.08-1.71-1.97.9.16,1.23.9,1.71,1.49.05-.1,0-.28,0-.39-.71-.57-1.33-1.34-1.3-2.57.56.49.88,1.22,1.25,1.9-.31-.71-.2-1.74.17-2.33.41.44.36,1.53.17,2.35.33-.58.68-1.7,1.35-1.94-.09.99-.52,1.78-1.02,2.4-.1.13-.3.2-.24.5.41-.62.89-1.27,1.56-1.56-.15.93-.78,1.72-1.56,2.16.02.2-.03.34.02.52.42-.63,1.04-1.26,1.66-1.54-.22.99-.85,1.57-1.69,1.95.02.29.03.63,0,.82.36-.7.86-1.26,1.6-1.58-.13,1.06-.75,1.63-1.53,2.03,0,.2,0,.39-.02.56.3-.44.97-.7,1.51-.97-.1-.95.33-1.87.82-2.36.15.78-.11,1.69-.48,2.21.15-.04.32-.12.48-.22.14-.09.44-.24.45-.45,0-.14-.11-.31-.13-.45-.05-.41.08-.98.19-1.3.09-.24.13-.5.32-.65.18.68.17,1.69-.11,2.34.29-.11.48-.31.67-.52-.09-.52-.26-1.08-.08-1.58.03-.07.03-.1.05-.14.1-.26.21-.67.47-.94.15.65.2,1.65-.02,2.31.17-.05.3-.32.43-.48-.2-1.03.12-2.12.8-2.75.29.93-.22,1.81-.5,2.51"/>
  <path class="cls-1" d="M15.65.72c.46,2.33-.38,5.26-2.17,5.87-.1-2.4.39-5.22,2.17-5.87"/>
  <path class="cls-1" d="M34.19.85c1.81.55,2.45,3.35,2.47,5.75-1.8-.54-2.81-3.38-2.47-5.75"/>
  <path class="cls-1" d="M12.23,3.08c1.66,1.51.5,5.29-.41,6.72-1.6-1.58-.58-5.29.41-6.72"/>
  <path class="cls-1" d="M37.48,2.89c1.47,1.07,2.11,4.95.82,6.72-1.21-1.33-1.91-4.75-.82-6.72"/>
  <path class="cls-1" d="M9.08,5.96c1.62,1.09,2.52,3.59,2.06,6.31-1.72-1-2.57-3.52-2.06-6.31"/>
  <path class="cls-1" d="M40.73,5.96c.86,2.46-.34,5.84-2.06,6.17-.17-2.91.61-4.88,2.06-6.17"/>
  <path class="cls-1" d="M14.56,8.57c-.13,2.75-1.32,4.45-3.02,5.62-.4-2.74.98-4.87,3.02-5.62"/>
  <path class="cls-1" d="M35.24,8.57c2.11.82,3.2,2.65,3.16,5.62-1.87-1.06-2.99-2.86-3.16-5.62"/>
  <path class="cls-1" d="M7.97,10.49c2.29.64,3.07,2.79,3.16,5.62-1.91-1.02-3.01-2.85-3.16-5.62"/>
  <path class="cls-1" d="M41.71,10.49c-.13,2.79-1.26,4.59-3.16,5.62.09-2.84.86-4.99,3.16-5.62"/>
  <path class="cls-1" d="M12.64,13.64c1.51.95,1.26,4.52.55,6.17-1.68-.89-1.69-4.7-.55-6.17"/>
  <path class="cls-1" d="M37.14,13.64c1.4,1.24,1.24,5.32-.41,6.17-.74-1.66-.87-5.03.41-6.17"/>
  <path class="cls-1" d="M7.16,14.27c2.62.58,4.22,2.18,4.8,4.8-2.38-.83-3.98-2.42-4.8-4.8"/>
  <path class="cls-1" d="M42.76,14.19c-.79,2.36-2.41,3.9-4.66,4.8.18-2.43,2.12-4.28,4.66-4.8"/>
  <path class="cls-1" d="M9.11,18.49c2.83.47,4.39,2.19,5.35,4.53-2.81-.49-4.52-2.06-5.35-4.53"/>
  <path class="cls-1" d="M13.87,18.44c1.68,1.43,3.18,3.04,3.02,6.31-1.93-1.18-3.09-3.12-3.02-6.31"/>
  <path class="cls-1" d="M36.06,18.44c.42,2.93-1,5.22-2.88,6.31-.2-3.26,1.38-4.75,2.88-6.31"/>
  <path class="cls-1" d="M40.85,18.44c-.83,2.46-2.54,4.04-5.35,4.53.96-2.33,2.52-4.06,5.35-4.53"/>
  <path class="cls-1" d="M16.2,25.08c-3.1.58-5.52-.69-7.13-2.06,2.83-.85,5.95.35,7.13,2.06"/>
  <path class="cls-1" d="M40.99,22.88c-1.46,1.56-4.01,2.74-7.13,2.19,1.27-1.76,4.03-2.72,7.13-2.19"/>
  <path class="cls-1" d="M19.77,26.45c-1.49,1.57-5.57.95-7.41.14,1.46-1.62,5.68-1.24,7.41-.14"/>
  <path class="cls-1" d="M37.59,26.45c-1.64,1.1-5.72,1.42-7.41.14,1.53-1.37,5.77-1.49,7.41-.14"/>
  <path class="cls-1" d="M17.48,4.67c1.11-1.45,3.08-2.32,4.92-2.05-.19,1.59-3.31,2.55-4.92,2.05"/>
  <path class="cls-1" d="M18.89,2.57c2.05-.21,4.1-.93,4.15-2.57-1.71.14-3.74.82-4.15,2.57"/>
  <path class="cls-1" d="M19.16,0c-.15,2.34-1.71,4.91-3.56,5.04C16.12,2.74,17.31.17,19.16,0"/>
  <path class="cls-1" d="M33.01,4.63c-1.18-1.39-3.2-2.16-5.02-1.79.27,1.58,3.44,2.38,5.02,1.79"/>
  <path class="cls-1" d="M30.95,2.74c-1.96-.3-3.89-1.1-3.86-2.68,1.64.22,3.55.98,3.86,2.68"/>
  <path class="cls-1" d="M31.12,0c1.88,1.02,3.42,3.29,2.82,4.87C32.22,3.57,30.55,1.6,31.12,0"/>
  <path class="cls-2" d="M22.1,33.74v-.05c.12-.02.21-.06.27-.12.02-.03.04-.06.05-.1,0-.04.01-.1.01-.18v-1.04c0-.1,0-.17-.03-.22-.02-.05-.05-.09-.1-.11-.05-.02-.12-.04-.21-.05v-.05l.67-.14v1.6c0,.09,0,.15.02.19s.03.08.07.11c.06.05.14.09.26.11v.05h-1.02ZM22.36,33.67h.43l-.06-.04s-.04-.03-.05-.04c-.01-.01-.02-.02-.02-.04,0-.01,0-.03,0-.05v-1.72l-.36.07.12.06s0,0,.01,0l.04.02s.04.05.04.09v.07s0,1.31,0,1.31v.03s0,.02,0,.05,0,.05-.01.07c0,.01-.03.03-.06.06l-.06.04Z"/>
  <path class="cls-2" d="M24.53,32.82c-.07.06-.14.11-.22.14-.08.03-.16.05-.24.05-.19,0-.35-.06-.47-.17-.12-.12-.18-.27-.18-.46,0-.09.02-.18.05-.27.03-.08.08-.16.15-.22.06-.06.14-.11.22-.15s.18-.05.27-.05c.11,0,.22.03.32.07.1.05.18.12.25.21.07.09.12.2.16.32.04.13.06.26.06.41,0,.16-.02.31-.06.44-.04.14-.1.25-.19.35-.06.07-.12.12-.19.17-.07.05-.14.08-.21.1-.07.02-.15.04-.23.04s-.16-.01-.22-.04c-.07-.03-.12-.06-.16-.11-.04-.05-.06-.1-.06-.16,0-.05.01-.08.04-.11.03-.03.06-.04.11-.04.04,0,.07.01.09.03.02.02.04.05.05.09v.06c.02.07.04.12.06.15.03.03.06.04.11.04.06,0,.13-.03.19-.08s.12-.13.16-.22c.08-.16.12-.36.14-.61M24,32.96c-.26-.13-.38-.35-.38-.65,0-.12.02-.21.05-.3.04-.08.09-.16.17-.23-.08.04-.14.08-.2.14-.06.06-.1.13-.13.21-.03.08-.05.16-.05.24,0,.1.02.19.06.27.04.08.09.15.17.2.04.03.09.05.13.07.04.02.1.03.18.04M23.83,33.73s-.06-.08-.07-.1c-.01-.03-.02-.07-.03-.13,0-.05-.02-.07-.05-.07-.04,0-.05.02-.05.07,0,.04.02.08.05.13.02.03.04.05.06.06.02.01.05.03.09.05M24.53,32.75v-.09c0-.14-.01-.27-.03-.4-.02-.13-.05-.22-.09-.3-.04-.07-.08-.13-.13-.17-.05-.04-.11-.06-.17-.06-.1,0-.18.05-.24.14-.06.09-.09.22-.09.37,0,.12.02.24.05.34.04.1.09.18.16.24.07.06.14.09.22.09.06,0,.11-.01.16-.04.05-.03.11-.07.17-.13M24.23,33.71c.17-.08.29-.21.38-.37.09-.17.13-.37.13-.62,0-.11,0-.22-.03-.31-.02-.09-.04-.18-.08-.26-.04-.08-.08-.15-.13-.21-.05-.06-.12-.11-.19-.16.06.06.1.11.13.17.03.05.06.12.08.2.04.14.06.33.06.55,0,.12,0,.24-.03.35-.02.11-.04.21-.08.3-.03.08-.06.15-.1.2-.03.05-.08.1-.15.16"/>
  <path class="cls-2" d="M25.89,33.74h-.4c0-.15.02-.29.05-.42.03-.13.07-.26.11-.38.04-.09.07-.17.11-.25.04-.08.09-.16.14-.24.07-.1.16-.23.29-.39l.04-.05h-.56c-.08,0-.15,0-.21.02-.06.01-.11.04-.15.07-.04.03-.08.07-.11.13h-.05l.18-.51h1.12v.07c-.19.28-.33.53-.41.73-.03.07-.05.14-.07.23-.02.08-.04.17-.05.26-.01.09-.02.19-.02.3,0,.11,0,.23,0,.36v.07ZM26.34,31.78h-.96l-.08.21s.09-.06.13-.07c.04-.01.1-.02.17-.02h.65l.08-.12ZM25.73,33.67c0-.16.01-.31.04-.46.02-.15.06-.29.1-.43.04-.14.1-.27.16-.41-.1.13-.18.26-.25.41-.07.15-.13.29-.17.44-.04.15-.06.3-.07.45h.18Z"/>
  <path class="cls-2" d="M27.3,33.74h-.4c0-.15.02-.29.05-.42.03-.13.07-.26.11-.38.04-.09.07-.17.11-.25.04-.08.09-.16.14-.24.07-.1.16-.23.29-.39l.04-.05h-.56c-.08,0-.15,0-.21.02-.06.01-.11.04-.15.07-.04.03-.08.07-.11.13h-.05l.18-.51h1.12v.07c-.19.28-.33.53-.41.73-.03.07-.05.14-.07.23-.02.08-.04.17-.05.26-.01.09-.02.19-.02.3,0,.11,0,.23,0,.36v.07ZM27.74,31.78h-.96l-.08.21s.09-.06.13-.07c.04-.01.1-.02.18-.02h.65l.08-.12ZM27.14,33.67c0-.16.01-.31.04-.46.02-.15.06-.29.1-.43.04-.14.1-.27.17-.41-.1.13-.18.26-.25.41-.07.15-.13.29-.17.44-.04.15-.06.3-.07.45h.18Z"/>
  <path class="cls-1" d="M30.64,32.02c.08.21-.13.54-.27.62-.18.1-.32.14-.55.07-2.49-3.18-3.34-3.35-3.74-3.54-4.52-1.81-4.69,1.02-9.86-.39,3.26-3.1,7.98-1,10.16-.05,1.14.5,3.39,1.84,4.25,3.29"/>
  <path class="cls-1" d="M19.32,32.02c-.08.21.13.54.27.62.18.1.32.14.55.07,2.48-3.18,3.34-3.35,3.74-3.54,4.52-1.81,4.69,1.02,9.86-.39-3.26-3.1-7.98-1-10.16-.05-1.14.5-3.39,1.84-4.25,3.29"/>
  <path class="cls-1" d="M31.95,5.07c.16.4.35.77.57,1.1.75.14,1.16.25,1.18.26l.2.05v1.14c1.04.74,2.28,1.01,3.49.81-1.49-2.32-3.36-3.19-5.43-3.36"/>
  <path class="cls-2" d="M5.39,36.72v2.57c0,1.5-.61,2.53-2.34,2.53-1.61,0-2.32-.85-2.3-2.04v-3.07l-.75-.13v-.26h2.26v.26l-.75.13v2.79c-.02,1.14.43,1.9,1.61,1.9.38,0,1-.15,1.37-.6.3-.36.3-1.04.3-1.45v-2.63l-.75-.13v-.26h2.12v.26l-.75.13Z"/>
  <path class="cls-2" d="M7.28,41.3v-4.58l-.75-.13v-.26h1.41l3.77,4.18v-3.79l-.75-.13v-.26h1.95v.26l-.75.13v5.02h-.38c-.51-.58-3.2-3.54-4.04-4.46v4.02l.78.13v.26h-1.98v-.26l.75-.13Z"/>
  <polygon class="cls-2" points="14.75 36.72 14.75 41.3 15.5 41.43 15.5 41.69 13.24 41.69 13.24 41.43 13.99 41.3 13.99 36.72 13.24 36.59 13.24 36.33 15.5 36.33 15.5 36.59 14.75 36.72"/>
  <path class="cls-2" d="M18.71,40.55l1.41-3.82-.75-.13v-.26h1.78v.26l-.54.13c-.57,1.34-1.41,3.66-1.9,5.03h-.31l-1.94-5.03-.75-.13v-.26h2.26v.26l-.75.13,1.49,3.82Z"/>
  <path class="cls-2" d="M22.96,38.74h1.41l.15-.58h.23c-.05.41-.05,1.14,0,1.55h-.23l-.14-.59h-1.42v2.1h2.13l.31-.84h.28l-.31,1.31h-3.9v-.26l.75-.13v-4.58l-.75-.13v-.26h3.54l.11,1.18h-.24l-.21-.75h-1.7v1.98Z"/>
  <path class="cls-2" d="M26.98,41.3v-4.58l-.79-.13v-.26h2.52c.77,0,1.5.39,1.5,1.31,0,.66-.44,1.22-.97,1.58l.99,1.32c.28.38.63.88,1.11,1.08l-.08.23-.58-.15c-.18-.05-.47-.12-.51-.17-.58-.69-1.14-1.43-1.62-2.14-.25.02-.52.03-.81.03v1.88l.75.13v.26h-2.3v-.26l.79-.13ZM27.73,39.07c.08,0,.21,0,.32,0,.94,0,1.4-.05,1.4-1.12,0-.86-.44-1.34-1.31-1.34-.15,0-.29.02-.41.05v2.41Z"/>
  <path class="cls-2" d="M34.98,37.57l-.25.04c-.12-.57-.38-1.05-1.03-1.05-.57,0-.98.35-.98.94,0,1.47,2.57,1.11,2.57,2.66,0,.97-.64,1.65-1.77,1.65-.52,0-1.19-.12-1.57-.4l-.08-1.28.25-.06c.06.41.15.74.26.95.17.32.77.49,1.1.49.64,0,1.12-.32,1.12-.99,0-1.31-2.57-.89-2.57-2.84,0-.81.64-1.47,1.72-1.47.38,0,.75.13,1.12.17l.11,1.19Z"/>
  <polygon class="cls-2" points="37.36 36.72 37.36 41.3 38.11 41.43 38.11 41.69 35.85 41.69 35.85 41.43 36.6 41.3 36.6 36.72 35.85 36.59 35.85 36.33 38.11 36.33 38.11 36.59 37.36 36.72"/>
  <path class="cls-2" d="M40.67,41.3v-4.54h-.95c-.27,0-.53.02-.76.03l-.28.85h-.27l.16-1.31h5.03l.07,1.31h-.28l-.18-.85c-.25-.02-.52-.03-.81-.03h-.98v4.54l.85.13v.26h-2.46v-.26l.85-.13Z"/>
  <polygon class="cls-2" points="46.36 41.3 46.36 39.43 44.71 36.72 43.96 36.59 43.96 36.33 46.3 36.33 46.3 36.59 45.54 36.72 46.93 38.94 48.15 36.72 47.4 36.59 47.4 36.33 49.3 36.33 49.3 36.59 48.69 36.72 47.11 39.45 47.11 41.3 48.01 41.43 48.01 41.69 45.46 41.69 45.46 41.43 46.36 41.3"/>
  <path class="cls-2" d="M7.81,47.4c0,1.54-1.08,2.6-2.74,2.6-1.96,0-2.9-1.18-2.9-2.73,0-1.75,1.03-2.86,2.71-2.86,1.96,0,2.93,1.23,2.93,2.99M5.11,49.71c1.43,0,1.89-1.15,1.89-2.4,0-1.61-1.04-2.61-2.15-2.61s-1.87.82-1.87,2.22c0,1.7.79,2.79,2.13,2.79"/>
  <path class="cls-2" d="M11.56,47.32h-1.55v2.17l.83.13v.26h-2.41v-.26l.83-.13v-4.58l-.83-.13v-.26h3.67l.09,1.23h-.26l-.18-.8h-1.74v1.98h1.54l.15-.58h.23c-.05.42-.05,1.14,0,1.55h-.23l-.14-.59Z"/>
  <path class="cls-2" d="M18.13,45.77l-.25.04c-.12-.57-.38-1.05-1.03-1.05-.57,0-.98.35-.98.94,0,1.47,2.57,1.11,2.57,2.66,0,.97-.64,1.65-1.77,1.65-.52,0-1.19-.12-1.57-.4l-.08-1.27.25-.06c.06.41.15.74.26.95.17.32.77.49,1.1.49.64,0,1.12-.31,1.12-.99,0-1.31-2.57-.89-2.57-2.84,0-.81.65-1.47,1.72-1.47.38,0,.75.13,1.12.17l.11,1.19Z"/>
  <path class="cls-2" d="M23.06,44.92l-1.43,2.14,1.57,1.82c.47.55.61.74,1.11.75v.26h-2.19v-.26l.65-.13-1.77-2.06h-.36v2.06l.75.13v.26h-2.26v-.26l.75-.13v-4.58l-.75-.13v-.26h2.26v.26l-.75.13v2.21c.39,0,.47-.03.58-.19l1.34-2.02-.67-.13v-.26h1.97v.26l-.81.13Z"/>
  <path class="cls-2" d="M30.43,47.4c0,1.54-1.08,2.6-2.74,2.6-1.96,0-2.9-1.18-2.9-2.73,0-1.75,1.03-2.86,2.71-2.86,1.96,0,2.93,1.23,2.93,2.99M27.73,49.71c1.43,0,1.89-1.15,1.89-2.4,0-1.61-1.04-2.61-2.15-2.61s-1.87.82-1.87,2.22c0,1.7.79,2.79,2.13,2.79M26.94,43c.22,0,.4.18.4.4s-.18.39-.4.39-.39-.18-.39-.39.18-.4.39-.4M28.27,43.79c-.22,0-.41-.18-.41-.39s.19-.4.41-.4.38.19.38.4-.18.39-.38.39"/>
  <path class="cls-2" d="M33.85,48.74l1.41-3.82-.75-.13v-.26h1.78v.26l-.54.13c-.57,1.34-1.41,3.66-1.9,5.03h-.31l-1.94-5.03-.75-.13v-.26h2.26v.26l-.75.13,1.49,3.82Z"/>
  <path class="cls-2" d="M36.5,49.62l.75-.13v-4.58l-.75-.13v-.26h2.86c1.61,0,3.03.58,3.03,2.51,0,2.04-1.39,2.85-3.13,2.85h-2.76v-.26ZM38.01,49.44c.48.08.88.14,1.37.14,1.32,0,2.2-.78,2.2-2.25,0-1.77-1.02-2.51-2.61-2.51-.32,0-.64,0-.96.04v4.58Z"/>
  <path class="cls-2" d="M44.51,46.94h1.41l.15-.58h.23c-.05.41-.05,1.14,0,1.55h-.23l-.14-.59h-1.42v2.1h2.13l.31-.84h.28l-.31,1.31h-3.9v-.26l.75-.13v-4.58l-.75-.13v-.26h3.54l.11,1.18h-.24l-.21-.75h-1.7v1.98Z"/>
</svg>