<?xml version="1.0" encoding="UTF-8"?>
<svg id="Layer_1" data-name="Layer 1" xmlns="http://www.w3.org/2000/svg" viewBox="0 0 578.27 347.5">
  <defs>
    <style>
      .cls-1, .cls-2 {
        fill: none;
      }

      .cls-3 {
        fill: #1d1d1b;
      }

      .cls-2 {
        stroke: #1d1d1b;
        stroke-width: 6.21px;
      }
    </style>
  </defs>
  <polygon class="cls-2" points="569.5 99.43 569.5 8.77 305.22 8.77 289.13 24.86 273.04 8.77 8.77 8.77 8.77 99.43 26.47 117.12 8.77 134.82 8.77 225.47 273.04 225.47 289.13 209.39 305.22 225.47 569.5 225.47 569.5 134.82 551.8 117.12 569.5 99.43"/>
  <rect class="cls-1" x="5.67" y="5.66" width="566.93" height="336.17"/>
  <polygon class="cls-3" points="473.44 112.01 511.05 63.65 474.8 63.65 438.56 111.98 479.05 166.34 515.29 166.34 473.44 112.01"/>
  <polygon class="cls-3" points="286.17 63.65 286.17 99.89 286.17 166.34 316.37 166.34 316.37 123.39 340.53 142.18 364.69 123.39 364.69 166.34 394.9 166.34 394.9 99.89 394.9 63.65 340.53 104.59 286.17 63.65"/>
  <rect class="cls-3" x="408.47" y="63.65" width="30.2" height="102.69"/>
  <polygon class="cls-3" points="272.6 166.34 272.6 166.34 272.6 63.65 242.39 63.65 172.93 154.49 140.6 112.22 177.74 63.65 141.5 63.65 122.48 88.52 103.46 63.65 67.22 63.65 104.36 112.22 62.97 166.34 99.22 166.34 122.48 135.92 145.75 166.34 163.87 166.34 181.99 166.34 200.11 166.34 242.39 111.37 242.39 138.59 233.52 138.59 212.1 166.34 264.36 166.34 272.6 166.34"/>
  <path class="cls-3" d="M567.18,323.44c-.69-.46-1.33-.81-1.92-1.07-.6-.25-1.21-.48-1.85-.68-.63-.2-1.36-.41-2.19-.61-.83-.2-1.47-.42-1.92-.65-.66-.3-.99-.79-.99-1.45,0-.74.32-1.29.95-1.66.64-.37,1.46-.55,2.48-.55,1.93,0,3.72.55,5.37,1.64l1.6-3.16c-2.08-1.37-4.29-2.05-6.63-2.05s-4.23.56-5.69,1.69-2.19,2.63-2.19,4.51c0,2.66,2.1,4.57,6.32,5.71.1.02.25.07.46.15,2.69.81,4.04,1.73,4.04,2.74,0,.69-.28,1.25-.84,1.69-.56.44-1.32.67-2.28.67-2.21,0-4.49-.89-6.86-2.67l-2.05,3.31c1.22.97,2.62,1.71,4.21,2.25,1.59.53,3.11.8,4.59.8,2.18,0,3.97-.58,5.37-1.73,1.39-1.16,2.09-2.7,2.09-4.63s-.68-3.35-2.05-4.26M536.7,318.29c1.24-.95,2.64-1.43,4.21-1.43s2.87.46,3.94,1.37c1.06.92,1.6,2.22,1.6,3.92h-11.61c0-1.62.62-2.91,1.87-3.86M550.71,322.57c0-2.92-.97-5.21-2.89-6.88-1.93-1.66-4.27-2.49-7.03-2.49s-5.15.94-7.18,2.82c-2.03,1.88-3.05,4.41-3.05,7.6s1,5.73,2.99,7.62c1.99,1.89,4.41,2.84,7.25,2.84,3.5,0,6.35-1.13,8.53-3.39l-2.44-2.67c-1.32,1.6-3.25,2.4-5.79,2.4-1.6,0-3.02-.45-4.26-1.35-1.24-.9-1.92-2.09-2.02-3.56h15.88v-2.93ZM528.55,330.33l-2.51-2.74c-1.68,1.73-3.46,2.59-5.35,2.59s-3.48-.65-4.78-1.94c-1.29-1.29-1.94-2.87-1.94-4.74s.65-3.39,1.96-4.57c1.31-1.18,2.85-1.77,4.62-1.77s3.54.76,5.29,2.28l2.51-3.09c-2.11-2.11-4.68-3.16-7.73-3.16s-5.63.97-7.75,2.91c-2.12,1.94-3.18,4.46-3.18,7.56s1.01,5.6,3.04,7.52c2.03,1.92,4.46,2.87,7.27,2.87,3.23,0,6.07-1.24,8.53-3.73M492.89,318.51c1.09-.97,2.37-1.47,3.85-1.47,3.09,0,4.64,1.87,4.64,5.6v11.12h4.26v-12.42c0-2.64-.7-4.66-2.11-6.05-1.41-1.4-3.26-2.1-5.54-2.1-1.39,0-2.7.36-3.9,1.06-1.21.71-2.15,1.69-2.84,2.93v-3.69h-4.26v20.26h4.26v-10.97c0-1.88.55-3.31,1.64-4.28M468.67,318.29c1.24-.95,2.65-1.43,4.21-1.43s2.87.46,3.94,1.37c1.06.92,1.6,2.22,1.6,3.92h-11.61c0-1.62.62-2.91,1.87-3.86M482.69,322.57c0-2.92-.97-5.21-2.89-6.88-1.93-1.66-4.27-2.49-7.03-2.49s-5.15.94-7.18,2.82c-2.03,1.88-3.05,4.41-3.05,7.6s1,5.73,2.99,7.62c1.99,1.89,4.41,2.84,7.25,2.84,3.5,0,6.35-1.13,8.53-3.39l-2.44-2.67c-1.32,1.6-3.25,2.4-5.79,2.4-1.6,0-3.02-.45-4.26-1.35-1.24-.9-1.92-2.09-2.02-3.56h15.88v-2.93ZM456.21,310.27c.74,0,1.37-.27,1.9-.8.53-.53.8-1.17.8-1.91s-.27-1.37-.8-1.9c-.53-.53-1.17-.8-1.9-.8s-1.37.27-1.9.8c-.53.53-.8,1.17-.8,1.9s.27,1.37.8,1.91c.53.53,1.17.8,1.9.8M458.3,313.5h-4.26v20.26h4.26v-20.26ZM450.44,330.33l-2.51-2.74c-1.68,1.73-3.46,2.59-5.35,2.59s-3.48-.65-4.78-1.94c-1.29-1.29-1.94-2.87-1.94-4.74s.65-3.39,1.96-4.57c1.31-1.18,2.85-1.77,4.62-1.77s3.54.76,5.29,2.28l2.51-3.09c-2.11-2.11-4.68-3.16-7.73-3.16s-5.63.97-7.75,2.91c-2.12,1.94-3.18,4.46-3.18,7.56s1.01,5.6,3.04,7.52c2.03,1.92,4.46,2.87,7.27,2.87,3.23,0,6.07-1.24,8.53-3.73M422.04,311.34c1.35.46,2.41,1.04,3.2,1.75l2.4-3.39c-1.22-1.01-2.67-1.8-4.34-2.36-1.68-.56-3.36-.84-5.06-.84-2.64,0-4.86.66-6.65,2-1.79,1.33-2.68,3.23-2.68,5.69s.79,4.29,2.36,5.48c.79.64,1.69,1.15,2.7,1.54,1.02.39,2.5.83,4.45,1.29,1.96.47,3.33.99,4.13,1.56s1.2,1.37,1.2,2.4-.43,1.85-1.28,2.48c-.85.62-2,.93-3.45.93-2.89,0-5.69-1.17-8.38-3.5l-2.82,3.39c3.22,2.87,6.92,4.31,11.08,4.31,2.84,0,5.14-.72,6.89-2.17,1.75-1.45,2.63-3.33,2.63-5.65s-.69-4.08-2.07-5.27c-1.38-1.2-3.44-2.12-6.17-2.78-2.73-.66-4.51-1.28-5.35-1.85-.84-.57-1.26-1.4-1.26-2.47s.42-1.89,1.26-2.42c.84-.53,1.91-.8,3.22-.8s2.64.23,3.98.69M378.94,318.87c1.22-1.29,2.68-1.94,4.38-1.94s3.13.65,4.3,1.94c1.17,1.29,1.75,2.91,1.75,4.84s-.59,3.51-1.75,4.74c-1.17,1.23-2.59,1.85-4.26,1.85s-3.13-.61-4.38-1.83c-1.24-1.22-1.87-2.8-1.87-4.74s.61-3.56,1.83-4.85M382.4,334.07c3.02,0,5.32-1.12,6.89-3.35v3.05h4.26v-28.26h-4.26v11.12c-1.65-2.28-3.83-3.43-6.53-3.43s-5.03.94-6.99,2.82c-1.96,1.88-2.93,4.39-2.93,7.54s.95,5.69,2.86,7.61c1.9,1.93,4.14,2.9,6.7,2.9M355.79,318.29c1.24-.95,2.64-1.43,4.21-1.43s2.88.46,3.94,1.37c1.07.92,1.6,2.22,1.6,3.92h-11.61c0-1.62.62-2.91,1.87-3.86M369.8,322.57c0-2.92-.97-5.21-2.89-6.88-1.93-1.66-4.27-2.49-7.02-2.49s-5.15.94-7.18,2.82c-2.03,1.88-3.04,4.41-3.04,7.6s.99,5.73,2.99,7.62c1.99,1.89,4.41,2.84,7.25,2.84,3.5,0,6.34-1.13,8.53-3.39l-2.44-2.67c-1.32,1.6-3.25,2.4-5.79,2.4-1.6,0-3.02-.45-4.26-1.35-1.24-.9-1.92-2.09-2.02-3.56h15.88v-2.93ZM343.32,310.27c.74,0,1.37-.27,1.91-.8.53-.53.8-1.17.8-1.91s-.26-1.37-.8-1.9c-.53-.53-1.17-.8-1.91-.8s-1.37.27-1.9.8-.8,1.17-.8,1.9.27,1.37.8,1.91c.53.53,1.17.8,1.9.8M345.42,313.5h-4.26v20.26h4.26v-20.26ZM335.63,305.51h-4.26v28.26h4.26v-28.26ZM312.24,318.86c1.17-1.28,2.6-1.92,4.31-1.92s3.16.64,4.38,1.92c1.22,1.28,1.83,2.89,1.83,4.84s-.62,3.52-1.87,4.74c-1.24,1.22-2.7,1.83-4.38,1.83s-3.1-.61-4.26-1.85-1.75-2.81-1.75-4.74.58-3.54,1.75-4.82M310.57,317.05v-3.54h-4.26v27.65h4.26v-10.44c2.03,2.23,4.32,3.35,6.87,3.35s4.78-.98,6.7-2.93c1.92-1.96,2.87-4.49,2.87-7.61s-.97-5.62-2.89-7.5c-1.93-1.88-4.25-2.82-6.97-2.82s-4.91,1.28-6.59,3.85M287.15,318.86c1.17-1.28,2.6-1.92,4.31-1.92s3.16.64,4.38,1.92c1.22,1.28,1.83,2.89,1.83,4.84s-.62,3.52-1.87,4.74c-1.24,1.22-2.7,1.83-4.38,1.83s-3.1-.61-4.26-1.85-1.75-2.81-1.75-4.74.58-3.54,1.75-4.82M285.48,317.05v-3.54h-4.26v27.65h4.26v-10.44c2.03,2.23,4.32,3.35,6.88,3.35s4.78-.98,6.7-2.93c1.92-1.96,2.87-4.49,2.87-7.61s-.97-5.62-2.89-7.5c-1.93-1.88-4.25-2.82-6.97-2.82s-4.91,1.28-6.59,3.85M259.35,323.56l4.84-10.97,4.84,10.97h-9.67ZM270.85,327.71l2.66,6.06h4.8l-11.73-26.62h-4.8l-11.73,26.62h4.8l2.67-6.06h13.33ZM234.79,309.53c.51-.57,1.22-.86,2.13-.86s1.79.44,2.63,1.33l1.75-3.01c-1.5-1.34-3.15-2.02-4.97-2.02s-3.36.63-4.65,1.88c-1.28,1.26-1.92,2.95-1.92,5.08v1.56h-2.55v3.43h2.55v16.83h4.26v-16.83h5.33v-3.43h-5.33v-1.68c0-.96.25-1.73.76-2.3M225,323.63c0-2.92-1.01-5.39-3.04-7.41-2.03-2.02-4.57-3.03-7.62-3.03s-5.58,1.01-7.62,3.03c-2.03,2.02-3.04,4.49-3.04,7.41s1.01,5.39,3.04,7.41c2.03,2.02,4.57,3.03,7.62,3.03s5.58-1.01,7.62-3.03c2.03-2.02,3.04-4.49,3.04-7.41M207.94,323.63c0-1.95.6-3.55,1.81-4.78,1.2-1.23,2.73-1.85,4.59-1.85s3.38.61,4.59,1.85c1.21,1.23,1.81,2.82,1.81,4.78s-.6,3.55-1.81,4.78c-1.2,1.23-2.73,1.85-4.59,1.85s-3.38-.61-4.59-1.85c-1.21-1.23-1.81-2.82-1.81-4.78M179.65,340.69c1.09-.76,1.93-1.8,2.51-3.12l9.82-24.06h-4.57l-6.06,14.93-6.05-14.93h-4.57c5.46,13.53,8.19,20.47,8.19,20.83,0,.81-.3,1.56-.89,2.24-.6.69-1.37,1.03-2.32,1.03s-1.87-.42-2.76-1.26l-1.94,3.46c1.5,1.35,3.18,2.02,5.03,2.02,1.32,0,2.52-.38,3.62-1.14M168.19,316.93v-3.43h-5.33v-6.36h-4.26v6.36h-2.55v3.43h2.55v10.17c0,2.13.64,3.83,1.92,5.08,1.28,1.26,2.83,1.89,4.64,1.89s3.47-.67,4.97-2.02l-1.75-3.01c-.84.89-1.71,1.33-2.63,1.33s-1.62-.29-2.13-.86c-.51-.57-.76-1.34-.76-2.3v-10.28h5.33ZM150.31,310.27c.74,0,1.37-.27,1.91-.8.53-.53.8-1.17.8-1.91s-.27-1.37-.8-1.9c-.53-.53-1.17-.8-1.91-.8s-1.37.27-1.9.8c-.53.53-.8,1.17-.8,1.9s.27,1.37.8,1.91c.53.53,1.17.8,1.9.8M152.41,313.5h-4.26v20.26h4.26v-20.26ZM141.82,323.44c-.69-.46-1.33-.81-1.92-1.07-.6-.25-1.21-.48-1.85-.68-.64-.2-1.37-.41-2.19-.61-.83-.2-1.47-.42-1.92-.65-.66-.3-.99-.79-.99-1.45,0-.74.32-1.29.95-1.66.63-.37,1.46-.55,2.47-.55,1.93,0,3.72.55,5.37,1.64l1.6-3.16c-2.08-1.37-4.29-2.05-6.62-2.05s-4.23.56-5.69,1.69c-1.46,1.13-2.19,2.63-2.19,4.51,0,2.66,2.11,4.57,6.32,5.71.1.02.25.07.46.15,2.69.81,4.04,1.73,4.04,2.74,0,.69-.28,1.25-.84,1.69-.56.44-1.32.67-2.28.67-2.21,0-4.49-.89-6.85-2.67l-2.05,3.31c1.22.97,2.62,1.71,4.21,2.25,1.59.53,3.12.8,4.59.8,2.19,0,3.97-.58,5.37-1.73,1.4-1.16,2.1-2.7,2.1-4.63s-.69-3.35-2.05-4.26M125.82,317.5l-.04-4.3c-1.32.02-2.57.44-3.75,1.26-1.18.81-2.11,1.85-2.8,3.12v-4.08h-4.26v20.26h4.26v-8.68c0-2.31.53-4.15,1.6-5.52,1.07-1.37,2.65-2.06,4.76-2.06h.23ZM96.65,318.29c1.24-.95,2.64-1.43,4.21-1.43s2.87.46,3.94,1.37c1.06.92,1.6,2.22,1.6,3.92h-11.61c0-1.62.62-2.91,1.87-3.86M110.67,322.57c0-2.92-.97-5.21-2.89-6.88-1.93-1.66-4.27-2.49-7.03-2.49s-5.15.94-7.18,2.82c-2.03,1.88-3.05,4.41-3.05,7.6s1,5.73,2.99,7.62c1.99,1.89,4.41,2.84,7.25,2.84,3.5,0,6.35-1.13,8.53-3.39l-2.44-2.67c-1.32,1.6-3.25,2.4-5.79,2.4-1.6,0-3.02-.45-4.26-1.35-1.24-.9-1.92-2.09-2.02-3.56h15.88v-2.93ZM81.5,333.76l8.15-20.26h-4.42l-6.17,15.31-6.17-15.31h-4.42l8.15,20.26h4.87ZM63.45,310.27c.74,0,1.37-.27,1.91-.8.53-.53.8-1.17.8-1.91s-.26-1.37-.8-1.9c-.53-.53-1.17-.8-1.91-.8s-1.37.27-1.9.8c-.53.53-.8,1.17-.8,1.9s.27,1.37.8,1.91c.53.53,1.17.8,1.9.8M65.55,313.5h-4.26v20.26h4.26v-20.26ZM43.23,318.51c1.09-.97,2.37-1.47,3.85-1.47,3.1,0,4.65,1.87,4.65,5.6v11.12h4.26v-12.42c0-2.64-.7-4.66-2.11-6.05-1.41-1.4-3.26-2.1-5.54-2.1-1.4,0-2.7.36-3.9,1.06-1.2.71-2.15,1.69-2.84,2.93v-3.69h-4.26v20.26h4.26v-10.97c0-1.88.55-3.31,1.64-4.28M13.52,321.88v-14.74h-4.49v14.93c0,3.83,1.06,6.79,3.16,8.86,2.1,2.07,4.81,3.1,8.11,3.1s6-1.03,8.11-3.1c2.1-2.07,3.16-5.02,3.16-8.86v-14.93h-4.49v14.74c0,2.44-.61,4.37-1.83,5.79-1.22,1.42-2.87,2.13-4.95,2.13s-3.73-.71-4.95-2.13c-1.22-1.42-1.83-3.35-1.83-5.79"/>
  <path class="cls-3" d="M479.34,275.3c1.22-1.29,2.68-1.94,4.38-1.94s3.13.65,4.31,1.94c1.17,1.29,1.75,2.91,1.75,4.84s-.58,3.51-1.75,4.74c-1.17,1.23-2.59,1.85-4.26,1.85s-3.14-.61-4.38-1.83c-1.24-1.22-1.87-2.8-1.87-4.74s.61-3.56,1.83-4.85M482.8,290.49c3.02,0,5.32-1.12,6.89-3.35v3.05h4.26v-28.26h-4.26v11.12c-1.65-2.28-3.82-3.43-6.53-3.43s-5.03.94-6.99,2.82-2.93,4.39-2.93,7.54.95,5.69,2.86,7.62c1.9,1.93,4.14,2.89,6.7,2.89M456.34,274.94c1.09-.98,2.37-1.47,3.85-1.47,3.1,0,4.65,1.87,4.65,5.6v11.12h4.26v-12.42c0-2.64-.7-4.66-2.11-6.05s-3.26-2.1-5.54-2.1c-1.4,0-2.7.36-3.9,1.07-1.2.71-2.15,1.69-2.83,2.93v-3.69h-4.26v20.26h4.26v-10.97c0-1.88.54-3.31,1.64-4.28M439.29,285.73c-1.02.76-2.2,1.14-3.56,1.14s-2.42-.26-3.18-.78c-.76-.52-1.14-1.28-1.14-2.27,0-1.93,1.54-2.89,4.61-2.89h4.8v1.71c0,1.29-.51,2.32-1.52,3.08M445.08,277.13c0-2.59-.75-4.49-2.27-5.69-1.51-1.2-3.46-1.81-5.84-1.81-3.12,0-5.91.98-8.38,2.93l1.91,2.67c2.03-1.37,3.99-2.06,5.86-2.06,3,0,4.49,1.35,4.49,4.04v.76h-5.52c-2.51,0-4.51.49-5.98,1.48-1.47.99-2.21,2.48-2.21,4.48s.69,3.59,2.08,4.78c1.38,1.2,3.13,1.79,5.24,1.79,2.82,0,5.06-1,6.74-3.01v2.7h3.88v-13.06ZM423.03,261.93h-4.26v28.26h4.26v-28.26ZM400.64,274.94c1.09-.98,2.37-1.47,3.85-1.47,3.09,0,4.64,1.87,4.64,5.6v11.12h4.26v-12.42c0-2.64-.7-4.66-2.11-6.05-1.41-1.4-3.26-2.1-5.54-2.1-1.4,0-2.7.36-3.9,1.07s-2.15,1.69-2.84,2.93v-3.69h-4.26v20.26h4.26v-10.97c0-1.88.55-3.31,1.64-4.28M387.1,266.69c.74,0,1.37-.26,1.9-.8.53-.53.8-1.17.8-1.91s-.27-1.37-.8-1.9c-.53-.53-1.17-.8-1.9-.8s-1.37.27-1.91.8c-.53.53-.8,1.17-.8,1.9s.27,1.37.8,1.91c.53.53,1.17.8,1.91.8M389.2,269.93h-4.26v20.26h4.26v-20.26ZM380.98,267.76l.04-4.19h-17.74v26.62h4.49v-10.97h11.8v-4.15h-11.8v-7.31h13.21ZM334.29,274.94c1.09-.98,2.37-1.47,3.85-1.47,3.1,0,4.65,1.87,4.65,5.6v11.12h4.26v-12.42c0-2.64-.7-4.66-2.11-6.05-1.41-1.4-3.26-2.1-5.54-2.1-1.4,0-2.7.36-3.9,1.07-1.2.71-2.15,1.69-2.84,2.93v-3.69h-4.26v20.26h4.26v-10.97c0-1.88.55-3.31,1.64-4.28M325.01,273.93l-.04-4.3c-1.32.02-2.57.44-3.75,1.26-1.18.81-2.11,1.85-2.8,3.12v-4.08h-4.26v20.26h4.26v-8.68c0-2.31.53-4.15,1.6-5.52,1.07-1.37,2.65-2.06,4.76-2.06h.23ZM295.85,274.71c1.24-.95,2.65-1.43,4.21-1.43s2.87.46,3.94,1.37c1.06.92,1.6,2.22,1.6,3.92h-11.61c0-1.62.62-2.91,1.87-3.86M309.86,278.99c0-2.92-.97-5.21-2.89-6.87-1.93-1.66-4.27-2.5-7.03-2.5s-5.15.94-7.18,2.82c-2.03,1.88-3.05,4.41-3.05,7.6s1,5.73,2.99,7.62c1.99,1.89,4.41,2.84,7.25,2.84,3.5,0,6.35-1.13,8.53-3.39l-2.44-2.67c-1.32,1.6-3.25,2.4-5.79,2.4-1.6,0-3.02-.45-4.26-1.35-1.24-.9-1.92-2.09-2.02-3.56h15.88v-2.93ZM286.78,273.36v-3.43h-5.33v-6.36h-4.26v6.36h-2.55v3.43h2.55v10.17c0,2.13.64,3.83,1.92,5.08s2.83,1.88,4.65,1.88,3.47-.67,4.97-2.02l-1.75-3.01c-.84.89-1.71,1.33-2.63,1.33s-1.62-.29-2.13-.86c-.51-.57-.76-1.34-.76-2.3v-10.28h5.33ZM269.98,279.87c-.69-.46-1.33-.81-1.92-1.06-.6-.25-1.21-.48-1.85-.69-.63-.2-1.37-.41-2.19-.61-.83-.2-1.47-.42-1.92-.65-.66-.3-.99-.79-.99-1.45,0-.74.32-1.29.95-1.66.63-.37,1.46-.55,2.47-.55,1.93,0,3.72.55,5.37,1.64l1.6-3.16c-2.08-1.37-4.29-2.06-6.62-2.06s-4.23.56-5.69,1.69c-1.46,1.13-2.19,2.64-2.19,4.51,0,2.67,2.11,4.57,6.32,5.71.1.02.25.08.46.15,2.69.81,4.04,1.73,4.04,2.74,0,.69-.28,1.25-.83,1.69-.56.44-1.32.67-2.29.67-2.21,0-4.49-.89-6.85-2.67l-2.05,3.31c1.22.97,2.62,1.72,4.21,2.25,1.59.53,3.12.8,4.59.8,2.18,0,3.97-.58,5.37-1.73,1.4-1.15,2.1-2.7,2.1-4.63s-.69-3.35-2.05-4.26M246.52,285.73c-1.02.76-2.2,1.14-3.56,1.14s-2.42-.26-3.18-.78c-.76-.52-1.14-1.28-1.14-2.27,0-1.93,1.54-2.89,4.61-2.89h4.8v1.71c0,1.29-.51,2.32-1.52,3.08M252.3,277.13c0-2.59-.75-4.49-2.27-5.69-1.51-1.2-3.46-1.81-5.84-1.81-3.12,0-5.92.98-8.38,2.93l1.91,2.67c2.03-1.37,3.99-2.06,5.86-2.06,3,0,4.49,1.35,4.49,4.04v.76h-5.52c-2.51,0-4.51.49-5.98,1.48-1.47.99-2.21,2.48-2.21,4.48s.69,3.59,2.08,4.78c1.38,1.2,3.13,1.79,5.24,1.79,2.82,0,5.06-1,6.74-3.01v2.7h3.88v-13.06ZM212.12,263.57v26.62h19.15v-4.23h-14.66v-7.12h12.76v-4h-12.76v-7.05h14.2v-4.22h-18.7ZM206.07,276.82h-12.64v4h12.64v-4ZM175.54,274.94c1.09-.98,2.37-1.47,3.85-1.47,3.09,0,4.64,1.87,4.64,5.6v11.12h4.26v-12.42c0-2.64-.7-4.66-2.11-6.05-1.41-1.4-3.26-2.1-5.54-2.1-1.42,0-2.75.36-3.98,1.07-1.23.71-2.15,1.69-2.76,2.93v-11.65h-4.26v28.22h4.26v-10.97c0-1.88.55-3.31,1.64-4.28M164.75,273.36v-3.43h-5.33v-6.36h-4.26v6.36h-2.55v3.43h2.55v10.17c0,2.13.64,3.83,1.92,5.08,1.28,1.26,2.83,1.88,4.65,1.88s3.47-.67,4.97-2.02l-1.75-3.01c-.84.89-1.71,1.33-2.63,1.33s-1.63-.29-2.13-.86c-.51-.57-.76-1.34-.76-2.3v-10.28h5.33ZM142.99,285.18c-1.09.97-2.37,1.47-3.85,1.47-3.1,0-4.65-1.87-4.65-5.6v-11.12h-4.26v12.42c0,2.64.7,4.66,2.11,6.05,1.41,1.4,3.26,2.1,5.54,2.1,1.4,0,2.7-.36,3.9-1.07,1.21-.71,2.15-1.69,2.84-2.93v3.69h4.26v-20.26h-4.26v10.97c0,1.88-.55,3.31-1.64,4.29M126.2,280.06c0-2.92-1.01-5.39-3.05-7.41-2.03-2.02-4.57-3.03-7.61-3.03s-5.59,1.01-7.62,3.03c-2.03,2.02-3.04,4.49-3.04,7.41s1.01,5.39,3.04,7.41c2.03,2.02,4.57,3.03,7.62,3.03s5.58-1.01,7.61-3.03c2.03-2.02,3.05-4.49,3.05-7.41M109.14,280.06c0-1.96.6-3.55,1.81-4.78,1.2-1.23,2.73-1.85,4.59-1.85s3.38.61,4.59,1.85c1.2,1.23,1.81,2.82,1.81,4.78s-.61,3.55-1.81,4.78c-1.2,1.23-2.73,1.85-4.59,1.85s-3.38-.61-4.59-1.85c-1.21-1.23-1.81-2.82-1.81-4.78M95.35,267.76c1.34.46,2.41,1.04,3.2,1.75l2.4-3.39c-1.22-1.01-2.66-1.8-4.34-2.36-1.68-.56-3.36-.84-5.07-.84-2.64,0-4.85.67-6.65,2-1.79,1.33-2.68,3.23-2.68,5.69s.79,4.29,2.36,5.48c.79.63,1.69,1.15,2.7,1.54,1.01.39,2.5.82,4.46,1.29,1.95.47,3.33.99,4.13,1.56.8.57,1.2,1.37,1.2,2.4s-.43,1.86-1.28,2.48c-.85.62-2,.93-3.45.93-2.9,0-5.69-1.17-8.38-3.5l-2.82,3.39c3.22,2.87,6.92,4.3,11.08,4.3,2.84,0,5.14-.72,6.89-2.17,1.75-1.45,2.63-3.33,2.63-5.66s-.69-4.08-2.08-5.27c-1.38-1.2-3.44-2.12-6.17-2.78-2.73-.66-4.51-1.28-5.35-1.85-.84-.57-1.25-1.39-1.25-2.47s.42-1.88,1.25-2.42c.84-.53,1.91-.8,3.22-.8s2.63.23,3.98.69"/>
</svg>